<?xml version="1.0" standalone="no"?>
<!DOCTYPE svg PUBLIC "-//W3C//DTD SVG 20010904//EN"
 "http://www.w3.org/TR/2001/REC-SVG-20010904/DTD/svg10.dtd">
<svg version="1.0" xmlns="http://www.w3.org/2000/svg"
 width="2050.000000pt" height="2050.000000pt" viewBox="0 0 2050.000000 2050.000000"
 preserveAspectRatio="xMidYMid meet">
<metadata>
Created by potrace 1.14, written by Peter Selinger 2001-2017
</metadata>
<g transform="translate(0.000000,2050.000000) scale(0.100000,-0.100000)"
fill="#000000" stroke="none">
<path d="M9967 20494 c-1 -1 -74 -4 -162 -8 -156 -6 -200 -9 -355 -21 -184
-15 -289 -24 -315 -29 -11 -2 -51 -7 -90 -10 -38 -4 -81 -9 -95 -11 -14 -2
-45 -7 -70 -10 -25 -3 -56 -8 -70 -10 -14 -2 -45 -6 -70 -10 -25 -3 -56 -8
-70 -10 -14 -3 -38 -7 -55 -9 -206 -33 -470 -84 -655 -128 -47 -11 -94 -21
-105 -24 -11 -2 -74 -18 -140 -35 -66 -17 -127 -32 -135 -34 -146 -31 -790
-242 -1035 -340 -130 -52 -341 -138 -354 -145 -9 -5 -74 -34 -146 -66 -339
-148 -852 -421 -1200 -638 -271 -169 -822 -556 -903 -634 -8 -7 -30 -25 -50
-39 -21 -15 -62 -48 -92 -73 -30 -25 -65 -54 -79 -65 -296 -241 -738 -661
-1002 -950 -118 -131 -164 -181 -219 -245 -30 -35 -69 -80 -86 -99 -42 -49
-235 -291 -309 -387 -290 -377 -622 -887 -849 -1304 -141 -258 -350 -695 -451
-940 -26 -63 -54 -128 -61 -145 -19 -41 -99 -251 -114 -300 -7 -22 -15 -44
-19 -50 -3 -5 -7 -14 -8 -20 -1 -5 -31 -96 -67 -201 -75 -221 -169 -534 -201
-674 -2 -8 -18 -71 -35 -140 -18 -69 -33 -132 -35 -140 -9 -35 -94 -458 -99
-490 -3 -19 -8 -46 -10 -60 -3 -14 -12 -70 -21 -125 -9 -55 -18 -111 -20 -125
-2 -14 -6 -45 -10 -70 -3 -25 -7 -61 -10 -80 -4 -33 -9 -68 -20 -157 -4 -37
-10 -91 -20 -190 -2 -27 -7 -79 -10 -118 -4 -38 -8 -90 -10 -115 -2 -25 -7
-96 -10 -159 -4 -63 -8 -149 -11 -190 -5 -100 -5 -710 0 -831 10 -207 17 -327
21 -360 2 -19 7 -75 10 -125 4 -49 8 -101 10 -115 2 -14 9 -72 15 -130 6 -58
12 -116 14 -130 3 -14 7 -47 10 -75 4 -27 8 -61 11 -75 2 -14 7 -47 10 -75 3
-27 8 -57 10 -65 2 -8 6 -35 9 -60 3 -25 8 -56 11 -70 3 -14 16 -88 30 -165
23 -129 33 -184 39 -210 1 -5 6 -26 10 -45 8 -41 17 -82 47 -205 11 -49 22
-97 24 -105 2 -8 8 -35 15 -60 7 -25 13 -52 15 -60 9 -48 84 -316 122 -440
110 -356 278 -819 388 -1065 7 -16 29 -64 47 -105 19 -41 45 -100 59 -130 39
-90 244 -500 284 -570 20 -36 52 -94 71 -130 19 -36 39 -72 44 -80 5 -8 57
-96 116 -195 95 -161 396 -625 427 -657 7 -7 30 -40 52 -72 22 -33 44 -64 50
-70 6 -6 22 -27 35 -46 14 -19 30 -42 37 -50 6 -8 62 -80 124 -160 88 -115
292 -363 319 -390 3 -3 23 -25 44 -50 44 -50 170 -190 224 -248 172 -186 486
-490 692 -672 46 -41 90 -79 96 -85 6 -5 35 -30 64 -55 30 -25 70 -59 90 -76
101 -87 420 -333 616 -474 164 -118 605 -403 759 -490 19 -11 52 -30 73 -41
20 -12 66 -38 102 -59 140 -80 512 -271 675 -345 33 -15 92 -42 130 -59 39
-18 133 -59 210 -91 77 -32 158 -66 180 -75 22 -10 117 -45 210 -79 94 -35
179 -66 190 -71 61 -25 364 -121 550 -175 308 -89 774 -197 1052 -245 35 -5
75 -12 90 -15 62 -11 160 -27 188 -30 17 -3 50 -7 75 -10 25 -3 56 -8 70 -10
65 -9 110 -15 165 -21 33 -3 68 -8 77 -9 9 -2 59 -7 110 -11 51 -3 95 -8 98
-9 3 -2 52 -6 110 -10 58 -4 128 -8 155 -10 313 -24 988 -24 1320 -1 162 11
243 18 265 21 14 2 61 6 104 10 43 4 86 8 95 10 9 1 48 6 86 10 39 4 77 8 85
10 18 3 98 14 155 20 22 3 51 7 65 10 14 2 43 7 65 10 23 3 52 8 65 10 14 3
66 12 115 20 89 15 117 20 165 30 14 3 41 8 60 11 19 3 55 10 80 16 25 5 56
12 70 14 14 3 33 7 42 10 17 5 42 10 88 19 14 2 106 25 205 50 99 25 189 48
200 50 43 10 298 85 450 133 310 98 742 261 1025 389 470 211 953 470 1345
721 212 136 610 413 712 496 10 8 63 50 118 92 102 80 250 202 340 279 28 24
61 53 75 65 149 127 284 254 505 475 198 198 302 307 402 421 28 32 62 71 75
85 35 39 66 76 148 174 81 97 84 100 156 190 45 56 302 397 333 443 85 124
173 249 181 259 5 7 10 14 10 16 0 3 31 51 68 108 78 118 212 336 212 345 0 3
12 21 26 40 15 19 23 34 20 34 -4 0 2 13 13 29 12 16 21 34 21 40 0 6 4 11 9
11 5 0 11 8 14 18 3 9 22 46 42 82 83 147 315 599 315 614 0 2 20 46 44 97 89
192 258 605 296 724 7 22 15 45 19 50 3 6 7 15 8 20 1 6 25 75 52 155 27 80
61 186 76 235 15 50 31 99 35 110 4 11 20 65 35 120 15 55 33 120 41 145 14
50 80 311 88 350 3 14 7 34 10 45 5 22 62 295 70 335 14 72 26 139 31 170 3
19 12 71 20 115 12 67 34 217 50 340 2 17 6 50 10 75 3 25 8 65 10 90 5 51 13
127 19 185 3 22 8 85 11 140 4 55 9 116 11 135 30 294 24 1136 -11 1545 -4 39
-8 93 -10 120 -4 60 -16 166 -31 275 -3 19 -7 58 -10 86 -2 28 -6 61 -9 72 -2
11 -6 42 -10 69 -14 98 -57 360 -70 428 -8 39 -16 81 -19 95 -3 14 -10 50 -16
80 -6 30 -14 66 -16 80 -3 13 -14 63 -25 110 -12 47 -23 96 -25 110 -26 134
-158 601 -243 855 -81 243 -197 557 -251 680 -10 22 -37 85 -60 140 -23 55
-62 142 -86 193 -24 52 -44 96 -44 98 0 18 -249 500 -358 694 -128 227 -449
741 -502 802 -6 7 -41 56 -78 108 -76 109 -97 137 -132 184 -14 18 -36 48 -50
66 -70 94 -326 410 -418 515 -281 322 -701 748 -937 950 -38 33 -77 67 -85 75
-8 8 -42 37 -75 65 -33 27 -62 52 -65 55 -9 11 -304 246 -410 326 -167 127
-310 229 -522 369 -212 140 -221 146 -438 275 -361 215 -799 439 -1158 591
-102 44 -144 61 -152 64 -3 1 -16 6 -30 12 -253 108 -713 268 -1010 352 -80
23 -167 48 -195 56 -41 12 -389 98 -445 110 -94 20 -331 67 -355 71 -16 2 -41
6 -55 9 -54 11 -282 48 -370 60 -25 3 -56 8 -70 10 -14 2 -46 7 -72 10 -27 3
-69 7 -95 10 -27 3 -61 8 -78 10 -16 2 -66 7 -110 11 -44 3 -88 8 -97 9 -9 2
-61 6 -115 10 -54 3 -118 8 -143 10 -109 11 -338 18 -633 19 -175 1 -319 1
-320 0z"/>
</g>
</svg>
