<?xml version="1.0" standalone="no"?>
<!DOCTYPE svg PUBLIC "-//W3C//DTD SVG 20010904//EN"
 "http://www.w3.org/TR/2001/REC-SVG-20010904/DTD/svg10.dtd">
<svg version="1.0" xmlns="http://www.w3.org/2000/svg"
 width="2284.000000pt" height="2284.000000pt" viewBox="0 0 2284.000000 2284.000000"
 preserveAspectRatio="xMidYMid meet">
<metadata>
Created by potrace 1.14, written by Peter Selinger 2001-2017
</metadata>
<g transform="translate(0.000000,2284.000000) scale(0.100000,-0.100000)"
fill="#000000" stroke="none">
<path d="M12984 21636 c-235 -45 -422 -145 -585 -313 -128 -131 -209 -263
-264 -428 -58 -171 -55 -8 -55 -3267 l0 -2998 978 0 977 0 126 248 c423 829
610 1207 653 1326 252 689 213 1450 -108 2131 -29 61 -103 197 -165 304 -157
272 -175 339 -114 412 35 41 76 60 132 61 85 0 125 -32 216 -177 60 -94 284
-542 353 -705 205 -483 270 -1051 187 -1625 -19 -131 -52 -244 -130 -441 -97
-243 -152 -359 -461 -966 -156 -306 -284 -559 -284 -562 0 -3 181 -6 403 -8
383 -4 406 -5 476 -27 297 -89 505 -307 582 -610 18 -71 19 -128 19 -1303 0
-675 2 -1228 6 -1228 3 0 69 38 147 84 78 46 426 248 774 449 348 201 674 397
726 434 321 231 576 502 735 781 64 112 975 2135 974 2163 -1 18 -180 440
-283 664 -40 88 -136 286 -214 440 -1060 2100 -2533 3707 -4260 4648 -368 200
-933 447 -1139 498 -106 26 -306 33 -402 15z"/>
<path d="M9560 21620 c-222 -47 -831 -314 -1245 -545 -879 -492 -1680 -1144
-2416 -1970 -766 -860 -1459 -1937 -1992 -3095 -85 -187 -244 -555 -266 -620
-12 -34 -3 -55 452 -1070 255 -569 483 -1069 507 -1110 106 -186 224 -333 413
-516 217 -210 345 -297 948 -646 294 -170 626 -363 739 -428 l205 -119 5 1217
5 1217 28 88 c99 317 325 526 640 593 53 11 160 14 478 14 225 0 409 3 409 6
0 3 -126 254 -281 557 -535 1052 -588 1199 -619 1713 -26 424 41 874 185 1239
57 145 249 550 317 669 65 115 139 225 169 253 100 90 279 19 279 -112 -1 -56
-31 -125 -142 -315 -231 -398 -338 -678 -404 -1052 -32 -186 -44 -539 -25
-735 29 -288 118 -607 239 -858 37 -77 207 -416 377 -752 l310 -613 978 3 979
2 -2 3014 c-1 3258 2 3085 -53 3246 -129 378 -447 657 -830 730 -106 20 -280
18 -387 -5z"/>
<path d="M19452 14883 c-8 -16 -570 -1328 -674 -1573 -181 -428 -539 -857
-941 -1129 -60 -40 -1039 -644 -1732 -1068 l-180 -110 -3 -1246 -2 -1245 67
-23 c364 -119 942 -331 1118 -410 609 -271 965 -478 1475 -860 243 -182 272
-207 800 -677 173 -155 318 -278 321 -274 11 12 98 269 155 455 315 1036 467
2307 433 3619 -41 1597 -225 2765 -631 4008 -55 168 -186 541 -192 548 -3 2
-9 -5 -14 -15z"/>
<path d="M3417 14812 c-328 -925 -512 -1639 -631 -2458 -130 -892 -193 -2062
-156 -2924 47 -1111 209 -2056 502 -2938 l80 -243 22 19 c839 749 839 749
1113 954 384 287 653 456 1013 637 380 192 636 299 1082 455 227 79 425 147
441 151 l27 7 0 1287 0 1286 -68 41 c-707 432 -1709 1052 -1782 1102 -147 101
-234 174 -380 321 -255 256 -448 549 -585 891 -82 204 -638 1490 -644 1490 -3
0 -18 -35 -34 -78z"/>
<path d="M11696 14664 c-18 -18 -18 -19 -2 -22 10 -2 20 -1 23 1 2 3 3 13 1
23 -3 16 -4 16 -22 -2z"/>
<path d="M11200 14655 c0 -9 9 -15 21 -15 18 0 19 2 9 15 -7 8 -16 15 -21 15
-5 0 -9 -7 -9 -15z"/>
<path d="M8020 10760 c-63 -4 -118 -8 -122 -9 -5 0 -8 -282 -8 -625 l0 -624
78 -8 c42 -4 203 -8 357 -8 260 0 286 1 359 22 180 50 259 140 303 344 26 119
25 440 -1 553 -49 217 -147 311 -366 351 -80 14 -391 16 -600 4z m492 -304
c39 -26 59 -87 70 -216 13 -140 -2 -333 -29 -388 -30 -60 -59 -74 -167 -80
l-96 -5 0 358 0 357 98 -4 c71 -3 104 -9 124 -22z"/>
<path d="M9494 10742 c-74 -26 -128 -74 -161 -140 l-28 -57 0 -420 c0 -407 1
-421 21 -466 27 -59 78 -109 140 -139 44 -21 66 -24 207 -28 171 -4 557 14
570 27 5 5 5 70 1 145 l-7 136 -241 0 c-292 0 -286 -2 -286 98 0 123 -22 112
236 112 l224 0 0 135 0 135 -230 0 -230 0 0 68 c0 106 -10 102 278 102 132 0
243 3 245 8 3 4 8 68 12 143 l7 136 -54 7 c-29 3 -188 8 -353 11 -274 5 -304
4 -351 -13z"/>
<path d="M10460 10718 c5 -18 68 -256 140 -528 162 -614 165 -622 192 -647 45
-41 61 -43 275 -43 189 0 211 2 240 20 18 10 39 29 47 42 8 13 84 284 169 603
l153 580 -200 3 c-110 1 -203 -1 -207 -5 -6 -6 -159 -762 -183 -905 -8 -42
-33 -52 -40 -15 -2 12 -44 225 -93 472 l-89 450 -206 3 -206 2 8 -32z"/>
<path d="M11989 10727 c-20 -13 -39 -37 -45 -57 -6 -20 -19 -227 -28 -470 -9
-239 -19 -495 -23 -567 l-6 -133 180 0 180 0 6 107 c4 58 7 157 7 219 0 62 2
119 5 126 5 12 16 11 68 -6 34 -11 64 -21 66 -22 1 -2 9 -34 16 -73 27 -140
53 -154 280 -149 l165 3 30 31 c24 24 34 47 48 112 l16 82 56 11 c30 6 60 15
66 20 12 10 24 -100 24 -226 0 -38 3 -107 7 -152 l6 -83 180 0 180 0 -6 123
c-4 67 -14 322 -23 567 -9 249 -22 460 -28 480 -6 20 -25 44 -45 57 -33 22
-41 23 -255 23 -245 0 -274 -6 -308 -65 -9 -17 -32 -115 -50 -223 l-33 -192
-47 0 -47 0 -10 53 c-6 28 -22 115 -37 192 -29 157 -41 188 -87 215 -29 18
-51 20 -253 20 -214 0 -222 -1 -255 -23z m314 -299 c3 -13 9 -44 12 -70 7 -44
6 -48 -14 -48 -19 0 -21 5 -21 70 0 68 12 93 23 48z m767 -10 c0 -18 3 -50 6
-70 6 -34 4 -38 -14 -38 -30 0 -33 10 -20 79 12 66 28 82 28 29z"/>
<path d="M14062 10730 c-18 -11 -39 -35 -47 -52 -13 -28 -335 -1156 -335
-1172 0 -3 92 -6 204 -6 l203 0 27 118 c15 64 30 125 32 135 5 15 22 17 169
17 l164 0 10 -37 c6 -21 21 -82 33 -135 l21 -98 204 0 c111 0 203 3 203 6 0
20 -323 1151 -337 1177 -8 15 -28 37 -46 47 -29 18 -51 20 -252 20 -202 0
-223 -2 -253 -20z m281 -337 c4 -32 9 -67 12 -78 5 -18 1 -20 -40 -20 -32 0
-44 4 -40 12 2 7 7 36 10 65 9 72 11 78 33 78 16 0 20 -10 25 -57z"/>
<path d="M15918 7153 l-3 -868 -33 -94 c-48 -139 -101 -222 -206 -326 -94 -93
-163 -140 -264 -181 -123 -49 -168 -57 -380 -61 -147 -4 -202 -8 -199 -17 3
-6 91 -135 197 -286 389 -555 473 -696 619 -1037 156 -366 204 -550 396 -1500
97 -479 163 -783 170 -783 6 0 78 37 161 83 915 509 1674 1226 2307 2177 214
323 393 633 578 1002 114 227 269 563 269 583 0 17 -1056 880 -1310 1071 -331
250 -575 404 -957 608 -216 115 -426 206 -633 274 -123 40 -615 195 -692 218
-16 5 -18 -47 -20 -863z"/>
<path d="M6865 7975 c-606 -186 -801 -254 -1020 -359 -387 -185 -760 -413
-1135 -695 -161 -121 -1252 -1002 -1314 -1061 -18 -17 -16 -22 50 -171 92
-207 302 -626 415 -829 664 -1190 1485 -2072 2494 -2677 186 -112 344 -197
352 -190 3 3 74 347 158 764 85 417 167 812 184 878 73 288 184 589 321 862
119 240 177 333 470 753 137 197 250 361 250 364 0 2 -111 6 -247 9 -277 5
-307 10 -453 78 -217 102 -372 284 -447 524 l-28 90 -5 836 -5 836 -40 -12z"/>
<path d="M8525 5423 c-66 -109 -247 -402 -403 -653 -432 -695 -508 -865 -616
-1390 -39 -187 -306 -1597 -306 -1613 0 -26 431 -184 770 -282 468 -135 1072
-252 1531 -295 440 -42 880 168 1125 535 102 154 170 332 193 501 7 52 12 641
13 1737 l3 1657 -1095 0 -1095 0 -120 -197z"/>
<path d="M11194 5609 c-6 -10 9 -209 16 -209 3 0 16 10 27 23 74 82 193 117
300 88 43 -12 126 -63 146 -90 32 -45 37 -35 37 81 l0 113 -261 0 c-143 0
-263 -3 -265 -6z"/>
<path d="M12083 3933 c3 -1540 5 -1695 20 -1763 100 -445 414 -791 837 -924
201 -64 366 -69 715 -21 693 94 1324 250 1870 462 77 30 152 59 167 65 22 8
27 15 23 31 -3 12 -70 366 -150 787 -204 1075 -229 1180 -341 1447 -71 170
-132 277 -446 783 -162 261 -342 552 -399 645 l-105 170 -1097 3 -1098 2 4
-1687z"/>
</g>
</svg>
