<?xml version="1.0" standalone="no"?>
<!DOCTYPE svg PUBLIC "-//W3C//DTD SVG 20010904//EN"
 "http://www.w3.org/TR/2001/REC-SVG-20010904/DTD/svg10.dtd">
<svg version="1.0" xmlns="http://www.w3.org/2000/svg"
 width="700.000000pt" height="700.000000pt" viewBox="0 0 700.000000 700.000000"
 preserveAspectRatio="xMidYMid meet">
<metadata>
Created by potrace 1.14, written by Peter Selinger 2001-2017
</metadata>
<g transform="translate(0.000000,700.000000) scale(0.100000,-0.100000)"
fill="#000000" stroke="none">
<path d="M3240 6989 c-712 -54 -1372 -315 -1940 -768 -118 -95 -348 -317 -450
-436 -460 -536 -745 -1187 -825 -1883 -9 -78 -14 -150 -12 -160 3 -10 5 -6 6
11 2 52 43 220 78 321 243 702 909 1176 1653 1176 793 0 1488 -536 1689 -1300
40 -156 51 -232 61 -455 12 -271 41 -426 116 -618 279 -725 1008 -1185 1771
-1119 236 21 425 72 628 172 359 175 631 447 805 805 162 332 210 670 159
1134 -85 786 -421 1502 -969 2065 -152 156 -264 255 -427 377 -658 493 -1513
741 -2343 678z m655 -114 c642 -76 1226 -322 1740 -731 141 -113 396 -368 509
-509 409 -513 652 -1091 732 -1740 25 -199 25 -536 0 -670 -78 -428 -300 -791
-636 -1042 -299 -223 -610 -326 -985 -327 -177 0 -251 8 -419 50 -373 92 -722
338 -948 667 -58 85 -153 264 -178 337 -12 33 10 119 351 1385 329 1225 363
1357 363 1430 1 66 -4 90 -25 135 -37 80 -81 125 -157 162 -58 29 -76 33 -147
33 -66 0 -90 -5 -136 -26 -65 -31 -129 -90 -158 -146 -10 -21 -108 -369 -216
-773 -108 -404 -198 -736 -199 -737 -1 -1 -18 26 -38 60 -113 195 -336 441
-518 569 -348 246 -728 360 -1150 345 -490 -17 -931 -218 -1274 -578 -53 -56
-96 -99 -96 -96 0 14 106 260 149 346 447 889 1263 1542 2226 1780 189 47 349
71 625 95 92 8 459 -4 585 -19z"/>
<path d="M4961 4770 c-128 -32 -203 -190 -145 -307 11 -21 168 -215 349 -431
182 -216 340 -411 353 -434 15 -29 22 -58 22 -98 0 -40 -7 -69 -22 -98 -13
-23 -171 -218 -353 -434 -181 -216 -338 -409 -347 -428 -11 -21 -18 -57 -18
-93 0 -180 193 -284 341 -184 44 29 935 1090 960 1142 25 54 25 137 -1 189
-11 23 -226 286 -478 586 -335 399 -469 551 -499 568 -46 25 -113 35 -162 22z"/>
<path d="M1595 5139 c-708 -67 -1304 -595 -1453 -1290 -43 -197 -49 -386 -21
-684 88 -940 583 -1814 1355 -2391 986 -736 2307 -877 3433 -365 804 366 1443
1045 1763 1874 l18 47 -102 -106 c-205 -213 -424 -358 -687 -459 -315 -119
-687 -148 -1031 -79 -186 37 -426 136 -609 249 -229 143 -468 388 -602 617
-23 38 -42 68 -45 66 -2 -2 -89 -325 -194 -718 -121 -454 -202 -738 -221 -777
-33 -68 -84 -118 -158 -155 -37 -18 -63 -23 -136 -23 -78 0 -97 4 -146 28
-109 53 -178 156 -187 277 -4 62 17 147 362 1435 l367 1369 -17 45 c-78 208
-224 422 -407 597 -269 257 -606 408 -987 443 -128 12 -165 12 -295 0z m491
-387 c78 -40 118 -108 118 -197 0 -40 -6 -72 -19 -97 -11 -20 -168 -213 -350
-428 -181 -216 -340 -413 -352 -439 -32 -64 -30 -126 5 -189 15 -28 173 -225
352 -438 179 -212 334 -402 344 -423 48 -90 12 -218 -77 -278 -94 -63 -205
-52 -284 29 -84 88 -905 1075 -925 1112 -26 51 -27 140 -1 189 24 47 917 1112
957 1142 17 12 45 27 61 34 41 15 125 7 171 -17z"/>
</g>
</svg>
