<?xml version="1.0" standalone="no"?>
<!DOCTYPE svg PUBLIC "-//W3C//DTD SVG 20010904//EN"
 "http://www.w3.org/TR/2001/REC-SVG-20010904/DTD/svg10.dtd">
<svg version="1.0" xmlns="http://www.w3.org/2000/svg"
 width="700.000000pt" height="700.000000pt" viewBox="0 0 700.000000 700.000000"
 preserveAspectRatio="xMidYMid meet">
<metadata>
Created by potrace 1.14, written by Peter Selinger 2001-2017
</metadata>
<g transform="translate(0.000000,700.000000) scale(0.100000,-0.100000)"
fill="#000000" stroke="none">
<path d="M3205 6989 c-1017 -84 -1959 -622 -2561 -1465 -212 -298 -390 -659
-494 -1006 -72 -242 -125 -515 -135 -708 l-5 -95 15 80 c93 491 354 890 755
1160 102 68 295 163 405 200 638 213 1329 52 1800 -420 200 -199 341 -431 429
-704 50 -155 75 -310 86 -545 5 -111 16 -239 24 -285 137 -759 740 -1336 1499
-1436 269 -35 521 -11 781 76 565 187 996 653 1146 1237 65 257 65 634 -1
1022 -234 1380 -1306 2507 -2678 2815 -330 75 -725 102 -1066 74z m625 -110
c410 -38 810 -153 1191 -344 989 -494 1679 -1448 1840 -2540 47 -323 47 -615
-1 -843 -118 -559 -537 -1031 -1078 -1212 -213 -71 -450 -101 -658 -82 -160
15 -251 34 -395 82 -262 87 -477 224 -673 432 -140 146 -262 337 -335 518
l-21 55 361 1345 c345 1281 362 1349 363 1435 1 72 -3 99 -21 137 -30 66 -92
129 -160 164 -51 26 -68 29 -148 29 -75 0 -98 -4 -140 -25 -60 -29 -134 -101
-159 -154 -10 -22 -106 -366 -213 -765 -107 -399 -196 -727 -197 -728 -1 -2
-29 40 -61 91 -75 122 -144 209 -258 325 -302 307 -683 492 -1117 542 -130 15
-391 7 -515 -16 -380 -68 -710 -241 -988 -516 -70 -70 -127 -125 -127 -122 0
18 105 253 164 368 165 321 343 563 604 829 276 279 538 470 887 646 586 296
1195 410 1855 349z"/>
<path d="M4942 4767 c-49 -18 -99 -63 -124 -110 -29 -55 -30 -147 -3 -199 11
-20 168 -213 348 -428 180 -215 337 -406 348 -425 12 -19 23 -60 26 -92 4 -47
0 -66 -19 -103 -13 -25 -171 -222 -353 -439 -181 -216 -339 -410 -350 -430
-27 -50 -26 -143 2 -196 27 -51 57 -79 113 -104 86 -39 169 -23 241 47 75 73
917 1082 936 1122 22 48 21 135 -3 182 -22 42 -900 1093 -950 1137 -54 48
-141 63 -212 38z"/>
<path d="M1573 5139 c-258 -27 -516 -121 -735 -268 -416 -279 -672 -700 -729
-1201 -13 -113 -7 -388 11 -545 100 -859 509 -1634 1159 -2197 886 -767 2095
-1020 3226 -676 876 266 1639 919 2047 1753 37 77 82 176 99 220 17 44 34 86
36 93 3 7 -55 -47 -128 -120 -351 -349 -761 -528 -1244 -545 -497 -17 -961
156 -1323 493 -140 130 -270 293 -352 441 -13 24 -25 42 -26 40 -2 -1 -91
-333 -199 -737 -109 -404 -206 -752 -217 -773 -28 -56 -92 -116 -157 -145 -80
-38 -192 -38 -272 0 -109 50 -185 158 -196 277 -5 52 28 180 362 1430 350
1305 367 1376 355 1410 -29 82 -104 226 -169 323 -348 516 -934 791 -1548 727z
m525 -395 c79 -46 120 -144 101 -236 -13 -60 -15 -63 -389 -507 -168 -199
-315 -381 -327 -403 -16 -29 -23 -58 -23 -98 0 -40 7 -69 23 -98 12 -23 170
-218 352 -434 181 -216 338 -409 348 -428 28 -54 20 -164 -15 -218 -62 -92
-192 -125 -288 -72 -35 20 -144 142 -503 570 -252 300 -467 563 -478 585 -27
57 -25 141 4 193 27 50 922 1118 954 1139 74 49 165 51 241 7z"/>
<path d="M1 3684 c0 -11 3 -14 6 -6 3 7 2 16 -1 19 -3 4 -6 -2 -5 -13z"/>
</g>
</svg>
