<?xml version="1.0" encoding="utf-8"?>
<!-- Generator: Adobe Illustrator 27.0.0, SVG Export Plug-In . SVG Version: 6.00 Build 0)  -->
<svg version="1.1" id="Livello_1" xmlns="http://www.w3.org/2000/svg" xmlns:xlink="http://www.w3.org/1999/xlink" x="0px" y="0px"
	 viewBox="0 0 2284 2284" style="enable-background:new 0 0 2284 2284;" xml:space="preserve">
<style type="text/css">
	.st0{opacity:0;}
</style>
<path d="M1298.4,120.4c-23.5,4.5-42.2,14.5-58.5,31.3c-12.8,13.1-20.9,26.3-26.4,42.8c-5.8,17.1-5.5,0.8-5.5,326.7V821h97.8h97.7
	l12.6-24.8c42.3-82.9,61-120.7,65.3-132.6c25.2-68.9,21.3-145-10.8-213.1c-2.9-6.1-10.3-19.7-16.5-30.4
	c-15.7-27.2-17.5-33.9-11.4-41.2c3.5-4.1,7.6-6,13.2-6.1c8.5,0,12.5,3.2,21.6,17.7c6,9.4,28.4,54.2,35.3,70.5
	c20.5,48.3,27,105.1,18.7,162.5c-1.9,13.1-5.2,24.4-13,44.1c-9.7,24.3-15.2,35.9-46.1,96.6c-15.6,30.6-28.4,55.9-28.4,56.2
	s18.1,0.6,40.3,0.8c38.3,0.4,40.6,0.5,47.6,2.7c29.7,8.9,50.5,30.7,58.2,61c1.8,7.1,1.9,12.8,1.9,130.3c0,67.5,0.2,122.8,0.6,122.8
	c0.3,0,6.9-3.8,14.7-8.4c7.8-4.6,42.6-24.8,77.4-44.9c34.8-20.1,67.4-39.7,72.6-43.4c32.1-23.1,57.6-50.2,73.5-78.1
	c6.4-11.2,97.5-213.5,97.4-216.3c-0.1-1.8-18-44-28.3-66.4c-4-8.8-13.6-28.6-21.4-44c-106-210-253.3-370.7-426-464.8
	c-36.8-20-93.3-44.7-113.9-49.8C1328,119.3,1308,118.6,1298.4,120.4z"/>
<path d="M956,122c-22.2,4.7-83.1,31.4-124.5,54.5c-87.9,49.2-168,114.4-241.6,197C513.3,459.5,444,567.2,390.7,683
	c-8.5,18.7-24.4,55.5-26.6,62c-1.2,3.4-0.3,5.5,45.2,107c25.5,56.9,48.3,106.9,50.7,111c10.6,18.6,22.4,33.3,41.3,51.6
	c21.7,21,34.5,29.7,94.8,64.6c29.4,17,62.6,36.3,73.9,42.8l20.5,11.9l0.5-121.7l0.5-121.7l2.8-8.8c9.9-31.7,32.5-52.6,64-59.3
	c5.3-1.1,16-1.4,47.8-1.4c22.5,0,40.9-0.3,40.9-0.6s-12.6-25.4-28.1-55.7c-53.5-105.2-58.8-119.9-61.9-171.3
	c-2.6-42.4,4.1-87.4,18.5-123.9c5.7-14.5,24.9-55,31.7-66.9c6.5-11.5,13.9-22.5,16.9-25.3c10-9,27.9-1.9,27.9,11.2
	c-0.1,5.6-3.1,12.5-14.2,31.5c-23.1,39.8-33.8,67.8-40.4,105.2c-3.2,18.6-4.4,53.9-2.5,73.5c2.9,28.8,11.8,60.7,23.9,85.8
	c3.7,7.7,20.7,41.6,37.7,75.2l31,61.3l97.8-0.3l97.9-0.2l-0.2-301.4c-0.1-325.8,0.2-308.5-5.3-324.6c-12.9-37.8-44.7-65.7-83-73
	C984.1,119.5,966.7,119.7,956,122z"/>
<path d="M1945.2,795.7c-0.8,1.6-57,132.8-67.4,157.3c-18.1,42.8-53.9,85.7-94.1,112.9c-6,4-103.9,64.4-173.2,106.8l-18,11
	l-0.3,124.6l-0.2,124.5l6.7,2.3c36.4,11.9,94.2,33.1,111.8,41c60.9,27.1,96.5,47.8,147.5,86c24.3,18.2,27.2,20.7,80,67.7
	c17.3,15.5,31.8,27.8,32.1,27.4c1.1-1.2,9.8-26.9,15.5-45.5c31.5-103.6,46.7-230.7,43.3-361.9c-4.1-159.7-22.5-276.5-63.1-400.8
	c-5.5-16.8-18.6-54.1-19.2-54.8C1946.3,794,1945.7,794.7,1945.2,795.7z"/>
<path d="M341.7,802.8c-32.8,92.5-51.2,163.9-63.1,245.8c-13,89.2-19.3,206.2-15.6,292.4c4.7,111.1,20.9,205.6,50.2,293.8l8,24.3
	l2.2-1.9c83.9-74.9,83.9-74.9,111.3-95.4c38.4-28.7,65.3-45.6,101.3-63.7c38-19.2,63.6-29.9,108.2-45.5
	c22.7-7.9,42.5-14.7,44.1-15.1l2.7-0.7v-128.7v-128.6l-6.8-4.1c-70.7-43.2-170.9-105.2-178.2-110.2c-14.7-10.1-23.4-17.4-38-32.1
	c-25.5-25.6-44.8-54.9-58.5-89.1c-8.2-20.4-63.8-149-64.4-149C344.8,795,343.3,798.5,341.7,802.8z"/>
<path d="M1591.8,1568.7l-0.3,86.8l-3.3,9.4c-4.8,13.9-10.1,22.2-20.6,32.6c-9.4,9.3-16.3,14-26.4,18.1c-12.3,4.9-16.8,5.7-38,6.1
	c-14.7,0.4-20.2,0.8-19.9,1.7c0.3,0.6,9.1,13.5,19.7,28.6c38.9,55.5,47.3,69.6,61.9,103.7c15.6,36.6,20.4,55,39.6,150
	c9.7,47.9,16.3,78.3,17,78.3c0.6,0,7.8-3.7,16.1-8.3c91.5-50.9,167.4-122.6,230.7-217.7c21.4-32.3,39.3-63.3,57.8-100.2
	c11.4-22.7,26.9-56.3,26.9-58.3c0-1.7-105.6-88-131-107.1c-33.1-25-57.5-40.4-95.7-60.8c-21.6-11.5-42.6-20.6-63.3-27.4
	c-12.3-4-61.5-19.5-69.2-21.8C1592.2,1481.9,1592,1487.1,1591.8,1568.7z"/>
<path d="M686.5,1486.5c-60.6,18.6-80.1,25.4-102,35.9c-38.7,18.5-76,41.3-113.5,69.5c-16.1,12.1-125.2,100.2-131.4,106.1
	c-1.8,1.7-1.6,2.2,5,17.1c9.2,20.7,30.2,62.6,41.5,82.9c66.4,119,148.5,207.2,249.4,267.7c18.6,11.2,34.4,19.7,35.2,19
	c0.3-0.3,7.4-34.7,15.8-76.4c8.5-41.7,16.7-81.2,18.4-87.8c7.3-28.8,18.4-58.9,32.1-86.2c11.9-24,17.7-33.3,47-75.3
	c13.7-19.7,25-36.1,25-36.4c0-0.2-11.1-0.6-24.7-0.9c-27.7-0.5-30.7-1-45.3-7.8c-21.7-10.2-37.2-28.4-44.7-52.4l-2.8-9l-0.5-83.6
	l-0.5-83.6L686.5,1486.5z"/>
<path d="M852.5,1741.7c-6.6,10.9-24.7,40.2-40.3,65.3c-43.2,69.5-50.8,86.5-61.6,139c-3.9,18.7-30.6,159.7-30.6,161.3
	c0,2.6,43.1,18.4,77,28.2c46.8,13.5,107.2,25.2,153.1,29.5c44,4.2,88-16.8,112.5-53.5c10.2-15.4,17-33.2,19.3-50.1
	c0.7-5.2,1.2-64.1,1.3-173.7l0.3-165.7H974H864.5L852.5,1741.7z"/>
<path d="M1208.3,1890.7c0.3,154,0.5,169.5,2,176.3c10,44.5,41.4,79.1,83.7,92.4c20.1,6.4,36.6,6.9,71.5,2.1
	c69.3-9.4,132.4-25,187-46.2c7.7-3,15.2-5.9,16.7-6.5c2.2-0.8,2.7-1.5,2.3-3.1c-0.3-1.2-7-36.6-15-78.7
	c-20.4-107.5-22.9-118-34.1-144.7c-7.1-17-13.2-27.7-44.6-78.3c-16.2-26.1-34.2-55.2-39.9-64.5l-10.5-17l-109.7-0.3l-109.8-0.2
	L1208.3,1890.7z"/>
<g>
	<g>
		<g class="st0">
			<path d="M842.4,1207.3c10.7,0,19.7,1,27.1,3c7.4,2,13.4,5.3,17.9,10.1c4.6,4.7,7.9,11.3,9.9,19.6c2,8.3,3.1,18.7,3.1,31.4
				s-1,23.1-3.1,31.4c-2,8.3-5.3,14.8-9.9,19.6c-4.6,4.7-10.5,8.1-17.9,10.1c-7.4,2-16.4,3-27.1,3c-10.3,0-19.8-0.2-28.5-0.5
				c-8.7-0.4-16.9-0.8-24.7-1.3l15.9-27.8c4.2,0.5,9.5,0.8,16,1c6.4,0.2,13.5,0.3,21.4,0.3c4.4,0,7.9-1,10.3-2.9
				c2.4-1.9,4.1-5.5,5-10.6c1-5.2,1.4-12.6,1.4-22.2c0-9.6-0.5-17-1.4-22.2c-1-5.2-2.6-8.7-5-10.6c-2.4-1.9-5.8-2.9-10.3-2.9
				c-7.3,0-13.8,0-19.4,0c-5.6,0-11-0.1-16.3-0.2l-17.5-26.3c7.9-0.5,16.1-0.9,24.6-1.3C822.3,1207.5,831.8,1207.3,842.4,1207.3z
				 M828.3,1209.1v124.4h-39.1v-124.4H828.3z"/>
		</g>
		<g>
			<path d="M842.4,1207.3c10.7,0,19.7,1,27.1,3c7.4,2,13.4,5.3,17.9,10.1c4.6,4.7,7.9,11.3,9.9,19.6c2,8.3,3.1,18.7,3.1,31.4
				s-1,23.1-3.1,31.4c-2,8.3-5.3,14.8-9.9,19.6c-4.6,4.7-10.5,8.1-17.9,10.1c-7.4,2-16.4,3-27.1,3c-10.3,0-19.8-0.2-28.5-0.5
				c-8.7-0.4-16.9-0.8-24.7-1.3l15.9-27.8c4.2,0.5,9.5,0.8,16,1c6.4,0.2,13.5,0.3,21.4,0.3c4.4,0,7.9-1,10.3-2.9
				c2.4-1.9,4.1-5.5,5-10.6c1-5.2,1.4-12.6,1.4-22.2c0-9.6-0.5-17-1.4-22.2c-1-5.2-2.6-8.7-5-10.6c-2.4-1.9-5.8-2.9-10.3-2.9
				c-7.3,0-13.8,0-19.4,0c-5.6,0-11-0.1-16.3-0.2l-17.5-26.3c7.9-0.5,16.1-0.9,24.6-1.3C822.3,1207.5,831.8,1207.3,842.4,1207.3z
				 M828.3,1209.1v124.4h-39.1v-124.4H828.3z"/>
		</g>
	</g>
	<g>
		<g class="st0">
			<path d="M960.1,1208.4c7.2,0,14.6,0,22.3,0.1c7.6,0.1,15.1,0.2,22.4,0.5c7.3,0.3,14,0.9,20,1.7l-1.8,27.6h-45.6
				c-2.3,0-4.1,0.6-5.4,1.8c-1.3,1.2-2,2.8-2,4.7v53c0,1.9,0.7,3.5,2,4.7c1.3,1.2,3.1,1.8,5.4,1.8h45.6l1.8,27.6
				c-6,0.7-12.7,1.3-20,1.6c-7.3,0.4-14.8,0.6-22.4,0.6c-7.6,0.1-15.1,0.1-22.3,0.1c-8.5,0-15.5-2.6-21-7.8
				c-5.5-5.2-8.2-12-8.2-20.5v-69.2c0-8.4,2.7-15.2,8.2-20.5C944.6,1211,951.6,1208.4,960.1,1208.4z M934.2,1256.9h82.4v26h-82.4
				V1256.9z"/>
		</g>
		<g>
			<path d="M960.1,1208.4c7.2,0,14.6,0,22.3,0.1c7.6,0.1,15.1,0.2,22.4,0.5c7.3,0.3,14,0.9,20,1.7l-1.8,27.6h-45.6
				c-2.3,0-4.1,0.6-5.4,1.8c-1.3,1.2-2,2.8-2,4.7v53c0,1.9,0.7,3.5,2,4.7c1.3,1.2,3.1,1.8,5.4,1.8h45.6l1.8,27.6
				c-6,0.7-12.7,1.3-20,1.6c-7.3,0.4-14.8,0.6-22.4,0.6c-7.6,0.1-15.1,0.1-22.3,0.1c-8.5,0-15.5-2.6-21-7.8
				c-5.5-5.2-8.2-12-8.2-20.5v-69.2c0-8.4,2.7-15.2,8.2-20.5C944.6,1211,951.6,1208.4,960.1,1208.4z M934.2,1256.9h82.4v26h-82.4
				V1256.9z"/>
		</g>
	</g>
	<g>
		<g class="st0">
			<path d="M1167.2,1209.1L1137,1323c-0.7,3.1-2.3,5.6-4.7,7.6c-2.4,1.9-5.3,2.9-8.7,2.9h-34.2c-3.4,0-6.2-1-8.7-2.9
				c-2.4-1.9-4-4.4-4.7-7.6l-30.3-113.9h40.2l16,80.9c0.5,2.3,0.9,4.7,1.3,7.1c0.4,2.5,0.7,4.8,1.1,7.1h4.3c0.2-2.3,0.6-4.7,1-7.1
				c0.4-2.5,0.9-4.8,1.4-7.1l16-80.9H1167.2z"/>
		</g>
		<g>
			<path d="M1167.2,1209.1L1137,1323c-0.7,3.1-2.3,5.6-4.7,7.6c-2.4,1.9-5.3,2.9-8.7,2.9h-34.2c-3.4,0-6.2-1-8.7-2.9
				c-2.4-1.9-4-4.4-4.7-7.6l-30.3-113.9h40.2l16,80.9c0.5,2.3,0.9,4.7,1.3,7.1c0.4,2.5,0.7,4.8,1.1,7.1h4.3c0.2-2.3,0.6-4.7,1-7.1
				c0.4-2.5,0.9-4.8,1.4-7.1l16-80.9H1167.2z"/>
		</g>
	</g>
	<g>
		<g class="st0">
			<path d="M1328.6,1209.1c8.8,0,13.3,4.5,13.7,13.5l4.3,110.9h-35.2l-3.8-95.2h-2.7l-12.3,63.5c-1.2,7.9-6.1,11.9-14.8,11.9h-20.2
				c-8.5,0-13.5-4-15-11.9l-12.4-63.5h-2.7l-3.1,95.2h-35.2l4.3-110.9c0.4-9,4.9-13.5,13.7-13.5h33.7c8.4,0,13.3,4,14.8,12.1l9,49.4
				c0.5,3,0.9,6.1,1.2,9.2c0.3,3.1,0.6,6.2,0.8,9.4h1.6c0.4-3.1,0.7-6.2,1-9.4c0.3-3.1,0.7-6.2,1.2-9.2l8.5-49.4
				c1.4-8.1,6.4-12.1,15-12.1H1328.6z"/>
		</g>
		<g>
			<path d="M1328.6,1209.1c8.8,0,13.3,4.5,13.7,13.5l4.3,110.9h-35.2l-3.8-95.2h-2.7l-12.3,63.5c-1.2,7.9-6.1,11.9-14.8,11.9h-20.2
				c-8.5,0-13.5-4-15-11.9l-12.4-63.5h-2.7l-3.1,95.2h-35.2l4.3-110.9c0.4-9,4.9-13.5,13.7-13.5h33.7c8.4,0,13.3,4,14.8,12.1l9,49.4
				c0.5,3,0.9,6.1,1.2,9.2c0.3,3.1,0.6,6.2,0.8,9.4h1.6c0.4-3.1,0.7-6.2,1-9.4c0.3-3.1,0.7-6.2,1.2-9.2l8.5-49.4
				c1.4-8.1,6.4-12.1,15-12.1H1328.6z"/>
		</g>
	</g>
	<g>
		<g class="st0">
			<path d="M1449.3,1209.1c3.1,0,5.9,0.9,8.3,2.7c2.4,1.8,4,4.3,4.9,7.4l32.3,114.3h-39.8l-18.7-80.9c-0.5-2.3-0.9-4.7-1.3-7.1
				c-0.4-2.5-0.7-4.8-0.9-7.1h-4.9c-0.2,2.3-0.5,4.7-0.9,7.1c-0.4,2.5-0.8,4.8-1.3,7.1l-18.7,80.9h-39.8l32.3-114.3
				c0.8-3.1,2.5-5.6,4.9-7.4c2.4-1.8,5.2-2.7,8.3-2.7H1449.3z M1464.7,1279.2v27.4h-66.2v-27.4H1464.7z"/>
		</g>
		<g>
			<path d="M1449.3,1209.1c3.1,0,5.9,0.9,8.3,2.7c2.4,1.8,4,4.3,4.9,7.4l32.3,114.3h-39.8l-18.7-80.9c-0.5-2.3-0.9-4.7-1.3-7.1
				c-0.4-2.5-0.7-4.8-0.9-7.1h-4.9c-0.2,2.3-0.5,4.7-0.9,7.1c-0.4,2.5-0.8,4.8-1.3,7.1l-18.7,80.9h-39.8l32.3-114.3
				c0.8-3.1,2.5-5.6,4.9-7.4c2.4-1.8,5.2-2.7,8.3-2.7H1449.3z M1464.7,1279.2v27.4h-66.2v-27.4H1464.7z"/>
		</g>
	</g>
</g>
</svg>
