<?xml version="1.0" encoding="utf-8"?>
<!-- Generator: Adobe Illustrator 27.0.0, SVG Export Plug-In . SVG Version: 6.00 Build 0)  -->
<svg version="1.1" id="Layer_1" xmlns="http://www.w3.org/2000/svg" xmlns:xlink="http://www.w3.org/1999/xlink" x="0px" y="0px"
	 viewBox="0 0 344.4 344.3" style="enable-background:new 0 0 344.4 344.3;" xml:space="preserve">
<style type="text/css">
	.st0{fill:#00599C;}
	.st1{fill:#004482;}
	.st2{fill:#659AD2;}
	.st3{fill:#FFFFFF;}
</style>
<g>
	<path class="st0" d="M321.3,258.3c2.4-4.2,3.9-8.8,3.9-13.1V99.1c0-4.2-1.5-8.9-3.9-13.1l-149.1,86.1L321.3,258.3z"/>
	<path class="st1" d="M185.4,341.2l126.5-73c3.6-2.1,7-5.7,9.4-9.9l-149.1-86.1L23.1,258.3c2.4,4.2,5.7,7.8,9.4,9.9l126.5,73
		C166.2,345.4,178.1,345.4,185.4,341.2z"/>
	<path class="st2" d="M321.3,86.1c-2.4-4.2-5.7-7.8-9.4-9.9l-126.5-73c-7.3-4.2-19.2-4.2-26.5,0l-126.5,73
		c-7.3,4.2-13.2,14.5-13.2,22.9v146.1c0,4.2,1.5,8.9,3.9,13.1l149.1-86.1L321.3,86.1z"/>
	<g>
		<path class="st3" d="M172.2,274.2c-56.2,0-102-45.8-102-102s45.8-102,102-102c36.3,0,70.1,19.5,88.3,51l-44.1,25.5
			c-9.1-15.7-26-25.5-44.2-25.5c-28.1,0-51,22.9-51,51c0,28.1,22.9,51,51,51c18.2,0,35.1-9.8,44.2-25.5l44.1,25.5
			C242.3,254.6,208.5,274.2,172.2,274.2z"/>
	</g>
	<g>
		<polygon class="st3" points="274.2,166.5 262.8,166.5 262.8,155.2 251.5,155.2 251.5,166.5 240.2,166.5 240.2,177.8 251.5,177.8 
			251.5,189.2 262.8,189.2 262.8,177.8 274.2,177.8 		"/>
	</g>
	<g>
		<polygon class="st3" points="316.7,166.5 305.3,166.5 305.3,155.2 294,155.2 294,166.5 282.7,166.5 282.7,177.8 294,177.8 
			294,189.2 305.3,189.2 305.3,177.8 316.7,177.8 		"/>
	</g>
</g>
</svg>
