<?xml version="1.0" encoding="utf-8"?>
<!-- Generator: Adobe Illustrator 27.0.0, SVG Export Plug-In . SVG Version: 6.00 Build 0)  -->
<svg version="1.1"
	 id="svg10" xmlns:rdf="http://www.w3.org/1999/02/22-rdf-syntax-ns#" xmlns:sodipodi="http://sodipodi.sourceforge.net/DTD/sodipodi-0.dtd" xmlns:cc="http://creativecommons.org/ns#" xmlns:dc="http://purl.org/dc/elements/1.1/" xmlns:svg="http://www.w3.org/2000/svg" xmlns:inkscape="http://www.inkscape.org/namespaces/inkscape" sodipodi:docname="icons8-c-programming.svg"
	 xmlns="http://www.w3.org/2000/svg" xmlns:xlink="http://www.w3.org/1999/xlink" x="0px" y="0px" viewBox="0 0 420 420"
	 style="enable-background:new 0 0 420 420;" xml:space="preserve">
<style type="text/css">
	.st0{fill-rule:evenodd;clip-rule:evenodd;fill:#004482;}
	.st1{fill-rule:evenodd;clip-rule:evenodd;fill:#659AD2;}
	.st2{fill-rule:evenodd;clip-rule:evenodd;fill:#FFFFFF;}
	.st3{fill-rule:evenodd;clip-rule:evenodd;fill:#00599C;}
</style>
<sodipodi:namedview  bordercolor="#666666" borderopacity="1" fit-margin-bottom="0" fit-margin-left="0" fit-margin-right="0" fit-margin-top="0" gridtolerance="10" guidetolerance="10" id="namedview12" inkscape:current-layer="svg10" inkscape:cx="190" inkscape:cy="210.00282" inkscape:pageopacity="0" inkscape:pageshadow="2" inkscape:window-height="1056" inkscape:window-maximized="1" inkscape:window-width="1920" inkscape:window-x="0" inkscape:window-y="0" inkscape:zoom="1.4895833" objecttolerance="10" pagecolor="#ffffff" showgrid="false">
	</sodipodi:namedview>
<g>
	<path id="path2" class="st0" d="M199,2.9c6.8-3.8,15.1-3.8,21.9,0C254.5,21.7,355.5,78.4,389,97.2c6.8,3.8,11,10.8,11,18.5
		c0,37.7,0,151,0,188.7c0,7.6-4.2,14.7-11,18.5c-33.5,18.8-134.5,75.5-168.1,94.3c-6.8,3.8-15.1,3.8-21.9,0
		C165.5,398.3,64.5,341.6,31,322.8c-6.8-3.8-11-10.8-11-18.5c0-37.7,0-151,0-188.7c0-7.6,4.2-14.7,11-18.5
		C64.5,78.4,165.5,21.7,199,2.9L199,2.9z"/>
	<path id="path4" class="st1" d="M23,314c-2.7-3.6-3-6.9-3-11.5c0-37.4,0-150.1,0-187.6c0-7.6,4.2-14.6,10.9-18.4
		C64.4,77.9,165,21.5,198.4,2.8c6.8-3.8,15.9-3.7,22.7,0.1c33.4,18.7,133.7,74.6,167.1,93.3c2.7,1.5,4.8,3.3,6.6,5.8L23,314z"/>
	<path id="path6" class="st2" d="M210,70c77.3,0,140,62.7,140,140s-62.7,140-140,140S70,287.3,70,210S132.7,70,210,70z M210,140
		c38.6,0,70,31.4,70,70c0,38.6-31.4,70-70,70s-70-31.4-70-70C140,171.4,171.4,140,210,140z"/>
	<path id="path8" class="st3" d="M394.8,102.1c5.2,4.8,5.1,12.1,5.1,17.8c0,38-0.3,145.9,0.1,183.8c0,4-1.3,8.1-3.2,11.3L205.9,210
		L394.8,102.1z"/>
</g>
</svg>
