<?xml version="1.0" encoding="utf-8"?>
<!-- Generator: Adobe Illustrator 27.0.0, SVG Export Plug-In . SVG Version: 6.00 Build 0)  -->
<svg version="1.1" id="Livello_1" xmlns="http://www.w3.org/2000/svg" xmlns:xlink="http://www.w3.org/1999/xlink" x="0px" y="0px"
	 viewBox="0 0 800 800" style="enable-background:new 0 0 800 800;" xml:space="preserve">
<style type="text/css">
	.st0{fill:#00D2B8;}
	.st1{fill:#55DDCA;}
	.st2{fill:#0081C6;}
	.st3{fill:#0079B3;}
	.st4{fill:#00A4E4;}
</style>
<g>
	<path class="st0" d="M220.4,217.8l-51.7-51.7l0.2,373.8l0.6,17.5c0.3,8.2,1.8,17.5,4.3,27.1l409.7,144.5L686,683.5l0-0.1
		L220.4,217.8"/>
	<path class="st1" d="M173.9,584.4L173.9,584.4c0-0.1-0.1-0.3-0.1-0.5C173.8,584.1,173.8,584.2,173.9,584.4L173.9,584.4z M686,683.5
		l-102.4,45.4L173.9,584.4c7.8,30,25.2,63.8,43.8,82.2l133.7,132.9l297.3,0.4L686,683.4L686,683.5L686,683.5z"/>
	<path class="st2" d="M9.5,406.6c-13.2,14.1-6.7,43.3,14.7,64.8l91.9,92.7l57.8,20.4c-2.5-9.6-4.1-18.9-4.3-27.1l-0.6-17.5
		l-0.2-373.8L9.5,406.6z"/>
	<path class="st3" d="M586.9,170.9c-9.6-2.5-18.8-4-27.2-4.2l-18.5-0.6l-372.6,0.1l517.4,517.3h0l45.4-102.5L586.9,170.9"/>
	<path class="st4" d="M586.5,170.8c0.2,0,0.4,0.1,0.5,0.1l0,0C586.8,170.8,586.7,170.8,586.5,170.8L586.5,170.8z M669.1,214.8
		c-18.8-18.9-52.1-36.1-82.2-43.9l144.6,410l-45.4,102.5h0l111-35.5l0.2-304.4L669.1,214.8L669.1,214.8z"/>
	<path class="st0" d="M566.7,113.4l-92.7-92C452.6,0.2,423.4-6.4,409.3,6.8L168.7,166.1l372.6-0.1l18.5,0.6
		c8.4,0.3,17.6,1.8,27.2,4.2L566.7,113.4L566.7,113.4z"/>
</g>
</svg>
