<?xml version="1.0" encoding="utf-8"?>
<!-- Generator: Adobe Illustrator 27.0.0, SVG Export Plug-In . SVG Version: 6.00 Build 0)  -->
<svg version="1.1" id="Livello_1" xmlns="http://www.w3.org/2000/svg" xmlns:xlink="http://www.w3.org/1999/xlink" x="0px" y="0px"
	 viewBox="0 0 700 700" style="enable-background:new 0 0 700 700;" xml:space="preserve">
<style type="text/css">
	.st0{fill:#185C37;}
	.st1{fill:#21A366;}
	.st2{fill:#107C41;}
	.st3{opacity:0.1;enable-background:new    ;}
	.st4{opacity:0.2;enable-background:new    ;}
	.st5{fill:url(#SVGID_1_);}
	.st6{fill:#FFFFFF;}
	.st7{fill:#33C481;}
</style>
<g>
	<path class="st0" d="M439.5,333.7L162.8,285v360.2c0,16.5,13.4,29.8,29.8,29.8c0,0,0,0,0,0h477.5c16.5,0,29.8-13.3,29.9-29.7
		c0,0,0,0,0-0.1l0,0V512.5L439.5,333.7z"/>
	<path class="st1" d="M439.5,25H192.6c-16.5,0-29.8,13.3-29.8,29.8v0l0,0v132.7L439.5,350L586,398.8L700,350V187.5L439.5,25z"/>
	<path class="st2" d="M162.8,187.5h276.7V350H162.8V187.5z"/>
	<path class="st3" d="M360.9,155H162.8v406.3h198.1c16.4-0.1,29.7-13.4,29.9-29.8V184.8C390.6,168.4,377.3,155.1,360.9,155z"/>
	<path class="st4" d="M344.6,171.2H162.8v406.2h181.8c16.4-0.1,29.7-13.4,29.8-29.8V201C374.3,184.6,361,171.3,344.6,171.2z"/>
	<path class="st4" d="M344.6,171.2H162.8V545h181.8c16.4-0.1,29.7-13.4,29.8-29.8V201C374.3,184.6,361,171.3,344.6,171.2z"/>
	<path class="st4" d="M328.3,171.2H162.8V545h165.5c16.4-0.1,29.7-13.4,29.9-29.8V201C358,184.6,344.7,171.3,328.3,171.2z"/>
	
		<linearGradient id="SVGID_1_" gradientUnits="userSpaceOnUse" x1="-152.0664" y1="2950.6462" x2="-142.7281" y2="2934.4739" gradientTransform="matrix(25 0 0 -25 3864 73914)">
		<stop  offset="0" style="stop-color:#18884F"/>
		<stop  offset="0.5" style="stop-color:#117E43"/>
		<stop  offset="1" style="stop-color:#0B6631"/>
	</linearGradient>
	<path class="st5" d="M29.9,171.2h298.4c16.5,0,29.8,13.3,29.9,29.8v298c0,16.5-13.4,29.8-29.9,29.8H29.9C13.4,528.8,0,515.5,0,499
		c0,0,0,0,0,0V201C0,184.6,13.4,171.2,29.9,171.2C29.8,171.2,29.8,171.2,29.9,171.2z"/>
	<path class="st6" d="M92.5,446.8l62.8-97.1l-57.5-96.6h46.2l31.4,61.8c2.9,5.9,5,10.2,6,13.1h0.4c2-4.7,4.2-9.2,6.5-13.6l33.6-61.2
		h42.5l-59,96l60.5,97.6h-45.2l-36.2-67.8c-1.7-2.9-3.1-6-4.3-9.1h-0.6c-1.1,3.1-2.5,6-4.2,8.8l-37.3,68H92.5z"/>
	<path class="st7" d="M670.2,25H439.5v162.5H700V54.8C700,38.3,686.6,25,670.2,25C670.2,25,670.2,25,670.2,25z"/>
	<path class="st2" d="M439.5,350H700v162.5H439.5V350z"/>
</g>
</svg>
