<?xml version="1.0" encoding="utf-8"?>
<!-- Generator: Adobe Illustrator 27.0.0, SVG Export Plug-In . SVG Version: 6.00 Build 0)  -->
<svg version="1.2" baseProfile="tiny" id="Livello_1"
	 xmlns="http://www.w3.org/2000/svg" xmlns:xlink="http://www.w3.org/1999/xlink" x="0px" y="0px" viewBox="0 0 760 760"
	 overflow="visible" xml:space="preserve">
<g id="Layer_1">
</g>
<g id="Layer_2">
	<g>
		<path fill="#1877F2" d="M380,0c-471.1,13.8-519.2,674.9-59.7,760l0,0l0,0H380h59.7l0,0C899.3,674.8,851,13.8,380,0z"/>
		<path fill="#F5F5F4" d="M439.7,492.8h89l16.9-110.5H439.7v-71.7c0-30.2,14.8-59.7,62.2-59.7h48.2v-94.1
			C446.9,138.2,323,143.9,320.3,298.1v84.2h-97v110.5h97c0,0,0,267.2,0,267.2H380h59.7l0,0l0,0V492.8z"/>
	</g>
</g>
</svg>
