<svg xmlns="http://www.w3.org/2000/svg" version="1.1" xmlns:xlink="http://www.w3.org/1999/xlink" xmlns:svgjs="http://svgjs.dev/svgjs" width="1024" height="1024"><svg id="SvgjsSvg1051" xmlns="http://www.w3.org/2000/svg" xmlns:xlink="http://www.w3.org/1999/xlink" viewBox="0 0 1024 1024"><defs><style>.h{filter:url(#b);}.i{filter:url(#d);}.j{filter:url(#f);}.k{fill:#0f0e17;}.l{fill:#e7f0e5;}</style><filter id="SvgjsFilter1050" filterUnits="userSpaceOnUse"><feOffset dx="-20" dy="10"></feOffset><feGaussianBlur result="c" stdDeviation="10"></feGaussianBlur><feFlood flood-color="#51f02d" flood-opacity=".6"></feFlood><feComposite in2="c" operator="in"></feComposite><feComposite in="SourceGraphic"></feComposite></filter><filter id="SvgjsFilter1049" filterUnits="userSpaceOnUse"><feOffset dx="-20" dy="10"></feOffset><feGaussianBlur result="e" stdDeviation="10"></feGaussianBlur><feFlood flood-color="#51f02d" flood-opacity=".6"></feFlood><feComposite in2="e" operator="in"></feComposite><feComposite in="SourceGraphic"></feComposite></filter><filter id="SvgjsFilter1048" filterUnits="userSpaceOnUse"><feOffset dx="-35" dy="0"></feOffset><feGaussianBlur result="g" stdDeviation="10"></feGaussianBlur><feFlood flood-color="#183c2c" flood-opacity="1"></feFlood><feComposite in2="g" operator="in"></feComposite><feComposite in="SourceGraphic"></feComposite></filter></defs><rect class="k" width="1024" height="1024" rx="125" ry="125"></rect><g class="h"><polygon class="l" points="408.094 180 289 180 289 286.782 454.978 284.499 408.094 180"></polygon><polygon class="l" points="733 180 644 180 644 281.899 733 280.674 733 180"></polygon></g><g class="i"><polygon class="l" points="289 834 378 834 378 719.09 289 720.314 289 834"></polygon><polygon class="l" points="644 715.431 644 716 643.764 715.434 560.105 716.585 612.485 834 733 834 733 714.206 644 715.431"></polygon></g><g class="j"><polygon class="l" points="666 715.431 755 714.206 755 280.674 666 281.899 666 365.672 666 715.431"></polygon><polygon class="l" points="603.438 566.359 476.978 284.499 311 286.782 311 720.314 400 719.09 400 624.812 400 295 452.531 426.125 582.105 716.585 665.764 715.434 603.438 566.359"></polygon></g></svg><style>@media (prefers-color-scheme: light) { :root { filter: none; } }
@media (prefers-color-scheme: dark) { :root { filter: none; } }
</style></svg>