<?xml version="1.0" encoding="utf-8"?>
<!-- Generator: Adobe Illustrator 27.0.0, SVG Export Plug-In . SVG Version: 6.00 Build 0)  -->
<svg version="1.1" id="Livello_1" xmlns="http://www.w3.org/2000/svg" xmlns:xlink="http://www.w3.org/1999/xlink" x="0px" y="0px"
	 viewBox="0 0 700 700" style="enable-background:new 0 0 700 700;" xml:space="preserve">
<style type="text/css">
	.st0{fill:#1ABCFE;}
	.st1{fill:#0ACF83;}
	.st2{fill:#FF7262;}
	.st3{fill:#F24E1E;}
	.st4{fill:#A259FF;}
</style>
<g>
	<path class="st0" d="M350,350c0-64.5,51-116.7,113.8-116.7c62.8,0,113.7,52.2,113.7,116.7c0,64.4-50.9,116.7-113.7,116.7
		C401,466.7,350,414.5,350,350z"/>
	<path class="st1" d="M122.5,583.3c0-64.4,51-116.7,113.8-116.7H350v116.7c0,64.4-51,116.7-113.8,116.7S122.5,647.8,122.5,583.3z"/>
	<path class="st2" d="M350,0v233.3h113.8c62.9,0,113.7-52.2,113.7-116.7C577.5,52.3,526.6,0,463.7,0H350z"/>
	<path class="st3" d="M122.5,116.6c0,64.4,51,116.7,113.8,116.7H350V0H236.2C173.4,0,122.5,52.3,122.5,116.6z"/>
	<path class="st4" d="M122.5,350c0,64.4,51,116.7,113.8,116.7H350V233.3H236.2C173.4,233.3,122.5,285.5,122.5,350z"/>
</g>
</svg>
