<?xml version="1.0" encoding="utf-8"?>
<!-- Generator: Adobe Illustrator 27.0.0, SVG Export Plug-In . SVG Version: 6.00 Build 0)  -->
<svg version="1.1" id="Livello_1" xmlns="http://www.w3.org/2000/svg" xmlns:xlink="http://www.w3.org/1999/xlink" x="0px" y="0px"
	 viewBox="0 0 202 202" style="enable-background:new 0 0 202 202;" xml:space="preserve">
<style type="text/css">
	.st0{fill:#F5F5F4;}
</style>
<path id="Vector" class="st0" d="M100.3,3.4c-55,0-100,45-100,100c0,43,28,81,68,95c5,1,7-2,7-5c0-2,0-10,0-19c-25,5-31-6-33-11
	s-6-10-10-14c-3-2-8-6,0-7c6,1,12,5,15,10c6,10,19,14,29,8c0-5,3-10,6-13c-22-2-45-11-45-49c0-10,4-20,10-27c-3-9-3-18,1-27
	c0,0,8-3,28,10c16-5,34-5,50,0c19-13,28-10,28-10c4,8,4,18,1,26c7,7,10,17,10,27c0,38-23,47-46,49c5,5,7,12,7,19c0,13,0,24,0,28
	c0,3,2,6,7,5c52-18,81-74,63-127C181.3,30.4,143.3,3.4,100.3,3.4z"/>
</svg>
