<?xml version="1.0" encoding="utf-8"?>
<!-- Generator: Adobe Illustrator 27.0.0, SVG Export Plug-In . SVG Version: 6.00 Build 0)  -->
<svg version="1.1" id="Livello_1" xmlns="http://www.w3.org/2000/svg" xmlns:xlink="http://www.w3.org/1999/xlink" x="0px" y="0px"
	 viewBox="0 0 2500 2500" style="enable-background:new 0 0 2500 2500;" xml:space="preserve">
<style type="text/css">
	.st0{fill-rule:evenodd;clip-rule:evenodd;fill:#7B7B7B;}
	.st1{fill:#5A5A5A;}
	.st2{fill-rule:evenodd;clip-rule:evenodd;fill:#E6E7E8;}
	.st3{fill-rule:evenodd;clip-rule:evenodd;fill:#D0D1D2;}
	.st4{fill-rule:evenodd;clip-rule:evenodd;fill:#458CF5;}
	.st5{fill:#FFFFFF;}
	.st6{fill-rule:evenodd;clip-rule:evenodd;fill:#D2D3D4;}
	.st7{fill:#D2D3D4;}
	.st8{fill-rule:evenodd;clip-rule:evenodd;fill:#505050;}
</style>
<g>
	<path class="st0" d="M701,320.9l185.8-185.8v354.7H701V320.9z M1799,320.9l-185.8-185.8v354.7H1799V320.9z"/>
	<path class="st1" d="M886.8,135.1h726.4v177.4H886.8V135.1z"/>
	<g>
		<path class="st2" d="M2297.3,2364.9H202.7C90.8,2364.9,0,2274.1,0,2162.2v-1324l348.3-348.3h1803.4L2500,838.2v1324
			C2500,2274.1,2409.2,2364.9,2297.3,2364.9z"/>
		<path class="st3" d="M0,1207.8V838.2l348.3-348.3h1803.4L2500,838.2v369.6H0z"/>
		<path class="st4" d="M287.2,2364.9V929.1c0-46.6,37.8-84.5,84.5-84.5h1756.8c46.6,0,84.5,37.8,84.5,84.5v1435.8H287.2z"/>
	</g>
	<path class="st5" d="M287.2,1207.8h1925.7v1157.1H287.2V1207.8z"/>
	<path class="st6" d="M1638.5,2364.9v-346.3l-168.9-168.9l-109.8-304.1l76-194.3l430.7,430.7l76-320.9l270.3,270.3v633.4H1638.5z"/>
	<path class="st7" d="M413.9,1342.9h641.9v717.9H413.9V1342.9z M413.9,2221.3h827.7v143.6H413.9V2221.3z"/>
	<path class="st8" d="M1799,2095.4v269.4h-354.7v-265.6c-210.2-95.7-303-343.6-207.4-553.8c40.5-89,110.9-160.9,198.9-203.4v397.8
		l177.4,109.8l185.8-109.8v-397.8c208,100.4,295.3,350.4,195,558.4C1952.9,1985.6,1884.2,2054.4,1799,2095.4L1799,2095.4z"/>
	<path class="st2" d="M485.6,937.5c39.6,0,71.8,32.1,71.8,71.8s-32.1,71.8-71.8,71.8s-71.8-32.1-71.8-71.8S446,937.5,485.6,937.5z
		 M696.8,937.5c39.6,0,71.8,32.1,71.8,71.8s-32.1,71.8-71.8,71.8c-39.6,0-71.8-32.1-71.8-71.8S657.1,937.5,696.8,937.5z"/>
</g>
</svg>
