<?xml version="1.0" encoding="utf-8"?>
<!-- Generator: Adobe Illustrator 27.0.0, SVG Export Plug-In . SVG Version: 6.00 Build 0)  -->
<svg version="1.1" id="Livello_1" xmlns="http://www.w3.org/2000/svg" xmlns:xlink="http://www.w3.org/1999/xlink" x="0px" y="0px"
	 viewBox="0 0 200 200" style="enable-background:new 0 0 200 200;" xml:space="preserve">
<style type="text/css">
	.st0{fill:#F5F5F4;}
</style>
<path id="Vector" class="st0" d="M100,75c-14,0-25,11-25,25s11,25,25,25s25-11,25-25S114,75,100,75z M199,51c0-8-1-15-4-23
	c-4-11-13-19-23-23c-7-3-15-4-23-4c-13-1-16-1-49-1S64,0,51,1c-8,0-15,1-23,4C17,9,9,17,5,28c-3,7-4,15-4,23c-1,13-1,16-1,49
	s0,36,1,49c0,8,2,15,4,23c2,5,5,10,9,14s9,7,14,9c7,3,15,4,23,4c13,1,16,1,49,1s36,0,49-1c8,0,15-1,23-4c5-2,10-5,14-9s7-9,9-14
	c3-7,4-15,4-23c1-13,1-16,1-49S200,64,199,51z M174,131c0,6-2,12-4,18c-4,10-12,17-21,21c-6,2-12,3-18,4c-8,0-10,0-31,0s-23,0-31,0
	c-6,0-12-1-18-4c-5-2-9-5-13-9s-6-8-8-13c-2-6-3-12-3-18c0-8,0-10,0-31s0-23,0-31c0-6,1-12,3-18c2-5,5-9,9-13c3-2,8-5,12-7
	c6-2,12-3,18-3c8,0,10,0,31,0s23,0,31,0c6,0,12,1,18,3c5,2,9,5,13,9s6,8,8,13c2,6,3,12,4,18c0,8,0,10,0,31S174,123,174,131z M158,56
	c-3-6-8-11-14-14c-5-1-9-2-14-2c-8,0-10,0-30,0s-22,0-30,0c-5,0-9,1-14,3c-6,2-11,7-14,13c-1,5-2,9-2,14c0,8,0,10,0,30s0,22,0,30
	c0,5,1,9,3,14c2,6,7,11,14,14c4,1,8,2,13,2c8,0,10,0,30,0s22,0,30,0c5,0,9-1,14-3c7-2,12-8,14-14c2-4,2-8,2-13c0-8,0-10,0-30
	s0-22,0-30C161,65,160,61,158,56z M100,138c-21,0-38-17-38-38s17-38,38-38s38,17,38,38S121,138,100,138z M140,69c-5-1-9-5-8-10
	c0-4,4-8,8-8c5,1,9,5,8,10C148,66,144,69,140,69z"/>
</svg>
