<?xml version="1.0" encoding="utf-8"?>
<!-- Generator: Adobe Illustrator 27.0.0, SVG Export Plug-In . SVG Version: 6.00 Build 0)  -->
<svg version="1.1" id="Livello_1" xmlns="http://www.w3.org/2000/svg" xmlns:xlink="http://www.w3.org/1999/xlink" x="0px" y="0px"
	 viewBox="0 0 256 256" style="enable-background:new 0 0 256 256;" xml:space="preserve">
<style type="text/css">
	.st0{fill:#020204;}
	.st1{fill:#FDFDFB;}
	
		.st2{opacity:0.25;clip-path:url(#SVGID_00000181806604240465336950000004327823944514355642_);filter:url(#blur_belly_shadow_left);enable-background:new    ;}
	.st3{fill:url(#SVGID_00000111188812891150617560000011119499523965613468_);}
	
		.st4{opacity:0.42;clip-path:url(#SVGID_00000058548476965869532490000003190799679218769557_);filter:url(#blur_belly_shadow_right);enable-background:new    ;}
	.st5{fill:url(#SVGID_00000096740380719083747720000003627983916805673896_);}
	
		.st6{opacity:0.2;clip-path:url(#SVGID_00000063633414699350393930000017741246310484225677_);filter:url(#blur_belly_shadow_middle);enable-background:new    ;}
	.st7{fill:url(#SVGID_00000181049612694343284580000002182580993070774175_);}
	
		.st8{opacity:0.11;clip-path:url(#SVGID_00000137111460964312892460000005394382687162492830_);filter:url(#blur_belly_shadow_lower);enable-background:new    ;}
	
		.st9{opacity:0.75;clip-path:url(#SVGID_00000044151894988500618360000014399475397370642322_);filter:url(#blur_belly_glare);enable-background:new    ;}
	.st10{fill:#7C7C7C;}
	.st11{clip-path:url(#SVGID_00000125595263367958465460000002733444835062118312_);filter:url(#blur_head_glare);}
	.st12{clip-path:url(#SVGID_00000043445856746880856090000015806472362387365257_);filter:url(#blur_neck_glare);}
	.st13{fill:#838384;}
	
		.st14{opacity:0.95;clip-path:url(#SVGID_00000140702402003859056930000015231699677041514172_);filter:url(#blur_wing_left_glare);enable-background:new    ;}
	.st15{clip-path:url(#SVGID_00000041991016384786006920000004592610710433953463_);filter:url(#blur_wing_right_glare);}
	.st16{fill:url(#foot_left_base_00000160163905078619284490000004376875962703601288_);}
	.st17{clip-path:url(#SVGID_00000087375974467101538300000000334294339975553164_);filter:url(#blur_foot_left_layer_1);}
	.st18{fill:#D99A03;}
	.st19{clip-path:url(#SVGID_00000175312796647714299090000002415108179612790174_);filter:url(#blur_foot_left_layer_2);}
	.st20{fill:#F5BD0C;}
	.st21{clip-path:url(#SVGID_00000078743491044247345410000001381997454212811946_);filter:url(#blur_foot_left_glare);}
	.st22{fill:url(#SVGID_00000152942720460198571650000003213195174421486233_);}
	
		.st23{opacity:0.2;clip-path:url(#SVGID_00000091011941953064305280000013287358870657040532_);filter:url(#blur_foot_right_shadow);enable-background:new    ;}
	.st24{fill:url(#SVGID_00000045587827254466483960000003612492935452096900_);}
	.st25{fill:url(#foot_right_base_00000004509771790532449510000008975005479144617387_);}
	.st26{clip-path:url(#SVGID_00000150102334081062791450000004593900429713345962_);filter:url(#blur_foot_right_layer_1);}
	.st27{fill:#CD8907;}
	.st28{clip-path:url(#SVGID_00000162345214579533828570000004178801018976615082_);filter:url(#blur_foot_right_layer_2);}
	.st29{fill:#F5C021;}
	.st30{clip-path:url(#SVGID_00000140716507286830029570000008861934331184535451_);filter:url(#blur_foot_right_glare);}
	.st31{fill:url(#SVGID_00000111185180555508737970000003038085396295276216_);}
	
		.st32{opacity:0.35;clip-path:url(#SVGID_00000017475667111529820820000016016395561949621673_);filter:url(#blur_wing_tip_right_shadow_lower);enable-background:new    ;}
	.st33{fill:url(#SVGID_00000010310117809281618010000010050923527145035159_);}
	
		.st34{opacity:0.35;clip-path:url(#SVGID_00000164497252912523818830000014990186962872314291_);filter:url(#blur_wing_tip_right_shadow_upper);enable-background:new    ;}
	.st35{fill:url(#SVGID_00000125586522155760606570000004367874185016701362_);}
	.st36{clip-path:url(#SVGID_00000181049057157771367150000004760207838132352188_);filter:url(#blur_wing_tip_right_glare);}
	.st37{fill:url(#path_wing_tip_right_glare_00000126303586305935949460000007494240070910248115_);}
	.st38{clip-path:url(#SVGID_00000065076574563167755290000000459491467544524710_);filter:url(#blur_wing_tip_right_glare);}
	.st39{fill:url(#path_wing_tip_right_glare_00000039105892292830429740000010964435277677817279_);}
	.st40{fill:url(#eyeball_left_00000183229724378045850640000012546393175191336840_);}
	.st41{clip-path:url(#SVGID_00000144338049148950842580000012338028438867988925_);filter:url(#blur_pupil_left_glare);}
	.st42{fill:url(#SVGID_00000134964485712859916490000000098080054551200935_);}
	
		.st43{clip-path:url(#SVGID_00000052817248855284869440000013168746786952201398_);fill:url(#eyelid_left_00000044899588890756626040000002406119360233244046_);}
	.st44{filter:url(#blur_eyebrow_left);}
	.st45{fill:url(#SVGID_00000133523736130695969070000005664676599046424963_);}
	.st46{fill:url(#eyeball_right_00000011718291938193607330000014888365374652397224_);}
	.st47{clip-path:url(#SVGID_00000050661402527512956730000017958296946486100918_);filter:url(#blur_pupil_right_glare);}
	.st48{fill:url(#SVGID_00000064323754504033045070000006124927510658654886_);}
	
		.st49{clip-path:url(#SVGID_00000067227108692141967180000005128867767561881023_);fill:url(#eyelid_right_00000107548517190822769180000013091082788111343241_);}
	.st50{filter:url(#blur_eyebrow_right);}
	.st51{fill:url(#SVGID_00000160901095707470912130000011927022723783596696_);}
	.st52{clip-path:url(#SVGID_00000032607107506310512130000010588288623926847119_);filter:url(#blur_beak_shadow_lower);}
	.st53{opacity:0.2588;}
	
		.st54{opacity:0.3;clip-path:url(#SVGID_00000035491031679931623140000006937145817378238603_);filter:url(#blur_beak_shadow_upper);enable-background:new    ;}
	.st55{fill:url(#beak_base_00000152249778310381747960000004387153887833009062_);}
	.st56{fill:url(#mandible_lower_base_00000123416139255933757470000014289386283067591316_);}
	.st57{clip-path:url(#SVGID_00000052800498742873958460000013327506128101623952_);filter:url(#blur_mandible_lower_glare);}
	.st58{fill:#D9B30D;}
	.st59{clip-path:url(#SVGID_00000132805532778717403860000006593083905746012593_);filter:url(#blur_mandible_upper_shadow);}
	.st60{fill:#604405;}
	.st61{fill:url(#mandible_upper_base_00000101824505827814353080000002992551192511409792_);}
	.st62{clip-path:url(#SVGID_00000166659547261443762500000015819137231830736571_);filter:url(#blur_mandible_upper_glare);}
	.st63{fill:#F6DA4A;}
	.st64{opacity:0.8;filter:url(#blur_naris_left);enable-background:new    ;}
	.st65{fill:url(#SVGID_00000067232989201184837990000001066366926361184908_);}
	.st66{opacity:0.8;filter:url(#blur_naris_right);enable-background:new    ;}
	.st67{fill:url(#SVGID_00000054963655210116381250000012522336584980137106_);}
	.st68{clip-path:url(#SVGID_00000129925208282589774670000014196302240556621473_);}
	.st69{clip-path:url(#SVGID_00000111895247768798639190000001757861411016890500_);filter:url(#blur_beak_corner);}
	.st70{fill:url(#SVGID_00000162348815729734921990000008589917128572789893_);}
</style>
<filter  height="1.4" id="blur_wing_tip_right_shadow_upper" width="1.4" x="-0.2" y="-0.2">
	<feGaussianBlur  stdDeviation="1.12 0.81"></feGaussianBlur>
</filter>
<filter  height="1.6" id="blur_wing_tip_right_shadow_lower" width="1.6" x="-0.3" y="-0.3">
	<feGaussianBlur  stdDeviation="2.45"></feGaussianBlur>
</filter>
<filter  height="1.4" id="blur_wing_tip_right_glare" width="1.4" x="-0.2" y="-0.2">
	<feGaussianBlur  stdDeviation="0.88"></feGaussianBlur>
</filter>
<filter  height="1.4" id="blur_wing_right_glare" width="1.4" x="-0.2" y="-0.2">
	<feGaussianBlur  stdDeviation="1.19 1.17"></feGaussianBlur>
</filter>
<filter  height="1.4" id="blur_wing_left_glare" width="1.4" x="-0.2" y="-0.2">
	<feGaussianBlur  stdDeviation="0.98"></feGaussianBlur>
</filter>
<filter  height="1.4" id="blur_pupil_right_glare" width="1.4" x="-0.2" y="-0.2">
	<feGaussianBlur  stdDeviation="0.45"></feGaussianBlur>
</filter>
<filter  height="1.6" id="blur_pupil_left_glare" width="1.6" x="-0.3" y="-0.3">
	<feGaussianBlur  stdDeviation="0.44"></feGaussianBlur>
</filter>
<filter  height="1.4" id="blur_neck_glare" width="1.4" x="-0.2" y="-0.2">
	<feGaussianBlur  stdDeviation="0.78"></feGaussianBlur>
</filter>
<filter  id="blur_naris_right">
	<feGaussianBlur  stdDeviation="0.1"></feGaussianBlur>
</filter>
<filter  height="1.4" id="blur_naris_left" width="1.4" x="-0.2" y="-0.2">
	<feGaussianBlur  stdDeviation="0.1"></feGaussianBlur>
</filter>
<filter  id="blur_mandible_upper_shadow">
	<feGaussianBlur  stdDeviation="0.65"></feGaussianBlur>
</filter>
<filter  height="1.4" id="blur_mandible_upper_glare" width="1.4" x="-0.2" y="-0.2">
	<feGaussianBlur  stdDeviation="0.73"></feGaussianBlur>
</filter>
<filter  height="1.4" id="blur_mandible_lower_glare" width="1.4" x="-0.2" y="-0.2">
	<feGaussianBlur  stdDeviation="0.77"></feGaussianBlur>
</filter>
<filter  height="1.6" id="blur_head_glare" width="1.6" x="-0.3" y="-0.3">
	<feGaussianBlur  stdDeviation="1.73"></feGaussianBlur>
</filter>
<filter  id="blur_foot_right_shadow">
	<feGaussianBlur  stdDeviation="1.95 1.9"></feGaussianBlur>
</filter>
<filter  height="1.4" id="blur_foot_right_layer_2" width="1.4" x="-0.2" y="-0.2">
	<feGaussianBlur  stdDeviation="3.12 3.37"></feGaussianBlur>
</filter>
<filter  height="1.4" id="blur_foot_right_layer_1" width="1.4" x="-0.2" y="-0.2">
	<feGaussianBlur  stdDeviation="4.12"></feGaussianBlur>
</filter>
<filter  height="1.4" id="blur_foot_right_glare" width="1.4" x="-0.2" y="-0.2">
	<feGaussianBlur  stdDeviation="0.41"></feGaussianBlur>
</filter>
<filter  id="blur_foot_left_layer_2">
	<feGaussianBlur  stdDeviation="2.1 2.06"></feGaussianBlur>
</filter>
<filter  height="1.4" id="blur_foot_left_layer_1" width="1.4" x="-0.2" y="-0.2">
	<feGaussianBlur  stdDeviation="3.38"></feGaussianBlur>
</filter>
<filter  id="blur_foot_left_glare">
	<feGaussianBlur  stdDeviation="0.32"></feGaussianBlur>
</filter>
<filter  id="blur_eyebrow_right">
	<feGaussianBlur  stdDeviation="0.13"></feGaussianBlur>
</filter>
<filter  id="blur_eyebrow_left">
	<feGaussianBlur  stdDeviation="0.12"></feGaussianBlur>
</filter>
<filter  id="blur_belly_shadow_right">
	<feGaussianBlur  stdDeviation="0.98"></feGaussianBlur>
</filter>
<filter  id="blur_belly_shadow_middle">
	<feGaussianBlur  stdDeviation="0.68"></feGaussianBlur>
</filter>
<filter  height="1.4" id="blur_belly_shadow_lower" width="2.6" x="-0.8" y="-0.2">
	<feGaussianBlur  stdDeviation="1.25"></feGaussianBlur>
</filter>
<filter  id="blur_belly_shadow_left">
	<feGaussianBlur  stdDeviation="0.64 0.55"></feGaussianBlur>
</filter>
<filter  height="2" id="blur_belly_glare" width="2.6" x="-0.8" y="-0.5">
	<feGaussianBlur  stdDeviation="1.78 2.19"></feGaussianBlur>
</filter>
<filter  id="blur_beak_shadow_upper">
	<feGaussianBlur  stdDeviation="0.8 0.74"></feGaussianBlur>
</filter>
<filter  height="1.4" id="blur_beak_shadow_lower" width="1.4" x="-0.2" y="-0.2">
	<feGaussianBlur  stdDeviation="1.75"></feGaussianBlur>
</filter>
<filter  height="1.4" id="blur_beak_corner" width="1.4" x="-0.2" y="-0.2">
	<feGaussianBlur  stdDeviation="0.23"></feGaussianBlur>
</filter>
<g id="tux">
	<g id="body">
		<path id="body_base" class="st0" d="M126.9,0c-6,0-12,1.2-17.5,4.1c-5.8,3.1-10.5,8.1-13.4,14C93.1,24,92,30.3,91.8,37.2
			c-0.3,13.1,0.3,26.9,1.3,39.4c0.3,3.8,0.7,6,0.2,9.9c-1.6,8.3-8.9,13.9-12.8,21.2c-4.3,8-6.1,17.1-9.3,25.7
			c-3,7.8-7.1,15.1-9.9,22.9c-3.9,11-5.1,23-2.5,34.4c2,8.7,6.1,16.8,11.6,23.7c-0.8,1.4-1.6,2.9-2.4,4.3c-2.6,4.4-5.7,8.6-7.2,13.6
			c-0.7,2.4-1,5.1-0.5,7.6c0.5,2.5,1.8,4.9,3.8,6.5c1.3,1,2.9,1.7,4.5,2.1c1.6,0.4,3.3,0.5,5,0.4c6.4-0.1,12.6-2.1,18.7-3.7
			c3.7-1,7.3-1.8,11-2.6c13.1-2.7,27.8-1.6,40,0.1c4.1,0.6,8.2,1.4,12.3,2.4c6.4,1.5,12.7,3.5,19.2,3.7c1.7,0.1,3.5,0,5.1-0.4
			c1.7-0.4,3.3-1.1,4.6-2.1c2-1.6,3.3-4,3.8-6.5c0.5-2.5,0.2-5.1-0.6-7.6c-1.5-4.9-4.6-9.1-7.3-13.5c-1-1.8-2-3.5-3-5.3
			c7.9-8.9,14.3-19.1,17.9-30.4c4-12.3,4.8-25.6,3.1-38.4s-5.8-25.3-11.1-37.1c-6.7-14.8-12.4-20.1-16.5-33.1
			c-4.4-14-0.8-30.6-4.1-43.3c-1.2-4.3-3-8.5-5.4-12.2c-2.8-4.4-6.4-8.4-10.6-11.5C144.1,2.6,135.6,0,126.9,0L126.9,0z"/>
		<path id="belly" class="st1" d="M103.1,74c-0.9,1.1-1.5,2.5-1.8,3.9c-0.3,1.4-0.5,2.8-0.5,4.3c-0.1,2.9,0.1,5.8-0.7,8.6
			c-0.8,3-2.7,5.6-4.4,8.1c-3.1,4.4-6.2,8.8-7.8,14c-0.9,3.1-1.2,6.4-0.9,9.6c-3.5,5.1-6.5,10.5-9,16.2c-3.8,8.6-6.4,17.7-7.3,27
			c-1.1,11.4,0.3,23.1,4.8,33.7c3.2,7.6,8.1,14.6,14.4,20c3.2,2.8,6.7,5.1,10.5,7c13.1,6.4,29.3,6.5,42.2-0.4
			c6.7-3.6,12.4-8.8,17.9-14.1c3.3-3.2,6.6-6.5,9.1-10.3c4.9-7.4,6.5-16.4,7.6-25.2c1.8-15.4,1.9-31.6-4.9-45.5
			c-2.3-4.8-5.4-9.2-9.1-13.1c-1-6.7-2.9-13.3-5.8-19.4c-2.1-4.4-4.5-8.7-6.4-13.2c-0.8-1.8-1.5-3.8-2.3-5.6
			c-0.9-1.8-1.9-3.6-3.4-4.9c-1.5-1.4-3.3-2.4-5.3-3.1c-1.9-0.7-4-0.9-6.1-1c-4.1-0.2-8.2,0.3-12.3,0.2c-3.3-0.1-6.5-0.7-9.8-0.5
			c-1.6,0.1-3.3,0.4-4.8,1C105.5,71.8,104.1,72.7,103.1,74z"/>
		<g id="body_self_shadows">
			<g>
				<defs>
					<path id="SVGID_1_" d="M126.9,0c-6,0-12,1.2-17.5,4.1c-5.8,3.1-10.5,8.1-13.4,14C93.1,24,92,30.3,91.8,37.2
						c-0.3,13.1,0.3,26.9,1.3,39.4c0.3,3.8,0.7,6,0.2,9.9c-1.6,8.3-8.9,13.9-12.8,21.2c-4.3,8-6.1,17.1-9.3,25.7
						c-3,7.8-7.1,15.1-9.9,22.9c-3.9,11-5.1,23-2.5,34.4c2,8.7,6.1,16.8,11.6,23.7c-0.8,1.4-1.6,2.9-2.4,4.3
						c-2.6,4.4-5.7,8.6-7.2,13.6c-0.7,2.4-1,5.1-0.5,7.6c0.5,2.5,1.8,4.9,3.8,6.5c1.3,1,2.9,1.7,4.5,2.1c1.6,0.4,3.3,0.5,5,0.4
						c6.4-0.1,12.6-2.1,18.7-3.7c3.7-1,7.3-1.8,11-2.6c13.1-2.7,27.8-1.6,40,0.1c4.1,0.6,8.2,1.4,12.3,2.4
						c6.4,1.5,12.7,3.5,19.2,3.7c1.7,0.1,3.5,0,5.1-0.4c1.7-0.4,3.3-1.1,4.6-2.1c2-1.6,3.3-4,3.8-6.5c0.5-2.5,0.2-5.1-0.6-7.6
						c-1.5-4.9-4.6-9.1-7.3-13.5c-1-1.8-2-3.5-3-5.3c7.9-8.9,14.3-19.1,17.9-30.4c4-12.3,4.8-25.6,3.1-38.4s-5.8-25.3-11.1-37.1
						c-6.7-14.8-12.4-20.1-16.5-33.1c-4.4-14-0.8-30.6-4.1-43.3c-1.2-4.3-3-8.5-5.4-12.2c-2.8-4.4-6.4-8.4-10.6-11.5
						C144.1,2.6,135.6,0,126.9,0L126.9,0z"/>
				</defs>
				<clipPath id="SVGID_00000054250347068200526540000008055613349758757258_">
					<use xlink:href="#SVGID_1_"  style="overflow:visible;"/>
				</clipPath>
				
					<g id="belly_shadow_left" style="opacity:0.25;clip-path:url(#SVGID_00000054250347068200526540000008055613349758757258_);filter:url(#blur_belly_shadow_left);enable-background:new    ;">
					
						<radialGradient id="SVGID_00000116236183628303384230000009301615884101403830_" cx="-361.7895" cy="619.7222" r="1" gradientTransform="matrix(19 0 0 -18 6955.1802 11276.1904)" gradientUnits="userSpaceOnUse">
						<stop  offset="0" style="stop-color:#000000"/>
						<stop  offset="1" style="stop-color:#000000;stop-opacity:0.25"/>
					</radialGradient>
					<path style="fill:url(#SVGID_00000116236183628303384230000009301615884101403830_);" d="M88.7,115.2c0.9,1.3-0.6,5.8,19.9,2.9
						c0,0-3.6,0.4-7.1,1.2c-5.5,1.8-10.3,3.9-14,6.6c-3.7,2.7-6.3,6.2-9.7,9.2c0,0,5.4-9.9,6.8-12.9c1.4-3-0.2-2.8,0.8-7.2
						s3.7-8.6,3.7-8.6S86.9,112.6,88.7,115.2z"/>
				</g>
			</g>
			<g>
				<defs>
					<path id="SVGID_00000116954605520604827990000016972838600035323810_" d="M126.9,0c-6,0-12,1.2-17.5,4.1
						c-5.8,3.1-10.5,8.1-13.4,14C93.1,24,92,30.3,91.8,37.2c-0.3,13.1,0.3,26.9,1.3,39.4c0.3,3.8,0.7,6,0.2,9.9
						c-1.6,8.3-8.9,13.9-12.8,21.2c-4.3,8-6.1,17.1-9.3,25.7c-3,7.8-7.1,15.1-9.9,22.9c-3.9,11-5.1,23-2.5,34.4
						c2,8.7,6.1,16.8,11.6,23.7c-0.8,1.4-1.6,2.9-2.4,4.3c-2.6,4.4-5.7,8.6-7.2,13.6c-0.7,2.4-1,5.1-0.5,7.6
						c0.5,2.5,1.8,4.9,3.8,6.5c1.3,1,2.9,1.7,4.5,2.1c1.6,0.4,3.3,0.5,5,0.4c6.4-0.1,12.6-2.1,18.7-3.7c3.7-1,7.3-1.8,11-2.6
						c13.1-2.7,27.8-1.6,40,0.1c4.1,0.6,8.2,1.4,12.3,2.4c6.4,1.5,12.7,3.5,19.2,3.7c1.7,0.1,3.5,0,5.1-0.4c1.7-0.4,3.3-1.1,4.6-2.1
						c2-1.6,3.3-4,3.8-6.5c0.5-2.5,0.2-5.1-0.6-7.6c-1.5-4.9-4.6-9.1-7.3-13.5c-1-1.8-2-3.5-3-5.3c7.9-8.9,14.3-19.1,17.9-30.4
						c4-12.3,4.8-25.6,3.1-38.4s-5.8-25.3-11.1-37.1c-6.7-14.8-12.4-20.1-16.5-33.1c-4.4-14-0.8-30.6-4.1-43.3
						c-1.2-4.3-3-8.5-5.4-12.2c-2.8-4.4-6.4-8.4-10.6-11.5C144.1,2.6,135.6,0,126.9,0L126.9,0z"/>
				</defs>
				<clipPath id="SVGID_00000067214085412112307490000015927560369706390192_">
					<use xlink:href="#SVGID_00000116954605520604827990000016972838600035323810_"  style="overflow:visible;"/>
				</clipPath>
				
					<g id="belly_shadow_right" style="opacity:0.42;clip-path:url(#SVGID_00000067214085412112307490000015927560369706390192_);filter:url(#blur_belly_shadow_right);enable-background:new    ;">
					
						<radialGradient id="SVGID_00000089569499288836080750000015873107280802356155_" cx="-365.9237" cy="619.7222" r="1" gradientTransform="matrix(23.6 0 0 -18 8781.54 11286.6006)" gradientUnits="userSpaceOnUse">
						<stop  offset="0" style="stop-color:#000000"/>
						<stop  offset="1" style="stop-color:#000000;stop-opacity:0.25"/>
					</radialGradient>
					<path style="fill:url(#SVGID_00000089569499288836080750000015873107280802356155_);" d="M154.3,114c-4.2,2.9-6.6,2.6-11.6,3.1
						c-5.1,0.6-18.7,0.4-18.7,0.4s2,0,6.4,0.8c4.4,0.8,13.3,1.6,18.3,3.5c5,1.9,6.9,2.5,9.9,4.4c4.4,2.8,7.6,7.1,11.7,10.1
						c0,0,0.2-4-1.5-7s-6.2-7.7-7.5-12.1c-1.3-4.4-2-13-2-13S158.4,111.1,154.3,114L154.3,114z"/>
				</g>
			</g>
			<g>
				<defs>
					<path id="SVGID_00000089535239185774892210000012187664533243420083_" d="M126.9,0c-6,0-12,1.2-17.5,4.1
						c-5.8,3.1-10.5,8.1-13.4,14C93.1,24,92,30.3,91.8,37.2c-0.3,13.1,0.3,26.9,1.3,39.4c0.3,3.8,0.7,6,0.2,9.9
						c-1.6,8.3-8.9,13.9-12.8,21.2c-4.3,8-6.1,17.1-9.3,25.7c-3,7.8-7.1,15.1-9.9,22.9c-3.9,11-5.1,23-2.5,34.4
						c2,8.7,6.1,16.8,11.6,23.7c-0.8,1.4-1.6,2.9-2.4,4.3c-2.6,4.4-5.7,8.6-7.2,13.6c-0.7,2.4-1,5.1-0.5,7.6
						c0.5,2.5,1.8,4.9,3.8,6.5c1.3,1,2.9,1.7,4.5,2.1c1.6,0.4,3.3,0.5,5,0.4c6.4-0.1,12.6-2.1,18.7-3.7c3.7-1,7.3-1.8,11-2.6
						c13.1-2.7,27.8-1.6,40,0.1c4.1,0.6,8.2,1.4,12.3,2.4c6.4,1.5,12.7,3.5,19.2,3.7c1.7,0.1,3.5,0,5.1-0.4c1.7-0.4,3.3-1.1,4.6-2.1
						c2-1.6,3.3-4,3.8-6.5c0.5-2.5,0.2-5.1-0.6-7.6c-1.5-4.9-4.6-9.1-7.3-13.5c-1-1.8-2-3.5-3-5.3c7.9-8.9,14.3-19.1,17.9-30.4
						c4-12.3,4.8-25.6,3.1-38.4s-5.8-25.3-11.1-37.1c-6.7-14.8-12.4-20.1-16.5-33.1c-4.4-14-0.8-30.6-4.1-43.3
						c-1.2-4.3-3-8.5-5.4-12.2c-2.8-4.4-6.4-8.4-10.6-11.5C144.1,2.6,135.6,0,126.9,0L126.9,0z"/>
				</defs>
				<clipPath id="SVGID_00000015345868515733821770000002364754688472532134_">
					<use xlink:href="#SVGID_00000089535239185774892210000012187664533243420083_"  style="overflow:visible;"/>
				</clipPath>
				
					<g id="belly_shadow_middle" style="opacity:0.2;clip-path:url(#SVGID_00000015345868515733821770000002364754688472532134_);filter:url(#blur_belly_shadow_middle);enable-background:new    ;">
					
						<radialGradient id="SVGID_00000082336046499847407900000005130201723720709556_" cx="-339.8984" cy="602.7" r="1" gradientTransform="matrix(9.35 0 0 -10 3292.2603 6154.4702)" gradientUnits="userSpaceOnUse">
						<stop  offset="0" style="stop-color:#000000"/>
						<stop  offset="1" style="stop-color:#000000;stop-opacity:0.25"/>
					</radialGradient>
					<path style="fill:url(#SVGID_00000082336046499847407900000005130201723720709556_);" d="M115.2,107.8
						c-0.2,1.2-0.4,2.5-0.6,3.7c-0.1,0.6-0.3,1.2-0.5,1.8c-0.2,0.6-0.6,1.1-1,1.6c-0.4,0.4-0.9,0.6-1.4,0.8c-1.9,0.9-4,1.5-6.1,1.7
						c0.8,0.1,1.7,0.1,2.5,0.2c0.5,0.1,1.1,0.1,1.6,0.2c0.5,0.1,1,0.3,1.5,0.7c0.5,0.3,0.8,0.8,1.1,1.3c0.6,1,0.7,2.2,0.8,3.4
						c0.1,1.5,0.1,3,0,4.5c0.1-1,0.3-2,0.6-2.9c0.6-1.7,1.5-3.3,2.7-4.7c0.5-0.5,1-1,1.6-1.4c1.8-1.3,4.1-1.8,6.2-1.5
						c-2.2,0.1-4.4-0.6-6.2-1.9c-0.9-0.7-1.7-1.5-2.2-2.5C115,111.3,114.7,109.5,115.2,107.8z"/>
				</g>
			</g>
			<g>
				<defs>
					<path id="SVGID_00000052790397491585714050000008770292175371835312_" d="M126.9,0c-6,0-12,1.2-17.5,4.1
						c-5.8,3.1-10.5,8.1-13.4,14C93.1,24,92,30.3,91.8,37.2c-0.3,13.1,0.3,26.9,1.3,39.4c0.3,3.8,0.7,6,0.2,9.9
						c-1.6,8.3-8.9,13.9-12.8,21.2c-4.3,8-6.1,17.1-9.3,25.7c-3,7.8-7.1,15.1-9.9,22.9c-3.9,11-5.1,23-2.5,34.4
						c2,8.7,6.1,16.8,11.6,23.7c-0.8,1.4-1.6,2.9-2.4,4.3c-2.6,4.4-5.7,8.6-7.2,13.6c-0.7,2.4-1,5.1-0.5,7.6
						c0.5,2.5,1.8,4.9,3.8,6.5c1.3,1,2.9,1.7,4.5,2.1c1.6,0.4,3.3,0.5,5,0.4c6.4-0.1,12.6-2.1,18.7-3.7c3.7-1,7.3-1.8,11-2.6
						c13.1-2.7,27.8-1.6,40,0.1c4.1,0.6,8.2,1.4,12.3,2.4c6.4,1.5,12.7,3.5,19.2,3.7c1.7,0.1,3.5,0,5.1-0.4c1.7-0.4,3.3-1.1,4.6-2.1
						c2-1.6,3.3-4,3.8-6.5c0.5-2.5,0.2-5.1-0.6-7.6c-1.5-4.9-4.6-9.1-7.3-13.5c-1-1.8-2-3.5-3-5.3c7.9-8.9,14.3-19.1,17.9-30.4
						c4-12.3,4.8-25.6,3.1-38.4s-5.8-25.3-11.1-37.1c-6.7-14.8-12.4-20.1-16.5-33.1c-4.4-14-0.8-30.6-4.1-43.3
						c-1.2-4.3-3-8.5-5.4-12.2c-2.8-4.4-6.4-8.4-10.6-11.5C144.1,2.6,135.6,0,126.9,0L126.9,0z"/>
				</defs>
				<clipPath id="SVGID_00000178911784092200913180000013394884188240351381_">
					<use xlink:href="#SVGID_00000052790397491585714050000008770292175371835312_"  style="overflow:visible;"/>
				</clipPath>
				
					<g id="belly_shadow_lower" style="opacity:0.11;clip-path:url(#SVGID_00000178911784092200913180000013394884188240351381_);filter:url(#blur_belly_shadow_lower);enable-background:new    ;">
					<path d="M109.8,137.1c-1.1,4-1.8,8.1-2.2,12.3c-0.6,5.9-0.4,11.8-0.7,17.7c-0.3,5-0.8,10,0,15c0.4,2.4,1.2,4.6,2.2,6.8
						c0.2-0.8,0.3-1.6,0.4-2.5c0.4-4-0.3-8-0.5-12c-0.4-7,0.6-14,1-21.1C110.3,147.9,110.2,142.5,109.8,137.1z"/>
				</g>
			</g>
		</g>
		<g id="body_glare">
			<g>
				<defs>
					<path id="SVGID_00000053522731385567785110000005349215636574886833_" d="M126.9,0c-6,0-12,1.2-17.5,4.1
						c-5.8,3.1-10.5,8.1-13.4,14C93.1,24,92,30.3,91.8,37.2c-0.3,13.1,0.3,26.9,1.3,39.4c0.3,3.8,0.7,6,0.2,9.9
						c-1.6,8.3-8.9,13.9-12.8,21.2c-4.3,8-6.1,17.1-9.3,25.7c-3,7.8-7.1,15.1-9.9,22.9c-3.9,11-5.1,23-2.5,34.4
						c2,8.7,6.1,16.8,11.6,23.7c-0.8,1.4-1.6,2.9-2.4,4.3c-2.6,4.4-5.7,8.6-7.2,13.6c-0.7,2.4-1,5.1-0.5,7.6
						c0.5,2.5,1.8,4.9,3.8,6.5c1.3,1,2.9,1.7,4.5,2.1c1.6,0.4,3.3,0.5,5,0.4c6.4-0.1,12.6-2.1,18.7-3.7c3.7-1,7.3-1.8,11-2.6
						c13.1-2.7,27.8-1.6,40,0.1c4.1,0.6,8.2,1.4,12.3,2.4c6.4,1.5,12.7,3.5,19.2,3.7c1.7,0.1,3.5,0,5.1-0.4c1.7-0.4,3.3-1.1,4.6-2.1
						c2-1.6,3.3-4,3.8-6.5c0.5-2.5,0.2-5.1-0.6-7.6c-1.5-4.9-4.6-9.1-7.3-13.5c-1-1.8-2-3.5-3-5.3c7.9-8.9,14.3-19.1,17.9-30.4
						c4-12.3,4.8-25.6,3.1-38.4s-5.8-25.3-11.1-37.1c-6.7-14.8-12.4-20.1-16.5-33.1c-4.4-14-0.8-30.6-4.1-43.3
						c-1.2-4.3-3-8.5-5.4-12.2c-2.8-4.4-6.4-8.4-10.6-11.5C144.1,2.6,135.6,0,126.9,0L126.9,0z"/>
				</defs>
				<clipPath id="SVGID_00000036236852360025920770000003758458681219002513_">
					<use xlink:href="#SVGID_00000053522731385567785110000005349215636574886833_"  style="overflow:visible;"/>
				</clipPath>
				
					<g id="belly_glare" style="opacity:0.75;clip-path:url(#SVGID_00000036236852360025920770000003758458681219002513_);filter:url(#blur_belly_glare);enable-background:new    ;">
					<path class="st10" d="M180.1,131.2c1-0.2,7.3,5.2,6.5,7.2c-0.9,2-2.5,0.8-3.6,0.8c-1.2,0-4.3,1.5-4.9,0.6
						c-0.5-0.9,1.4-3,2.4-4.8C181.3,133.6,179.1,131.4,180.1,131.2L180.1,131.2z"/>
				</g>
			</g>
			<g>
				<defs>
					<path id="SVGID_00000146497879513584566060000008863653006586847412_" d="M126.9,0c-6,0-12,1.2-17.5,4.1
						c-5.8,3.1-10.5,8.1-13.4,14C93.1,24,92,30.3,91.8,37.2c-0.3,13.1,0.3,26.9,1.3,39.4c0.3,3.8,0.7,6,0.2,9.9
						c-1.6,8.3-8.9,13.9-12.8,21.2c-4.3,8-6.1,17.1-9.3,25.7c-3,7.8-7.1,15.1-9.9,22.9c-3.9,11-5.1,23-2.5,34.4
						c2,8.7,6.1,16.8,11.6,23.7c-0.8,1.4-1.6,2.9-2.4,4.3c-2.6,4.4-5.7,8.6-7.2,13.6c-0.7,2.4-1,5.1-0.5,7.6
						c0.5,2.5,1.8,4.9,3.8,6.5c1.3,1,2.9,1.7,4.5,2.1c1.6,0.4,3.3,0.5,5,0.4c6.4-0.1,12.6-2.1,18.7-3.7c3.7-1,7.3-1.8,11-2.6
						c13.1-2.7,27.8-1.6,40,0.1c4.1,0.6,8.2,1.4,12.3,2.4c6.4,1.5,12.7,3.5,19.2,3.7c1.7,0.1,3.5,0,5.1-0.4c1.7-0.4,3.3-1.1,4.6-2.1
						c2-1.6,3.3-4,3.8-6.5c0.5-2.5,0.2-5.1-0.6-7.6c-1.5-4.9-4.6-9.1-7.3-13.5c-1-1.8-2-3.5-3-5.3c7.9-8.9,14.3-19.1,17.9-30.4
						c4-12.3,4.8-25.6,3.1-38.4s-5.8-25.3-11.1-37.1c-6.7-14.8-12.4-20.1-16.5-33.1c-4.4-14-0.8-30.6-4.1-43.3
						c-1.2-4.3-3-8.5-5.4-12.2c-2.8-4.4-6.4-8.4-10.6-11.5C144.1,2.6,135.6,0,126.9,0L126.9,0z"/>
				</defs>
				<clipPath id="SVGID_00000123401065900249569840000014466177810319271331_">
					<use xlink:href="#SVGID_00000146497879513584566060000008863653006586847412_"  style="overflow:visible;"/>
				</clipPath>
				
					<g id="head_glare" style="clip-path:url(#SVGID_00000123401065900249569840000014466177810319271331_);filter:url(#blur_head_glare);">
					<path class="st10" d="M141.5,11.1c-2.2,1.6-1.2,3.5-0.3,5.5c0.9,2-2.1,7.6-2.1,7.8c0,0.2,6-2.9,7.6-4.9
						c1.9-2.4,6.8,3.2,6.6,2.4C153.3,20.4,143.7,9.6,141.5,11.1z"/>
				</g>
			</g>
			<g>
				<defs>
					<path id="SVGID_00000118376234263392224770000013694159495644358589_" d="M126.9,0c-6,0-12,1.2-17.5,4.1
						c-5.8,3.1-10.5,8.1-13.4,14C93.1,24,92,30.3,91.8,37.2c-0.3,13.1,0.3,26.9,1.3,39.4c0.3,3.8,0.7,6,0.2,9.9
						c-1.6,8.3-8.9,13.9-12.8,21.2c-4.3,8-6.1,17.1-9.3,25.7c-3,7.8-7.1,15.1-9.9,22.9c-3.9,11-5.1,23-2.5,34.4
						c2,8.7,6.1,16.8,11.6,23.7c-0.8,1.4-1.6,2.9-2.4,4.3c-2.6,4.4-5.7,8.6-7.2,13.6c-0.7,2.4-1,5.1-0.5,7.6
						c0.5,2.5,1.8,4.9,3.8,6.5c1.3,1,2.9,1.7,4.5,2.1c1.6,0.4,3.3,0.5,5,0.4c6.4-0.1,12.6-2.1,18.7-3.7c3.7-1,7.3-1.8,11-2.6
						c13.1-2.7,27.8-1.6,40,0.1c4.1,0.6,8.2,1.4,12.3,2.4c6.4,1.5,12.7,3.5,19.2,3.7c1.7,0.1,3.5,0,5.1-0.4c1.7-0.4,3.3-1.1,4.6-2.1
						c2-1.6,3.3-4,3.8-6.5c0.5-2.5,0.2-5.1-0.6-7.6c-1.5-4.9-4.6-9.1-7.3-13.5c-1-1.8-2-3.5-3-5.3c7.9-8.9,14.3-19.1,17.9-30.4
						c4-12.3,4.8-25.6,3.1-38.4s-5.8-25.3-11.1-37.1c-6.7-14.8-12.4-20.1-16.5-33.1c-4.4-14-0.8-30.6-4.1-43.3
						c-1.2-4.3-3-8.5-5.4-12.2c-2.8-4.4-6.4-8.4-10.6-11.5C144.1,2.6,135.6,0,126.9,0L126.9,0z"/>
				</defs>
				<clipPath id="SVGID_00000095310422614689023860000017286145417938843577_">
					<use xlink:href="#SVGID_00000118376234263392224770000013694159495644358589_"  style="overflow:visible;"/>
				</clipPath>
				
					<g id="neck_glare" style="clip-path:url(#SVGID_00000095310422614689023860000017286145417938843577_);filter:url(#blur_neck_glare);">
					<path class="st13" d="M158.3,76.6c-1.9,1.7,0.9,4.2,2.2,7.2c0.8,1.9,3,4.5,5.2,4.1c1.6-0.3,2.6-2.7,2.5-4.3
						c-0.3-3.2-3-3.9-4.9-5C161.6,77.8,159.6,75.4,158.3,76.6z"/>
				</g>
			</g>
		</g>
	</g>
	<g id="wings">
		<g id="wing_left">
			<path id="wing_left_base" class="st0" d="M84,100.9c-6.1,6.9-12.4,13.6-15.8,21.1c-1.7,3.8-2.5,7.9-3.7,11.9
				c-1.3,4.5-3.1,8.9-5.1,13.2c-1.9,3.9-3.9,7.8-6,11.7c-1.5,2.8-3,5.7-3.5,8.8c-0.4,2.5-0.2,5,0.5,7.5c0.6,2.4,1.6,4.8,2.8,7
				c4.9,9.6,12.2,17.8,20.9,24.1c3.9,2.9,8.2,5.3,12.6,7.4c2.4,1.1,4.9,2.1,7.6,2.1c1.3,0,2.7-0.2,3.9-0.7c1.2-0.5,2.3-1.4,3-2.5
				c0.9-1.4,1.2-3.1,1-4.7s-0.8-3.1-1.7-4.5c-2.1-3.4-5.3-5.8-8.4-8.2c-6.8-5.2-13.3-10.8-19.6-16.6c-1.8-1.6-3.5-3.3-4.8-5.4
				c-1.2-2-1.8-4.3-2.3-6.6c-1.2-6.3-0.9-13,1.2-19.1c0.8-2.4,2-4.6,3-6.9c1.9-3.9,3.6-8,6.1-11.6c3-4.5,7.1-8.3,9.6-13.2
				c2.1-4.1,2.9-8.7,3.8-13.2c0.6-3.5,1.8-7,2.5-10.5C90.3,94.1,86.4,97.9,84,100.9z"/>
			<g>
				<defs>
					<path id="SVGID_00000085226280599880344800000003318117773198638231_" d="M84,100.9c-6.1,6.9-12.4,13.6-15.8,21.1
						c-1.7,3.8-2.5,7.9-3.7,11.9c-1.3,4.5-3.1,8.9-5.1,13.2c-1.9,3.9-3.9,7.8-6,11.7c-1.5,2.8-3,5.7-3.5,8.8c-0.4,2.5-0.2,5,0.5,7.5
						c0.6,2.4,1.6,4.8,2.8,7c4.9,9.6,12.2,17.8,20.9,24.1c3.9,2.9,8.2,5.3,12.6,7.4c2.4,1.1,4.9,2.1,7.6,2.1c1.3,0,2.7-0.2,3.9-0.7
						c1.2-0.5,2.3-1.4,3-2.5c0.9-1.4,1.2-3.1,1-4.7s-0.8-3.1-1.7-4.5c-2.1-3.4-5.3-5.8-8.4-8.2c-6.8-5.2-13.3-10.8-19.6-16.6
						c-1.8-1.6-3.5-3.3-4.8-5.4c-1.2-2-1.8-4.3-2.3-6.6c-1.2-6.3-0.9-13,1.2-19.1c0.8-2.4,2-4.6,3-6.9c1.9-3.9,3.6-8,6.1-11.6
						c3-4.5,7.1-8.3,9.6-13.2c2.1-4.1,2.9-8.7,3.8-13.2c0.6-3.5,1.8-7,2.5-10.5C90.3,94.1,86.4,97.9,84,100.9z"/>
				</defs>
				<clipPath id="SVGID_00000160148825232929379580000018183821285034287240_">
					<use xlink:href="#SVGID_00000085226280599880344800000003318117773198638231_"  style="overflow:visible;"/>
				</clipPath>
				
					<g id="wing_left_glare" style="opacity:0.95;clip-path:url(#SVGID_00000160148825232929379580000018183821285034287240_);filter:url(#blur_wing_left_glare);enable-background:new    ;">
					<path class="st10" d="M77,126.1c-2,1.8-3.7,4-5.1,6.3c-2.3,3.8-3.7,8.2-5.3,12.3c-1.2,3.1-2.7,6.2-2.9,9.5
						c-0.1,1.7,0.2,3.4,0.2,5.1s-0.1,3.5-0.9,5c-0.7,1.2-1.9,2.2-3.2,2.7c1.8,0.6,3.5,1.8,4.6,3.3c1,1.3,1.6,2.8,2.4,4.2
						c0.7,1.1,1.5,2.2,2.5,3c1,0.8,2.2,1.4,3.5,1.6c1.8,0.2,3.7-0.4,5-1.6c-1.7-15.6-0.1-31.4,4.4-46.4c0.3-0.9,0.6-1.9,0.7-2.9
						c0.1-1-0.1-2-0.7-2.8c-0.3-0.4-0.7-0.8-1.2-1c-0.5-0.2-1-0.3-1.5-0.2c-0.5,0.1-1,0.3-1.5,0.6C77.5,125.2,77.2,125.6,77,126.1
						L77,126.1z"/>
				</g>
			</g>
		</g>
		<g id="wing_right">
			<path id="wing_right_base" class="st0" d="M182.8,127.1c5.2,4.2,8.6,10.6,9.6,17.2c0.8,5.2,0.3,10.5-0.9,15.6
				c-1.2,5.1-3,10.1-4.8,15c-0.7,2-1.4,3.9-1.7,6c-0.3,2.1-0.1,4.3,0.9,6.1c1.1,2.1,3.3,3.6,5.6,4.2c2.3,0.7,4.7,0.7,7,0.1
				s6.2-1.3,8-2.8c4.8-3.7,5.9-10.1,7-15.7c1.2-5.9,0.6-12-0.4-17.9c-1.4-8.1-3.8-16-6.8-23.6c-2.2-5.6-5.1-11-8.4-16
				c-3.3-4.9-8-8.7-11.5-13.5c-1.2-1.7-2.7-3.4-3.8-5.1c-2.6-3.6-2-2.9-3.6-5.3c-1.1-1.7-3-2.3-4.9-3c-1.9-0.7-4.1-1-6-0.4
				c-2.6,0.7-4.7,2.8-5.9,5.2c-1.1,2.5-1.3,5.3-0.9,7.9c0.6,3.4,2.1,6.6,3.9,9.6c2,3.4,4.3,6.7,7.4,9.2
				C175.7,122.8,179.5,124.5,182.8,127.1z"/>
			<g>
				<defs>
					<path id="SVGID_00000064335622252166937590000007124424872438834852_" d="M182.8,127.1c5.2,4.2,8.6,10.6,9.6,17.2
						c0.8,5.2,0.3,10.5-0.9,15.6c-1.2,5.1-3,10.1-4.8,15c-0.7,2-1.4,3.9-1.7,6c-0.3,2.1-0.1,4.3,0.9,6.1c1.1,2.1,3.3,3.6,5.6,4.2
						c2.3,0.7,4.7,0.7,7,0.1s6.2-1.3,8-2.8c4.8-3.7,5.9-10.1,7-15.7c1.2-5.9,0.6-12-0.4-17.9c-1.4-8.1-3.8-16-6.8-23.6
						c-2.2-5.6-5.1-11-8.4-16c-3.3-4.9-8-8.7-11.5-13.5c-1.2-1.7-2.7-3.4-3.8-5.1c-2.6-3.6-2-2.9-3.6-5.3c-1.1-1.7-3-2.3-4.9-3
						c-1.9-0.7-4.1-1-6-0.4c-2.6,0.7-4.7,2.8-5.9,5.2c-1.1,2.5-1.3,5.3-0.9,7.9c0.6,3.4,2.1,6.6,3.9,9.6c2,3.4,4.3,6.7,7.4,9.2
						C175.7,122.8,179.5,124.5,182.8,127.1z"/>
				</defs>
				<clipPath id="SVGID_00000183211895471923423130000010121120335260572050_">
					<use xlink:href="#SVGID_00000064335622252166937590000007124424872438834852_"  style="overflow:visible;"/>
				</clipPath>
				
					<g id="wing_right_glare" style="clip-path:url(#SVGID_00000183211895471923423130000010121120335260572050_);filter:url(#blur_wing_right_glare);">
					<path class="st13" d="M170.4,119c0.4,0.4,0.9,0.8,1.3,1.2c3.2,2.6,4.9,5.6,8.2,8.2c5.3,4.2,10.8,11.5,11.8,18.1
						c0.8,5.2-0.3,8-1.6,14.1c-1.3,6.1-5.1,14.8-7.1,20.7c-0.8,2.4,1.6,1.4,1.3,3.9c-0.2,1.2-0.2,2.4,0,3.7c0-0.2,0-0.5,0.1-0.7
						c0.4-3.4,1.4-6.6,2.6-9.8c2.2-6.1,4.7-12.1,6.4-18.4c1.7-6.3,1.5-10.8,0.6-16.2c-1.1-6.8-5.1-13.1-10.7-17.2
						C179.3,123.4,174.6,121.6,170.4,119L170.4,119z"/>
				</g>
			</g>
		</g>
	</g>
	<g id="feet">
		<g id="foot_left">
			
				<linearGradient id="foot_left_base_00000029762950986079519510000017835888797086259362_" gradientUnits="userSpaceOnUse" x1="38.6493" y1="62.2897" x2="79.7793" y2="-6.7203" gradientTransform="matrix(1 0 0 -1 0 258.0001)">
				<stop  offset="0" style="stop-color:#B98309"/>
				<stop  offset="1" style="stop-color:#382605"/>
			</linearGradient>
			<path id="foot_left_base" style="fill:url(#foot_left_base_00000029762950986079519510000017835888797086259362_);" d="M55,175.3
				c1.4-0.6,2.9-0.7,4.4-0.4c1.5,0.3,2.9,0.9,4.1,1.7c2.5,1.7,4.3,4.1,6,6.5c4,5.5,7.9,11.2,11.4,17.1c2.8,4.8,5.5,9.7,8.8,14.2
				c2.2,2.9,4.6,5.6,6.7,8.6c2.2,2.9,4.1,6.1,5,9.6c1.2,4.6,0.8,9.6-1.4,13.8c-1.5,2.9-3.9,5.5-6.7,7.2s-5.8,2.5-9.2,2.5
				c-5.3,0-10.4-2.8-15.3-4.8c-10-4-20.8-5.2-31.1-8.3c-3.2-0.9-6.3-2.1-9.4-2.9c-1.4-0.4-2.8-0.7-4.2-1.3c-1.3-0.6-2.6-1.5-3.3-2.8
				c-0.6-1-0.8-2.1-0.8-3.3c0-1.1,0.3-2.3,0.7-3.3c0.8-2.1,2-4.1,2.9-6.2c1.4-3.4,1.6-7.2,1.4-10.9c-0.2-3.7-0.8-7.4-1-11.1
				c-0.1-1.6-0.2-3.3,0.2-4.9c0.3-1.6,1-3.2,2.2-4.4c1.1-1.1,2.5-1.7,4-2c1.5-0.3,3-0.3,4.6-0.3c1.5,0,3,0.1,4.6,0
				c1.5-0.1,3-0.5,4.4-1.2c1.3-0.7,2.3-1.8,3.1-3c0.9-1.2,1.5-2.4,2.2-3.7c0.7-1.3,1.4-2.5,2.4-3.6C52.5,176.9,53.6,175.9,55,175.3z
				"/>
			<g>
				<defs>
					<path id="SVGID_00000111192875834044905310000002956350154046770861_" d="M55,175.3c1.4-0.6,2.9-0.7,4.4-0.4
						c1.5,0.3,2.9,0.9,4.1,1.7c2.5,1.7,4.3,4.1,6,6.5c4,5.5,7.9,11.2,11.4,17.1c2.8,4.8,5.5,9.7,8.8,14.2c2.2,2.9,4.6,5.6,6.7,8.6
						c2.2,2.9,4.1,6.1,5,9.6c1.2,4.6,0.8,9.6-1.4,13.8c-1.5,2.9-3.9,5.5-6.7,7.2s-5.8,2.5-9.2,2.5c-5.3,0-10.4-2.8-15.3-4.8
						c-10-4-20.8-5.2-31.1-8.3c-3.2-0.9-6.3-2.1-9.4-2.9c-1.4-0.4-2.8-0.7-4.2-1.3c-1.3-0.6-2.6-1.5-3.3-2.8c-0.6-1-0.8-2.1-0.8-3.3
						c0-1.1,0.3-2.3,0.7-3.3c0.8-2.1,2-4.1,2.9-6.2c1.4-3.4,1.6-7.2,1.4-10.9c-0.2-3.7-0.8-7.4-1-11.1c-0.1-1.6-0.2-3.3,0.2-4.9
						c0.3-1.6,1-3.2,2.2-4.4c1.1-1.1,2.5-1.7,4-2c1.5-0.3,3-0.3,4.6-0.3c1.5,0,3,0.1,4.6,0c1.5-0.1,3-0.5,4.4-1.2
						c1.3-0.7,2.3-1.8,3.1-3c0.9-1.2,1.5-2.4,2.2-3.7c0.7-1.3,1.4-2.5,2.4-3.6C52.5,176.9,53.6,175.9,55,175.3z"/>
				</defs>
				<clipPath id="SVGID_00000161601442864147164640000002279845428954267544_">
					<use xlink:href="#SVGID_00000111192875834044905310000002956350154046770861_"  style="overflow:visible;"/>
				</clipPath>
				
					<g id="foot_left_layer_1" style="clip-path:url(#SVGID_00000161601442864147164640000002279845428954267544_);filter:url(#blur_foot_left_layer_1);">
					<path class="st18" d="M57.2,177.7c1.2-0.5,2.7-0.6,4-0.3c1.3,0.3,2.5,0.9,3.6,1.8c2.1,1.6,3.6,4,5,6.3
						c3.4,5.5,6.8,11.1,9.9,16.9c2.4,4.3,4.7,8.7,7.6,12.6c1.9,2.6,4.2,5,6.2,7.6s3.8,5.4,4.6,8.6c1.1,4.1,0.7,8.5-1.3,12.3
						c-1.4,2.7-3.6,5-6.2,6.5c-2.6,1.5-5.7,2.3-8.7,2.1c-4.8-0.2-9.2-2.6-13.8-4.3c-8.7-3.2-18.1-3.6-27.1-6.1
						c-3.2-0.9-6.3-2-9.5-2.8c-1.4-0.4-2.9-0.7-4.2-1.2c-1.4-0.6-2.6-1.4-3.4-2.7c-0.5-0.9-0.8-2.1-0.7-3.1c0-1.1,0.3-2.2,0.7-3.2
						c0.8-2,2-3.9,2.8-5.9c1.2-3.1,1.3-6.5,1.1-9.8s-0.8-6.6-1-9.9c-0.1-1.5-0.1-3,0.2-4.4c0.3-1.4,0.9-2.9,2-3.9
						c1.1-1.1,2.7-1.7,4.3-2c1.6-0.2,3.2-0.1,4.8,0c1.6,0.1,3.2,0.3,4.8,0.2c1.6-0.1,3.2-0.5,4.5-1.4c1.2-0.8,2.1-2,2.8-3.3
						c0.7-1.3,1.2-2.6,1.7-4c0.5-1.4,1.1-2.7,1.9-3.9C54.7,179.3,55.8,178.2,57.2,177.7L57.2,177.7z"/>
				</g>
			</g>
			<g>
				<defs>
					<path id="SVGID_00000157304662655878194450000012537941383414440883_" d="M55,175.3c1.4-0.6,2.9-0.7,4.4-0.4
						c1.5,0.3,2.9,0.9,4.1,1.7c2.5,1.7,4.3,4.1,6,6.5c4,5.5,7.9,11.2,11.4,17.1c2.8,4.8,5.5,9.7,8.8,14.2c2.2,2.9,4.6,5.6,6.7,8.6
						c2.2,2.9,4.1,6.1,5,9.6c1.2,4.6,0.8,9.6-1.4,13.8c-1.5,2.9-3.9,5.5-6.7,7.2s-5.8,2.5-9.2,2.5c-5.3,0-10.4-2.8-15.3-4.8
						c-10-4-20.8-5.2-31.1-8.3c-3.2-0.9-6.3-2.1-9.4-2.9c-1.4-0.4-2.8-0.7-4.2-1.3c-1.3-0.6-2.6-1.5-3.3-2.8c-0.6-1-0.8-2.1-0.8-3.3
						c0-1.1,0.3-2.3,0.7-3.3c0.8-2.1,2-4.1,2.9-6.2c1.4-3.4,1.6-7.2,1.4-10.9c-0.2-3.7-0.8-7.4-1-11.1c-0.1-1.6-0.2-3.3,0.2-4.9
						c0.3-1.6,1-3.2,2.2-4.4c1.1-1.1,2.5-1.7,4-2c1.5-0.3,3-0.3,4.6-0.3c1.5,0,3,0.1,4.6,0c1.5-0.1,3-0.5,4.4-1.2
						c1.3-0.7,2.3-1.8,3.1-3c0.9-1.2,1.5-2.4,2.2-3.7c0.7-1.3,1.4-2.5,2.4-3.6C52.5,176.9,53.6,175.9,55,175.3z"/>
				</defs>
				<clipPath id="SVGID_00000100359759458497703750000015679564830893609662_">
					<use xlink:href="#SVGID_00000157304662655878194450000012537941383414440883_"  style="overflow:visible;"/>
				</clipPath>
				
					<g id="foot_left_layer_2" style="clip-path:url(#SVGID_00000100359759458497703750000015679564830893609662_);filter:url(#blur_foot_left_layer_2);">
					<path class="st20" d="M56,174.6c1.2-0.6,2.7-0.7,4-0.4c1.3,0.3,2.6,0.9,3.6,1.8c2.1,1.7,3.4,4.1,4.7,6.5
						c2.8,5.5,5.5,11,8.9,16.2c2.5,3.7,5.3,7.2,7.8,10.9c3.4,5,6.2,10.6,7.3,16.5c0.8,4,0.7,8.3-1.2,11.9c-1.3,2.4-3.3,4.3-5.8,5.5
						c-2.4,1.2-5.2,1.7-7.9,1.5c-4.3-0.4-8.1-2.5-12.2-3.9c-7.1-2.6-14.8-3.2-22.2-5.2c-3.1-0.8-6.1-1.9-9.3-2.5
						c-1.4-0.3-2.8-0.5-4.1-1s-2.6-1.3-3.2-2.6c-0.5-0.9-0.6-1.9-0.6-2.8c0.1-1,0.4-1.9,0.7-2.8c0.8-1.8,1.9-3.5,2.5-5.3
						c0.9-2.8,0.5-5.7-0.1-8.5c-0.6-2.8-1.6-5.6-1.9-8.4c-0.1-1.3-0.1-2.6,0.2-3.8c0.3-1.2,0.9-2.4,1.8-3.3c1.2-1.1,2.9-1.7,4.6-1.9
						c1.7-0.2,3.4,0.1,5,0.3s3.3,0.5,5,0.4c1.7-0.1,3.4-0.5,4.7-1.5c1.3-1,2.1-2.5,2.6-4.1c0.5-1.6,0.6-3.2,0.8-4.8
						c0.2-1.6,0.4-3.3,1.1-4.8C53.4,176.7,54.5,175.3,56,174.6z"/>
				</g>
			</g>
			<g>
				<defs>
					<path id="SVGID_00000045585843204897128650000004797335377652426163_" d="M55,175.3c1.4-0.6,2.9-0.7,4.4-0.4
						c1.5,0.3,2.9,0.9,4.1,1.7c2.5,1.7,4.3,4.1,6,6.5c4,5.5,7.9,11.2,11.4,17.1c2.8,4.8,5.5,9.7,8.8,14.2c2.2,2.9,4.6,5.6,6.7,8.6
						c2.2,2.9,4.1,6.1,5,9.6c1.2,4.6,0.8,9.6-1.4,13.8c-1.5,2.9-3.9,5.5-6.7,7.2s-5.8,2.5-9.2,2.5c-5.3,0-10.4-2.8-15.3-4.8
						c-10-4-20.8-5.2-31.1-8.3c-3.2-0.9-6.3-2.1-9.4-2.9c-1.4-0.4-2.8-0.7-4.2-1.3c-1.3-0.6-2.6-1.5-3.3-2.8c-0.6-1-0.8-2.1-0.8-3.3
						c0-1.1,0.3-2.3,0.7-3.3c0.8-2.1,2-4.1,2.9-6.2c1.4-3.4,1.6-7.2,1.4-10.9c-0.2-3.7-0.8-7.4-1-11.1c-0.1-1.6-0.2-3.3,0.2-4.9
						c0.3-1.6,1-3.2,2.2-4.4c1.1-1.1,2.5-1.7,4-2c1.5-0.3,3-0.3,4.6-0.3c1.5,0,3,0.1,4.6,0c1.5-0.1,3-0.5,4.4-1.2
						c1.3-0.7,2.3-1.8,3.1-3c0.9-1.2,1.5-2.4,2.2-3.7c0.7-1.3,1.4-2.5,2.4-3.6C52.5,176.9,53.6,175.9,55,175.3z"/>
				</defs>
				<clipPath id="SVGID_00000181051299040672576570000004910161454757823652_">
					<use xlink:href="#SVGID_00000045585843204897128650000004797335377652426163_"  style="overflow:visible;"/>
				</clipPath>
				
					<g id="foot_left_glare" style="clip-path:url(#SVGID_00000181051299040672576570000004910161454757823652_);filter:url(#blur_foot_left_glare);">
					
						<linearGradient id="SVGID_00000088131386523555132830000011189201891128760967_" gradientUnits="userSpaceOnUse" x1="84.211" y1="47.0326" x2="97.151" y2="22.6526" gradientTransform="matrix(1 0 0 -1 0 258.0001)">
						<stop  offset="0" style="stop-color:#EBC40C"/>
						<stop  offset="1" style="stop-color:#EBC40C;stop-opacity:0"/>
					</linearGradient>
					<path style="fill:url(#SVGID_00000088131386523555132830000011189201891128760967_);" d="M71.2,188.2c2.2,4.1,3.6,8.7,5.8,12.8
						c2.1,3.8,4.4,7.6,6.5,11.1c0.9,1.6,3.1,3.9,5.3,7.6c2,3.3,4,8,5.1,9.6c-0.6-1.8-2-6.8-3.5-10.3c-1.5-3.3-3.2-5.1-4.2-6.9
						c-2.1-3.5-4.3-6.6-6.5-9.9C76.7,197.7,74.4,192.6,71.2,188.2L71.2,188.2z"/>
				</g>
			</g>
		</g>
		<g id="foot_right">
			<g>
				<defs>
					<path id="SVGID_00000062914330645347031130000015540644805537807797_" d="M126.9,0c-6,0-12,1.2-17.5,4.1
						c-5.8,3.1-10.5,8.1-13.4,14C93.1,24,92,30.3,91.8,37.2c-0.3,13.1,0.3,26.9,1.3,39.4c0.3,3.8,0.7,6,0.2,9.9
						c-1.6,8.3-8.9,13.9-12.8,21.2c-4.3,8-6.1,17.1-9.3,25.7c-3,7.8-7.1,15.1-9.9,22.9c-3.9,11-5.1,23-2.5,34.4
						c2,8.7,6.1,16.8,11.6,23.7c-0.8,1.4-1.6,2.9-2.4,4.3c-2.6,4.4-5.7,8.6-7.2,13.6c-0.7,2.4-1,5.1-0.5,7.6
						c0.5,2.5,1.8,4.9,3.8,6.5c1.3,1,2.9,1.7,4.5,2.1c1.6,0.4,3.3,0.5,5,0.4c6.4-0.1,12.6-2.1,18.7-3.7c3.7-1,7.3-1.8,11-2.6
						c13.1-2.7,27.8-1.6,40,0.1c4.1,0.6,8.2,1.4,12.3,2.4c6.4,1.5,12.7,3.5,19.2,3.7c1.7,0.1,3.5,0,5.1-0.4c1.7-0.4,3.3-1.1,4.6-2.1
						c2-1.6,3.3-4,3.8-6.5c0.5-2.5,0.2-5.1-0.6-7.6c-1.5-4.9-4.6-9.1-7.3-13.5c-1-1.8-2-3.5-3-5.3c7.9-8.9,14.3-19.1,17.9-30.4
						c4-12.3,4.8-25.6,3.1-38.4s-5.8-25.3-11.1-37.1c-6.7-14.8-12.4-20.1-16.5-33.1c-4.4-14-0.8-30.6-4.1-43.3
						c-1.2-4.3-3-8.5-5.4-12.2c-2.8-4.4-6.4-8.4-10.6-11.5C144.1,2.6,135.6,0,126.9,0L126.9,0z"/>
				</defs>
				<clipPath id="SVGID_00000170261764850501827910000002545245190432215189_">
					<use xlink:href="#SVGID_00000062914330645347031130000015540644805537807797_"  style="overflow:visible;"/>
				</clipPath>
				
					<g id="foot_right_shadow" style="opacity:0.2;clip-path:url(#SVGID_00000170261764850501827910000002545245190432215189_);filter:url(#blur_foot_right_shadow);enable-background:new    ;">
					
						<linearGradient id="SVGID_00000008831670852074690800000012311341756239790004_" gradientUnits="userSpaceOnUse" x1="185.2608" y1="48.5618" x2="188.5308" y2="24.7918" gradientTransform="matrix(1 0 0 -1 0 258.0001)">
						<stop  offset="0" style="stop-color:#000000"/>
						<stop  offset="1" style="stop-color:#000000;stop-opacity:0"/>
					</linearGradient>
					<path style="fill:url(#SVGID_00000008831670852074690800000012311341756239790004_);" d="M218.7,215.6c-0.4,1.3-1,2.6-1.8,3.8
						c-1.8,2.6-4.3,4.6-6.8,6.4c-4.3,3.1-8.9,5.9-12.9,9.4c-2.7,2.3-5.2,5-7.4,7.7c-1.9,2.4-3.8,4.8-6,6.9c-2.2,2.1-4.9,3.8-7.7,4.8
						c-3.5,1.1-7.1,1.1-10.5,0.2c-2.3-0.6-4.6-1.6-6.1-3.5s-1.9-4.4-2.1-6.9c-0.3-4.4,0.2-8.9,0.7-13.4c0.4-3.7,0.8-7.5,0.9-11.2
						c0.3-6.8-0.2-13.5-1.1-20.1c-0.2-1.1-0.3-2.2-0.2-3.4c0.1-1.1,0.5-2.3,1.3-3.2c0.7-0.8,1.8-1.3,2.8-1.5c1-0.2,2.1-0.2,3.1-0.3
						c2.4-0.1,4.9-0.2,7.2,0c1.5,0.1,3,0.4,4.5,0.6c2.5,0.2,5.1,0.1,7.6-0.6c2.7-0.8,5.3-2.3,8.1-2.7c1.1-0.2,2.3-0.1,3.4,0
						c1.1,0.1,2.2,0.5,3.1,1.1c0.7,0.5,1.1,1.2,1.5,2c0.6,1.1,0.9,2.4,1.1,3.7c0.2,1.1,0.2,2.3,0.5,3.4c0.5,1.8,1.6,3.4,2.9,4.6
						c1.3,1.2,2.9,2.2,4.4,3.2c1.5,1,3.1,1.9,4.7,2.7c0.8,0.4,1.6,0.7,2.3,1.1c0.7,0.4,1.4,1,1.9,1.7
						C218.6,213.1,218.9,214.4,218.7,215.6L218.7,215.6z"/>
				</g>
			</g>
			
				<linearGradient id="foot_right_base_00000013905132327174503790000016984279486348876978_" gradientUnits="userSpaceOnUse" x1="169.4618" y1="6.2373" x2="210.9018" y2="73.4173" gradientTransform="matrix(1 0 0 -1 0 258.0001)">
				<stop  offset="0" style="stop-color:#3E2A06"/>
				<stop  offset="1" style="stop-color:#AD780A"/>
			</linearGradient>
			<path id="foot_right_base" style="fill:url(#foot_right_base_00000013905132327174503790000016984279486348876978_);" d="
				M233.5,222.9c-2.3,2.7-5.4,4.4-8.5,6.1c-5.3,2.7-10.9,5.1-15.9,8.4c-3.4,2.2-6.5,4.8-9.4,7.5c-2.5,2.4-4.8,4.9-7.6,6.9
				c-2.8,2-6.1,3.5-9.5,4c-0.9,0.1-1.9,0.2-2.9,0.2c-3.2,0-6.5-0.8-9.5-2.1c-2.7-1.2-5.3-2.9-6.9-5.4c-1.6-2.5-1.9-5.6-1.9-8.6
				c0-5.2,1-10.4,1.9-15.6c0.8-4.3,1.5-8.6,1.9-12.9c0.9-7.9,0.8-15.8,0.3-23.7c-0.1-1.3-0.2-2.6,0-4c0.2-1.3,0.7-2.6,1.7-3.5
				c0.9-0.8,2.2-1.2,3.4-1.2c1.2-0.1,2.4,0.1,3.6,0.3c2.9,0.4,5.7,0.7,8.5,1.5c1.8,0.5,3.5,1.1,5.2,1.6c2.9,0.8,6,1.2,9,0.8
				c3.2-0.4,6.4-1.6,9.7-1.5c1.3,0,2.7,0.3,3.9,0.7c1.3,0.4,2.6,1,3.6,2c0.7,0.7,1.2,1.7,1.6,2.6c0.6,1.4,0.9,3,1,4.5
				c0.1,1.4,0.1,2.8,0.4,4.1c0.4,2.2,1.6,4.2,3,6c1.4,1.7,3.2,3.2,4.9,4.7c1.7,1.4,3.5,2.9,5.3,4.2c0.9,0.6,1.8,1.2,2.6,1.8
				c0.8,0.7,1.6,1.4,2.1,2.3c0.4,0.8,0.7,1.7,0.7,2.6c0,0.5-0.1,1-0.2,1.6C235.3,220.3,234.5,221.7,233.5,222.9L233.5,222.9z"/>
			<g>
				<defs>
					<path id="SVGID_00000135664115521004929940000000723520433999831486_" d="M233.5,222.9c-2.3,2.7-5.4,4.4-8.5,6.1
						c-5.3,2.7-10.9,5.1-15.9,8.4c-3.4,2.2-6.5,4.8-9.4,7.5c-2.5,2.4-4.8,4.9-7.6,6.9c-2.8,2-6.1,3.5-9.5,4
						c-0.9,0.1-1.9,0.2-2.9,0.2c-3.2,0-6.5-0.8-9.5-2.1c-2.7-1.2-5.3-2.9-6.9-5.4c-1.6-2.5-1.9-5.6-1.9-8.6c0-5.2,1-10.4,1.9-15.6
						c0.8-4.3,1.5-8.6,1.9-12.9c0.9-7.9,0.8-15.8,0.3-23.7c-0.1-1.3-0.2-2.6,0-4c0.2-1.3,0.7-2.6,1.7-3.5c0.9-0.8,2.2-1.2,3.4-1.2
						c1.2-0.1,2.4,0.1,3.6,0.3c2.9,0.4,5.7,0.7,8.5,1.5c1.8,0.5,3.5,1.1,5.2,1.6c2.9,0.8,6,1.2,9,0.8c3.2-0.4,6.4-1.6,9.7-1.5
						c1.3,0,2.7,0.3,3.9,0.7c1.3,0.4,2.6,1,3.6,2c0.7,0.7,1.2,1.7,1.6,2.6c0.6,1.4,0.9,3,1,4.5c0.1,1.4,0.1,2.8,0.4,4.1
						c0.4,2.2,1.6,4.2,3,6c1.4,1.7,3.2,3.2,4.9,4.7c1.7,1.4,3.5,2.9,5.3,4.2c0.9,0.6,1.8,1.2,2.6,1.8c0.8,0.7,1.6,1.4,2.1,2.3
						c0.4,0.8,0.7,1.7,0.7,2.6c0,0.5-0.1,1-0.2,1.6C235.3,220.3,234.5,221.7,233.5,222.9L233.5,222.9z"/>
				</defs>
				<clipPath id="SVGID_00000121988815130688709690000004332017355057348004_">
					<use xlink:href="#SVGID_00000135664115521004929940000000723520433999831486_"  style="overflow:visible;"/>
				</clipPath>
				
					<g id="foot_right_layer_1" style="clip-path:url(#SVGID_00000121988815130688709690000004332017355057348004_);filter:url(#blur_foot_right_layer_1);">
					<path class="st27" d="M233.2,216.1c-0.5,1.3-1.3,2.6-2.2,3.7c-2.1,2.4-4.9,4-7.8,5.4c-4.9,2.4-9.9,4.6-14.5,7.5
						c-3.1,2-5.9,4.3-8.6,6.8c-2.3,2.1-4.4,4.4-6.9,6.2c-2.6,1.8-5.5,3.1-8.6,3.6c-3.8,0.6-7.7-0.2-11.2-1.7
						c-2.5-1.1-4.8-2.6-6.3-4.8c-1.4-2.3-1.8-5-1.8-7.7c0-4.7,0.9-9.4,1.7-14c0.7-3.9,1.4-7.7,1.8-11.6c0.8-7.1,0.7-14.2,0.2-21.3
						c-0.1-1.2-0.2-2.4,0-3.6c0.2-1.2,0.7-2.4,1.6-3.1c0.9-0.7,2-1.1,3.1-1.1c1.1-0.1,2.2,0.1,3.3,0.3c2.6,0.4,5.2,0.7,7.8,1.3
						c1.6,0.4,3.2,1,4.8,1.4c2.7,0.7,5.5,1.1,8.2,0.7c3-0.3,5.9-1.4,8.8-1.4c1.2,0,2.4,0.3,3.6,0.6c1.2,0.4,2.4,0.9,3.2,1.8
						c0.7,0.7,1.1,1.5,1.5,2.4c0.5,1.3,0.9,2.7,0.9,4.1c0,1.5-0.3,2.9-0.1,4.4c0.2,1.2,0.7,2.3,1.3,3.3c0.6,1,1.4,1.9,2.2,2.8
						c1.5,1.8,3,3.5,4.8,4.9c2.1,1.5,4.6,2.4,6.8,3.9c0.6,0.4,1.3,0.9,1.7,1.5C233.5,213.4,233.7,214.9,233.2,216.1L233.2,216.1z"/>
				</g>
			</g>
			<g>
				<defs>
					<path id="SVGID_00000005978989446181967430000004256771715889185416_" d="M233.5,222.9c-2.3,2.7-5.4,4.4-8.5,6.1
						c-5.3,2.7-10.9,5.1-15.9,8.4c-3.4,2.2-6.5,4.8-9.4,7.5c-2.5,2.4-4.8,4.9-7.6,6.9c-2.8,2-6.1,3.5-9.5,4
						c-0.9,0.1-1.9,0.2-2.9,0.2c-3.2,0-6.5-0.8-9.5-2.1c-2.7-1.2-5.3-2.9-6.9-5.4c-1.6-2.5-1.9-5.6-1.9-8.6c0-5.2,1-10.4,1.9-15.6
						c0.8-4.3,1.5-8.6,1.9-12.9c0.9-7.9,0.8-15.8,0.3-23.7c-0.1-1.3-0.2-2.6,0-4c0.2-1.3,0.7-2.6,1.7-3.5c0.9-0.8,2.2-1.2,3.4-1.2
						c1.2-0.1,2.4,0.1,3.6,0.3c2.9,0.4,5.7,0.7,8.5,1.5c1.8,0.5,3.5,1.1,5.2,1.6c2.9,0.8,6,1.2,9,0.8c3.2-0.4,6.4-1.6,9.7-1.5
						c1.3,0,2.7,0.3,3.9,0.7c1.3,0.4,2.6,1,3.6,2c0.7,0.7,1.2,1.7,1.6,2.6c0.6,1.4,0.9,3,1,4.5c0.1,1.4,0.1,2.8,0.4,4.1
						c0.4,2.2,1.6,4.2,3,6c1.4,1.7,3.2,3.2,4.9,4.7c1.7,1.4,3.5,2.9,5.3,4.2c0.9,0.6,1.8,1.2,2.6,1.8c0.8,0.7,1.6,1.4,2.1,2.3
						c0.4,0.8,0.7,1.7,0.7,2.6c0,0.5-0.1,1-0.2,1.6C235.3,220.3,234.5,221.7,233.5,222.9L233.5,222.9z"/>
				</defs>
				<clipPath id="SVGID_00000071522283421626472950000007475792379892618113_">
					<use xlink:href="#SVGID_00000005978989446181967430000004256771715889185416_"  style="overflow:visible;"/>
				</clipPath>
				
					<g id="foot_right_layer_2" style="clip-path:url(#SVGID_00000071522283421626472950000007475792379892618113_);filter:url(#blur_foot_right_layer_2);">
					<path class="st29" d="M232.9,214.6c-0.6,1.4-1.4,2.6-2.3,3.7c-2.1,2.6-5,4.4-8,5.5c-5,1.9-10.4,2.1-15.3,4.3
						c-3,1.3-5.6,3.3-8.4,5.1c-2.2,1.5-4.4,2.9-6.8,4c-2.7,1.2-5.6,1.9-8.5,2.3c-1.8,0.3-3.7,0.5-5.6,0.4c-1.9-0.1-3.7-0.5-5.4-1.5
						c-1.2-0.7-2.4-1.8-3-3.1c-0.7-1.5-0.9-3.2-0.9-4.9c0.1-4.5,1-9,1-13.5c0-3.9-0.8-7.8-1-11.7c-0.4-7.5,1.2-15.2-0.2-22.6
						c-0.2-1.2-0.5-2.4-0.5-3.6c0-0.6,0.1-1.2,0.3-1.8c0.2-0.6,0.6-1.1,1-1.4c0.4-0.3,0.8-0.5,1.3-0.6c0.5-0.1,0.9-0.1,1.4,0
						c0.9,0.1,1.8,0.5,2.7,0.8c2.6,0.8,5.4,0.8,8,1.4c1.7,0.4,3.3,1,4.9,1.4c2.8,0.8,5.6,1.1,8.5,0.8c3-0.4,6-1.5,9.1-1.4
						c1.3,0,2.5,0.3,3.7,0.6s2.4,0.9,3.3,1.8c0.6,0.7,1.1,1.5,1.5,2.4c0.6,1.3,1,2.7,0.9,4.1c0,0.7-0.1,1.5-0.2,2.2
						c-0.1,0.7-0.1,1.5,0.1,2.2c0.2,0.7,0.6,1.4,1,2c0.4,0.6,0.9,1.1,1.3,1.7c1.2,1.6,2.1,3.5,3.1,5.3s2,3.6,3.5,4.9
						c2.1,1.8,4.7,2.5,7,3.9c0.7,0.4,1.3,0.9,1.8,1.6c0.4,0.5,0.6,1.1,0.7,1.8C233.2,213.3,233.1,214,232.9,214.6L232.9,214.6z"/>
				</g>
			</g>
			<g>
				<defs>
					<path id="SVGID_00000018958510492969390250000008468192292846119574_" d="M233.5,222.9c-2.3,2.7-5.4,4.4-8.5,6.1
						c-5.3,2.7-10.9,5.1-15.9,8.4c-3.4,2.2-6.5,4.8-9.4,7.5c-2.5,2.4-4.8,4.9-7.6,6.9c-2.8,2-6.1,3.5-9.5,4
						c-0.9,0.1-1.9,0.2-2.9,0.2c-3.2,0-6.5-0.8-9.5-2.1c-2.7-1.2-5.3-2.9-6.9-5.4c-1.6-2.5-1.9-5.6-1.9-8.6c0-5.2,1-10.4,1.9-15.6
						c0.8-4.3,1.5-8.6,1.9-12.9c0.9-7.9,0.8-15.8,0.3-23.7c-0.1-1.3-0.2-2.6,0-4c0.2-1.3,0.7-2.6,1.7-3.5c0.9-0.8,2.2-1.2,3.4-1.2
						c1.2-0.1,2.4,0.1,3.6,0.3c2.9,0.4,5.7,0.7,8.5,1.5c1.8,0.5,3.5,1.1,5.2,1.6c2.9,0.8,6,1.2,9,0.8c3.2-0.4,6.4-1.6,9.7-1.5
						c1.3,0,2.7,0.3,3.9,0.7c1.3,0.4,2.6,1,3.6,2c0.7,0.7,1.2,1.7,1.6,2.6c0.6,1.4,0.9,3,1,4.5c0.1,1.4,0.1,2.8,0.4,4.1
						c0.4,2.2,1.6,4.2,3,6c1.4,1.7,3.2,3.2,4.9,4.7c1.7,1.4,3.5,2.9,5.3,4.2c0.9,0.6,1.8,1.2,2.6,1.8c0.8,0.7,1.6,1.4,2.1,2.3
						c0.4,0.8,0.7,1.7,0.7,2.6c0,0.5-0.1,1-0.2,1.6C235.3,220.3,234.5,221.7,233.5,222.9L233.5,222.9z"/>
				</defs>
				<clipPath id="SVGID_00000018197852793099607570000011269072956617061034_">
					<use xlink:href="#SVGID_00000018958510492969390250000008468192292846119574_"  style="overflow:visible;"/>
				</clipPath>
				
					<g id="foot_right_glare" style="clip-path:url(#SVGID_00000018197852793099607570000011269072956617061034_);filter:url(#blur_foot_right_glare);">
					
						<linearGradient id="SVGID_00000013887323093488406770000013030018827438671516_" gradientUnits="userSpaceOnUse" x1="191.3113" y1="76.3846" x2="190.0913" y2="65.4146" gradientTransform="matrix(1 0 0 -1 0 258.0001)">
						<stop  offset="0" style="stop-color:#F3CD0C"/>
						<stop  offset="1" style="stop-color:#F3CD0C;stop-opacity:0"/>
					</linearGradient>
					<path style="fill:url(#SVGID_00000013887323093488406770000013030018827438671516_);" d="M168.1,181.6c2.8-0.8,5.2,1.4,7.3,3
						c1.3,1.1,3.2,0.9,4.9,0.9c2.7-0.1,5.4,0.4,8.1,0.1c5.3-0.4,10.5-1.8,15.8-2c2.5-0.2,5.4-0.3,7.6,1.2c0.9,0.6,2.2,3.2,3.1,2.2
						c-0.4-2.7-2.4-5.4-5.1-6.1c-2.1-0.3-4.3,0.2-6.5,0.1c-6.4-0.1-12.8-1.3-19.2-1c-4.5,0-8.9-0.2-13.4-0.3
						c-1.8-0.4-2.4,1.2-3.3,1.8C167.6,181.6,167.6,181.7,168.1,181.6L168.1,181.6z"/>
				</g>
			</g>
		</g>
	</g>
	<g id="wing_tip_right">
		<g id="wing_tip_right_shadow">
			<g>
				<defs>
					<path id="SVGID_00000023991126876357969580000001366327513055947451_" d="M233.5,222.9c-2.3,2.7-5.4,4.4-8.5,6.1
						c-5.3,2.7-10.9,5.1-15.9,8.4c-3.4,2.2-6.5,4.8-9.4,7.5c-2.5,2.4-4.8,4.9-7.6,6.9c-2.8,2-6.1,3.5-9.5,4
						c-0.9,0.1-1.9,0.2-2.9,0.2c-3.2,0-6.5-0.8-9.5-2.1c-2.7-1.2-5.3-2.9-6.9-5.4c-1.6-2.5-1.9-5.6-1.9-8.6c0-5.2,1-10.4,1.9-15.6
						c0.8-4.3,1.5-8.6,1.9-12.9c0.9-7.9,0.8-15.8,0.3-23.7c-0.1-1.3-0.2-2.6,0-4c0.2-1.3,0.7-2.6,1.7-3.5c0.9-0.8,2.2-1.2,3.4-1.2
						c1.2-0.1,2.4,0.1,3.6,0.3c2.9,0.4,5.7,0.7,8.5,1.5c1.8,0.5,3.5,1.1,5.2,1.6c2.9,0.8,6,1.2,9,0.8c3.2-0.4,6.4-1.6,9.7-1.5
						c1.3,0,2.7,0.3,3.9,0.7c1.3,0.4,2.6,1,3.6,2c0.7,0.7,1.2,1.7,1.6,2.6c0.6,1.4,0.9,3,1,4.5c0.1,1.4,0.1,2.8,0.4,4.1
						c0.4,2.2,1.6,4.2,3,6c1.4,1.7,3.2,3.2,4.9,4.7c1.7,1.4,3.5,2.9,5.3,4.2c0.9,0.6,1.8,1.2,2.6,1.8c0.8,0.7,1.6,1.4,2.1,2.3
						c0.4,0.8,0.7,1.7,0.7,2.6c0,0.5-0.1,1-0.2,1.6C235.3,220.3,234.5,221.7,233.5,222.9L233.5,222.9z"/>
				</defs>
				<clipPath id="SVGID_00000168804675342327711940000001494615675371631036_">
					<use xlink:href="#SVGID_00000023991126876357969580000001366327513055947451_"  style="overflow:visible;"/>
				</clipPath>
				
					<g id="wing_tip_right_shadow_lower" style="opacity:0.35;clip-path:url(#SVGID_00000168804675342327711940000001494615675371631036_);filter:url(#blur_wing_tip_right_shadow_lower);enable-background:new    ;">
					
						<radialGradient id="SVGID_00000044169984805208108240000015709606815537214615_" cx="-358.1579" cy="628.1296" r="1" gradientTransform="matrix(18.9901 5.0884 5.342 -19.9367 3635.6807 14539.8115)" gradientUnits="userSpaceOnUse">
						<stop  offset="0" style="stop-color:#110800"/>
						<stop  offset="0.59" style="stop-color:#A65A00;stop-opacity:0.8"/>
						<stop  offset="1" style="stop-color:#FF921E;stop-opacity:0"/>
					</radialGradient>
					<path style="fill:url(#SVGID_00000044169984805208108240000015709606815537214615_);" d="M205.5,187.6
						c-0.5-0.9-1.4-1.7-2.4-2.1c-1-0.4-2.1-0.6-3.1-0.5c-2.1,0-4.2,0.6-6.4,0.4c-1.8-0.2-3.5-0.8-5.2-1.3c-1.8-0.4-3.7-0.6-5.5-0.1
						c-1.9,0.5-3.6,1.8-4.7,3.5c-0.9,1.5-1.4,3.2-1.5,5s0,3.5,0.2,5.2c0.1,1.3,0.3,2.5,0.6,3.8c0.3,1.2,0.8,2.4,1.5,3.5
						c1.1,1.5,2.7,2.5,4.4,3.2c2.8,1,6,1,8.7-0.1c4.9-2.1,9-5.9,11.5-10.6c0.9-1.7,1.6-3.5,2.1-5.3c0.2-0.7,0.3-1.5,0.3-2.2
						C206,189.1,205.8,188.3,205.5,187.6L205.5,187.6z"/>
				</g>
			</g>
			<g>
				<defs>
					<path id="SVGID_00000119797753369032904990000018197634203792755376_" d="M233.5,222.9c-2.3,2.7-5.4,4.4-8.5,6.1
						c-5.3,2.7-10.9,5.1-15.9,8.4c-3.4,2.2-6.5,4.8-9.4,7.5c-2.5,2.4-4.8,4.9-7.6,6.9c-2.8,2-6.1,3.5-9.5,4
						c-0.9,0.1-1.9,0.2-2.9,0.2c-3.2,0-6.5-0.8-9.5-2.1c-2.7-1.2-5.3-2.9-6.9-5.4c-1.6-2.5-1.9-5.6-1.9-8.6c0-5.2,1-10.4,1.9-15.6
						c0.8-4.3,1.5-8.6,1.9-12.9c0.9-7.9,0.8-15.8,0.3-23.7c-0.1-1.3-0.2-2.6,0-4c0.2-1.3,0.7-2.6,1.7-3.5c0.9-0.8,2.2-1.2,3.4-1.2
						c1.2-0.1,2.4,0.1,3.6,0.3c2.9,0.4,5.7,0.7,8.5,1.5c1.8,0.5,3.5,1.1,5.2,1.6c2.9,0.8,6,1.2,9,0.8c3.2-0.4,6.4-1.6,9.7-1.5
						c1.3,0,2.7,0.3,3.9,0.7c1.3,0.4,2.6,1,3.6,2c0.7,0.7,1.2,1.7,1.6,2.6c0.6,1.4,0.9,3,1,4.5c0.1,1.4,0.1,2.8,0.4,4.1
						c0.4,2.2,1.6,4.2,3,6c1.4,1.7,3.2,3.2,4.9,4.7c1.7,1.4,3.5,2.9,5.3,4.2c0.9,0.6,1.8,1.2,2.6,1.8c0.8,0.7,1.6,1.4,2.1,2.3
						c0.4,0.8,0.7,1.7,0.7,2.6c0,0.5-0.1,1-0.2,1.6C235.3,220.3,234.5,221.7,233.5,222.9L233.5,222.9z"/>
				</defs>
				<clipPath id="SVGID_00000034079332741554448540000017344720826970310549_">
					<use xlink:href="#SVGID_00000119797753369032904990000018197634203792755376_"  style="overflow:visible;"/>
				</clipPath>
				
					<g id="wing_tip_right_shadow_upper" style="opacity:0.35;clip-path:url(#SVGID_00000034079332741554448540000017344720826970310549_);filter:url(#blur_wing_tip_right_shadow_upper);enable-background:new    ;">
					
						<radialGradient id="SVGID_00000104701811805971507250000007532636769951679374_" cx="-363.4221" cy="614.104" r="1" gradientTransform="matrix(19.7224 -0.8335 -0.6275 -14.8467 7742.5859 9004.4209)" gradientUnits="userSpaceOnUse">
						<stop  offset="0" style="stop-color:#110800"/>
						<stop  offset="0.59" style="stop-color:#A65A00;stop-opacity:0.8"/>
						<stop  offset="1" style="stop-color:#FF921E;stop-opacity:0"/>
					</radialGradient>
					<path style="fill:url(#SVGID_00000104701811805971507250000007532636769951679374_);" d="M205.5,184.9
						c-0.5-0.7-1.4-1.2-2.4-1.5c-1-0.3-2.1-0.4-3.1-0.4c-2.1,0-4.2,0.4-6.4,0.3c-1.8-0.1-3.5-0.6-5.2-0.9c-1.8-0.3-3.7-0.4-5.5-0.1
						c-1.9,0.4-3.6,1.3-4.7,2.5c-0.9,1.1-1.4,2.3-1.5,3.6c-0.1,1.3,0,2.5,0.2,3.8c0.1,0.9,0.3,1.8,0.6,2.7c0.3,0.9,0.8,1.8,1.5,2.5
						c1.1,1.1,2.7,1.8,4.4,2.3c2.8,0.8,6,0.7,8.7-0.1c4.9-1.5,9-4.3,11.5-7.7c0.9-1.2,1.6-2.5,2.1-3.8c0.2-0.5,0.3-1.1,0.3-1.6
						C206,185.9,205.8,185.4,205.5,184.9L205.5,184.9z"/>
				</g>
			</g>
		</g>
		<path id="wing_tip_right_base" class="st0" d="M209.5,178.7c-0.4-0.9-1-1.8-1.7-2.5c-0.8-0.7-1.6-1.2-2.6-1.6
			c-1.9-0.8-3.9-1.1-5.9-1.5c-1.9-0.4-3.7-0.8-5.6-1.1c-2-0.3-4-0.6-5.9-0.1c-1.7,0.4-3.3,1.3-4.5,2.4s-2.3,2.6-3,4.2
			c-1.3,2.8-1.7,5.9-1.4,9c0.2,2.3,0.8,4.6,2.2,6.3c1.2,1.4,2.9,2.3,4.7,2.8c3,0.9,6.4,0.9,9.4-0.1c5-1.7,9.4-5,12.4-9.3
			c1-1.4,1.8-3,2.2-4.7C210,181.3,210,180,209.5,178.7L209.5,178.7z"/>
		<g id="wing_tip_right_glare">
			<g>
				<defs>
					<path id="SVGID_00000103962490640221810990000012301775611480528305_" d="M209.5,178.7c-0.4-0.9-1-1.8-1.7-2.5
						c-0.8-0.7-1.6-1.2-2.6-1.6c-1.9-0.8-3.9-1.1-5.9-1.5c-1.9-0.4-3.7-0.8-5.6-1.1c-2-0.3-4-0.6-5.9-0.1c-1.7,0.4-3.3,1.3-4.5,2.4
						s-2.3,2.6-3,4.2c-1.3,2.8-1.7,5.9-1.4,9c0.2,2.3,0.8,4.6,2.2,6.3c1.2,1.4,2.9,2.3,4.7,2.8c3,0.9,6.4,0.9,9.4-0.1
						c5-1.7,9.4-5,12.4-9.3c1-1.4,1.8-3,2.2-4.7C210,181.3,210,180,209.5,178.7L209.5,178.7z"/>
				</defs>
				<clipPath id="SVGID_00000042000266166181749040000018378433347582628255_">
					<use xlink:href="#SVGID_00000103962490640221810990000012301775611480528305_"  style="overflow:visible;"/>
				</clipPath>
				
					<g id="wing_tip_right_glare_1" style="clip-path:url(#SVGID_00000042000266166181749040000018378433347582628255_);filter:url(#blur_wing_tip_right_glare);">
					
						<radialGradient id="path_wing_tip_right_glare_00000026127148941144169220000016986098906333945785_" cx="-307.8495" cy="581.6423" r="1" gradientTransform="matrix(6.3736 2.7713 1.28 -2.9438 1422.2562 2741.9822)" gradientUnits="userSpaceOnUse">
						<stop  offset="0" style="stop-color:#7C7C7C"/>
						<stop  offset="1" style="stop-color:#7C7C7C;stop-opacity:0.33"/>
					</radialGradient>
					
						<path id="path_wing_tip_right_glare_00000002355202882478497970000012471437887801504144_" style="fill:url(#path_wing_tip_right_glare_00000026127148941144169220000016986098906333945785_);" d="
						M188.9,171.1c-0.5,0-0.9,0.1-1.4,0.2c-3,0.5-5.7,2.4-7.3,5c-1.1,1.9-1.6,4-1.4,6.2c0.1-1.5,0.5-3,1.2-4.3
						c1.2-2.2,3.5-3.9,6-4.4c1.5-0.3,3.1-0.1,4.7,0.1c1.5,0.2,3,0.4,4.5,0.7c2.3,0.5,4.5,1.3,6.4,2.6c0.4,0.3,0.9,0.7,1.2,1.1
						c0.4,0.4,0.6,0.9,0.7,1.4c0.1,0.8-0.1,1.6-0.5,2.3c-0.4,0.7-0.9,1.3-1.5,1.9c-0.5,0.5-0.9,0.9-1.4,1.3c2.2-0.4,4.4-1,6.3-2.3
						c0.8-0.6,1.5-1.2,1.9-2c0.5-0.8,0.6-1.8,0.4-2.8c-0.2-0.6-0.5-1.2-0.9-1.7s-0.9-0.9-1.4-1.2c-2.3-1.6-5-2.6-7.8-3
						c-1.8-0.3-3.6-0.6-5.4-0.8C191.8,171.1,190.3,171,188.9,171.1L188.9,171.1z"/>
				</g>
			</g>
			<g>
				<defs>
					<path id="SVGID_00000112629476196192073680000005705977138704383885_" d="M209.5,178.7c-0.4-0.9-1-1.8-1.7-2.5
						c-0.8-0.7-1.6-1.2-2.6-1.6c-1.9-0.8-3.9-1.1-5.9-1.5c-1.9-0.4-3.7-0.8-5.6-1.1c-2-0.3-4-0.6-5.9-0.1c-1.7,0.4-3.3,1.3-4.5,2.4
						s-2.3,2.6-3,4.2c-1.3,2.8-1.7,5.9-1.4,9c0.2,2.3,0.8,4.6,2.2,6.3c1.2,1.4,2.9,2.3,4.7,2.8c3,0.9,6.4,0.9,9.4-0.1
						c5-1.7,9.4-5,12.4-9.3c1-1.4,1.8-3,2.2-4.7C210,181.3,210,180,209.5,178.7L209.5,178.7z"/>
				</defs>
				<clipPath id="SVGID_00000114032519864770140860000010245904977209214850_">
					<use xlink:href="#SVGID_00000112629476196192073680000005705977138704383885_"  style="overflow:visible;"/>
				</clipPath>
				
					<g id="wing_tip_right_glare_2" style="clip-path:url(#SVGID_00000114032519864770140860000010245904977209214850_);filter:url(#blur_wing_tip_right_glare);">
					
						<linearGradient id="path_wing_tip_right_glare_00000001650067063301359340000014254715966563699584_" gradientUnits="userSpaceOnUse" x1="185.8983" y1="79.5337" x2="188.4783" y2="79.6437" gradientTransform="matrix(1 0 0 -1 0 258.0001)">
						<stop  offset="0" style="stop-color:#7C7C7C"/>
						<stop  offset="1" style="stop-color:#7C7C7C;stop-opacity:0.33"/>
					</linearGradient>
					
						<path id="path_wing_tip_right_glare_00000032642736641842957500000002994890496825091513_" style="fill:url(#path_wing_tip_right_glare_00000001650067063301359340000014254715966563699584_);" d="
						M188.9,171.1c-0.5,0-0.9,0.1-1.4,0.2c-3,0.5-5.7,2.4-7.3,5c-1.1,1.9-1.6,4-1.4,6.2c0.1-1.5,0.5-3,1.2-4.3
						c1.2-2.2,3.5-3.9,6-4.4c1.5-0.3,3.1-0.1,4.7,0.1c1.5,0.2,3,0.4,4.5,0.7c2.3,0.5,4.5,1.3,6.4,2.6c0.4,0.3,0.9,0.7,1.2,1.1
						c0.4,0.4,0.6,0.9,0.7,1.4c0.1,0.8-0.1,1.6-0.5,2.3c-0.4,0.7-0.9,1.3-1.5,1.9c-0.5,0.5-0.9,0.9-1.4,1.3c2.2-0.4,4.4-1,6.3-2.3
						c0.8-0.6,1.5-1.2,1.9-2c0.5-0.8,0.6-1.8,0.4-2.8c-0.2-0.6-0.5-1.2-0.9-1.7s-0.9-0.9-1.4-1.2c-2.3-1.6-5-2.6-7.8-3
						c-1.8-0.3-3.6-0.6-5.4-0.8C191.8,171.1,190.3,171,188.9,171.1L188.9,171.1z"/>
				</g>
			</g>
		</g>
	</g>
	<g id="face">
		<g id="eyes">
			<g id="eye_left">
				
					<radialGradient id="eyeball_left_00000070839167459261514380000007787895524764338873_" cx="-344.0384" cy="616.3062" r="1" gradientTransform="matrix(10.2394 -0.1072 -0.1642 -15.6791 3730.4456 9677.6699)" gradientUnits="userSpaceOnUse">
					<stop  offset="0" style="stop-color:#FEFEFC"/>
					<stop  offset="0.75" style="stop-color:#FEFEFC"/>
					<stop  offset="1" style="stop-color:#D4D4D4"/>
				</radialGradient>
				<path id="eyeball_left" style="fill:url(#eyeball_left_00000070839167459261514380000007787895524764338873_);" d="M104.4,38.3
					c-1.5,0.1-3,0.8-4.1,1.8c-1.1,1-1.9,2.4-2.4,3.9c-1,2.9-0.8,6.1-0.5,9.2c0.2,2.8,0.4,5.6,1.4,8.2c0.5,1.3,1.2,2.5,2.2,3.5
					c1,1,2.2,1.8,3.6,2.1c1.3,0.3,2.6,0.3,3.9-0.1c1.2-0.4,2.4-1.1,3.3-2c1.4-1.3,2.3-3.1,2.8-4.9c0.5-1.8,0.7-3.8,0.7-5.7
					c0-2.4-0.3-4.8-1.1-7c-0.8-2.3-1.9-4.4-3.6-6.1c-0.8-0.8-1.7-1.6-2.8-2.1C106.8,38.5,105.6,38.2,104.4,38.3z"/>
				<g id="pupil_left">
					<path id="pupil_left_base" class="st0" d="M100.7,51c-0.3,1.9-0.3,4,0.3,5.8c0.4,1.2,1.2,2.3,2.1,3.3c0.6,0.6,1.2,1.2,2,1.6
						c0.8,0.4,1.7,0.5,2.5,0.3c0.8-0.2,1.4-0.7,1.9-1.3c0.5-0.6,0.8-1.3,1.1-2.1c0.7-2.2,0.6-4.6-0.1-6.8c-0.5-1.6-1.3-3.2-2.6-4.2
						c-0.6-0.5-1.3-0.9-2.1-1.1c-0.8-0.2-1.6-0.1-2.4,0.2c-0.8,0.4-1.4,1.1-1.8,1.9C101.1,49.2,100.9,50.1,100.7,51L100.7,51z"/>
					<g>
						<defs>
							<path id="SVGID_00000074411933807483237260000008347167973430227123_" d="M100.7,51c-0.3,1.9-0.3,4,0.3,5.8
								c0.4,1.2,1.2,2.3,2.1,3.3c0.6,0.6,1.2,1.2,2,1.6c0.8,0.4,1.7,0.5,2.5,0.3c0.8-0.2,1.4-0.7,1.9-1.3c0.5-0.6,0.8-1.3,1.1-2.1
								c0.7-2.2,0.6-4.6-0.1-6.8c-0.5-1.6-1.3-3.2-2.6-4.2c-0.6-0.5-1.3-0.9-2.1-1.1c-0.8-0.2-1.6-0.1-2.4,0.2
								c-0.8,0.4-1.4,1.1-1.8,1.9C101.1,49.2,100.9,50.1,100.7,51L100.7,51z"/>
						</defs>
						<clipPath id="SVGID_00000129206327410256014870000011627952288392707730_">
							<use xlink:href="#SVGID_00000074411933807483237260000008347167973430227123_"  style="overflow:visible;"/>
						</clipPath>
						
							<g id="pupil_left_glare" style="clip-path:url(#SVGID_00000129206327410256014870000011627952288392707730_);filter:url(#blur_pupil_left_glare);">
							
								<linearGradient id="SVGID_00000177469791110010769680000008202791996730457492_" gradientUnits="userSpaceOnUse" x1="104.4281" y1="211.4373" x2="109.4581" y2="202.4473" gradientTransform="matrix(1 0 0 -1 0 258.0001)">
								<stop  offset="0" style="stop-color:#757574;stop-opacity:0"/>
								<stop  offset="0.25" style="stop-color:#757574"/>
								<stop  offset="0.5" style="stop-color:#757574"/>
								<stop  offset="1" style="stop-color:#757574;stop-opacity:0"/>
							</linearGradient>
							<path style="fill:url(#SVGID_00000177469791110010769680000008202791996730457492_);" d="M104.8,49.6
								c0.2,0.5,0.9,0.8,1.3,1.2c0.4,0.4,0.8,0.9,1,1.4c0.4,1-0.4,2.5,0.4,3.2c0.2,0.2,0.8,0.2,1,0c1-0.9,0.8-2.7,0.4-4
								c-0.4-1.2-1.2-2.2-2.3-2.8c-0.5-0.3-1.2-0.5-1.7-0.1C104.7,48.8,104.7,49.3,104.8,49.6z"/>
						</g>
					</g>
				</g>
				<g>
					<defs>
						<path id="SVGID_00000072248603975685296140000002953209308080635302_" d="M104.4,38.3c-1.5,0.1-3,0.8-4.1,1.8
							c-1.1,1-1.9,2.4-2.4,3.9c-1,2.9-0.8,6.1-0.5,9.2c0.2,2.8,0.4,5.6,1.4,8.2c0.5,1.3,1.2,2.5,2.2,3.5c1,1,2.2,1.8,3.6,2.1
							c1.3,0.3,2.6,0.3,3.9-0.1c1.2-0.4,2.4-1.1,3.3-2c1.4-1.3,2.3-3.1,2.8-4.9c0.5-1.8,0.7-3.8,0.7-5.7c0-2.4-0.3-4.8-1.1-7
							c-0.8-2.3-1.9-4.4-3.6-6.1c-0.8-0.8-1.7-1.6-2.8-2.1C106.8,38.5,105.6,38.2,104.4,38.3z"/>
					</defs>
					<clipPath id="SVGID_00000062192818935812793600000000155719757479846829_">
						<use xlink:href="#SVGID_00000072248603975685296140000002953209308080635302_"  style="overflow:visible;"/>
					</clipPath>
					
						<radialGradient id="eyelid_left_00000111898440789130771220000010825610272914137238_" cx="-329.3325" cy="564.1569" r="1" gradientTransform="matrix(6.167 -1.0154 -0.9374 -5.6933 2664.7256 2921.2717)" gradientUnits="userSpaceOnUse">
						<stop  offset="0" style="stop-color:#C8C8C8"/>
						<stop  offset="1" style="stop-color:#797978"/>
					</radialGradient>
					
						<path id="eyelid_left" style="clip-path:url(#SVGID_00000062192818935812793600000000155719757479846829_);fill:url(#eyelid_left_00000111898440789130771220000010825610272914137238_);" d="
						M101.1,44.5c2.3-1.4,5.1-1.7,7.8-1.4c2.7,0.3,5.3,1,7.9,1.8c1.9,0.5,3.8,1,5.6,1.8c1.8,0.8,3.4,2.1,4.4,3.8
						c0.2,0.3,0.3,0.6,0.5,0.8c0.2,0.3,0.4,0.5,0.6,0.7c0.2,0.2,0.6,0.3,0.9,0.3c0.2,0,0.3,0,0.4-0.1c0.1-0.1,0.3-0.2,0.3-0.3
						c0.1-0.2,0.1-0.3,0.1-0.5c0-0.2-0.1-0.4-0.1-0.5c-0.7-2.4-2.2-4.4-3.3-6.5c-0.7-1.3-1.3-2.7-2-4c-2.4-4.5-6.4-7.9-10.9-10.2
						s-9.6-3.4-14.7-3.6C92.8,26,87,26.7,81.2,27.7c-2.5,0.4-5.1,1-7.3,2.2c-1.1,0.6-2.1,1.4-2.9,2.4c-0.8,1-1.4,2.2-1.6,3.4
						c-0.2,1.2,0,2.5,0.4,3.6c0.4,1.2,1.1,2.2,1.9,3.2c1.5,1.9,3.5,3.4,5.4,5c1.8,1.6,3.5,3.4,5.6,4.8c1,0.7,2.1,1.2,3.3,1.6
						c1.2,0.3,2.4,0.4,3.6,0.2c1.2-0.2,2.4-0.9,3.4-1.6c1-0.8,1.9-1.7,2.7-2.7C97.4,47.9,99,45.8,101.1,44.5z"/>
				</g>
				<g id="eyebrow_left" class="st44">
					
						<linearGradient id="SVGID_00000009563445178942029670000002630134272506277262_" gradientUnits="userSpaceOnUse" x1="104.736" y1="226.6124" x2="115.626" y2="215.4924" gradientTransform="matrix(1 0 0 -1 0 258.0001)">
						<stop  offset="0" style="stop-color:#646464;stop-opacity:0"/>
						<stop  offset="0.31" style="stop-color:#646464;stop-opacity:0.58"/>
						<stop  offset="0.47" style="stop-color:#646464"/>
						<stop  offset="0.73" style="stop-color:#646464;stop-opacity:0.26"/>
						<stop  offset="1" style="stop-color:#646464;stop-opacity:0"/>
					</linearGradient>
					<path style="fill:url(#SVGID_00000009563445178942029670000002630134272506277262_);" d="M110.8,36.6c2.2,2,3.8,4.5,4.8,7.2
						c-0.5-2.9-1.2-5.3-3.1-7.2c-1.2-1.1-2.5-2-4-2.7c-1.3-0.6-2.8-1-3.6-1c-0.8,0-1,0-1.2,0c-0.2,0-0.3,0,0.2,0.1
						c0.5,0.1,1.8,0.4,3.1,1S109.6,35.5,110.8,36.6z"/>
				</g>
			</g>
			<g id="eye_right">
				
					<radialGradient id="eyeball_right_00000083776709390144274250000017600333149818550686_" cx="-354.3511" cy="615.7787" r="1" gradientTransform="matrix(13.6333 -0.4284 -0.4925 -15.6723 5272.3081 9550.2373)" gradientUnits="userSpaceOnUse">
					<stop  offset="0" style="stop-color:#FEFEFC"/>
					<stop  offset="0.75" style="stop-color:#FEFEFC"/>
					<stop  offset="1" style="stop-color:#D4D4D4"/>
				</radialGradient>
				<path id="eyeball_right" style="fill:url(#eyeball_right_00000083776709390144274250000017600333149818550686_);" d="
					M131.6,38.3c-2.4,1.7-4.4,3.9-5.4,6.7c-1.2,3.5-0.8,7.3,0.4,10.8c1.2,3.5,3.3,6.9,6.4,9.1c1.5,1.1,3.3,1.8,5.2,2
					c1.9,0.2,3.8-0.1,5.5-0.9c2-1.1,3.6-2.9,4.5-5c1-2.1,1.4-4.4,1.5-6.7c0.2-2.9-0.1-5.9-1.1-8.6c-1-3-2.9-5.8-5.6-7.5
					c-1.3-0.9-2.8-1.4-4.4-1.7c-1.6-0.2-3.2,0-4.7,0.5C133.1,37.3,132.4,37.8,131.6,38.3z"/>
				<g id="pupil_right">
					<path id="pupil_right_base" class="st0" d="M137.1,45.5c-0.9,0.1-1.8,0.4-2.6,0.8c-0.8,0.5-1.4,1.1-1.9,1.9
						c-1,1.5-1.5,3.3-1.6,5.1c-0.1,1.3,0.1,2.7,0.6,4s1.2,2.5,2.2,3.3c1.1,0.9,2.4,1.4,3.8,1.5c1.4,0.1,2.8-0.3,3.9-1.1
						c0.9-0.6,1.6-1.5,2.2-2.5c0.5-1,0.8-2.1,1-3.2c0.2-1.9,0-4-0.9-5.7c-0.9-1.7-2.4-3.2-4.2-3.8C138.8,45.6,138,45.5,137.1,45.5z"
						/>
					<g>
						<defs>
							<path id="SVGID_00000050633339765051708130000015651502976028489363_" d="M137.1,45.5c-0.9,0.1-1.8,0.4-2.6,0.8
								c-0.8,0.5-1.4,1.1-1.9,1.9c-1,1.5-1.5,3.3-1.6,5.1c-0.1,1.3,0.1,2.7,0.6,4s1.2,2.5,2.2,3.3c1.1,0.9,2.4,1.4,3.8,1.5
								c1.4,0.1,2.8-0.3,3.9-1.1c0.9-0.6,1.6-1.5,2.2-2.5c0.5-1,0.8-2.1,1-3.2c0.2-1.9,0-4-0.9-5.7c-0.9-1.7-2.4-3.2-4.2-3.8
								C138.8,45.6,138,45.5,137.1,45.5z"/>
						</defs>
						<clipPath id="SVGID_00000034076513732802131770000002163592500425471139_">
							<use xlink:href="#SVGID_00000050633339765051708130000015651502976028489363_"  style="overflow:visible;"/>
						</clipPath>
						
							<g id="pupil_right_glare" style="clip-path:url(#SVGID_00000034076513732802131770000002163592500425471139_);filter:url(#blur_pupil_right_glare);">
							
								<linearGradient id="SVGID_00000021816088779458571540000009798987947094142108_" gradientUnits="userSpaceOnUse" x1="137.8802" y1="210.7587" x2="143.6702" y2="203.8987" gradientTransform="matrix(1 0 0 -1 0 258.0001)">
								<stop  offset="0" style="stop-color:#949494;stop-opacity:0.39"/>
								<stop  offset="0.5" style="stop-color:#949494"/>
								<stop  offset="1" style="stop-color:#949494;stop-opacity:0.39"/>
							</linearGradient>
							<path style="fill:url(#SVGID_00000021816088779458571540000009798987947094142108_);" d="M142.7,53.4c1-1-0.7-3.7-2.1-4.7
								c-1-0.8-3.8-1.6-3.7-0.8c0.1,0.8,1.4,2,2.2,2.8C140.3,51.7,142.2,53.8,142.7,53.4z"/>
						</g>
					</g>
				</g>
				<g>
					<defs>
						<path id="SVGID_00000125600080645796011240000012230059804044164278_" d="M131.6,38.3c-2.4,1.7-4.4,3.9-5.4,6.7
							c-1.2,3.5-0.8,7.3,0.4,10.8c1.2,3.5,3.3,6.9,6.4,9.1c1.5,1.1,3.3,1.8,5.2,2c1.9,0.2,3.8-0.1,5.5-0.9c2-1.1,3.6-2.9,4.5-5
							c1-2.1,1.4-4.4,1.5-6.7c0.2-2.9-0.1-5.9-1.1-8.6c-1-3-2.9-5.8-5.6-7.5c-1.3-0.9-2.8-1.4-4.4-1.7c-1.6-0.2-3.2,0-4.7,0.5
							C133.1,37.3,132.4,37.8,131.6,38.3z"/>
					</defs>
					<clipPath id="SVGID_00000023241078628537771630000016035404339463023233_">
						<use xlink:href="#SVGID_00000125600080645796011240000012230059804044164278_"  style="overflow:visible;"/>
					</clipPath>
					
						<linearGradient id="eyelid_right_00000029008809639459065330000018001193331220874148_" gradientUnits="userSpaceOnUse" x1="133.9552" y1="223.573" x2="152.3752" y2="212.793" gradientTransform="matrix(1 0 0 -1 0 258.0001)">
						<stop  offset="0" style="stop-color:#747474"/>
						<stop  offset="0.13" style="stop-color:#8C8C8C"/>
						<stop  offset="0.25" style="stop-color:#A4A4A4"/>
						<stop  offset="0.5" style="stop-color:#D4D4D4"/>
						<stop  offset="0.62" style="stop-color:#D4D4D4"/>
						<stop  offset="1" style="stop-color:#7C7C7C"/>
					</linearGradient>
					
						<path id="eyelid_right" style="clip-path:url(#SVGID_00000023241078628537771630000016035404339463023233_);fill:url(#eyelid_right_00000029008809639459065330000018001193331220874148_);" d="
						M122.6,47c2.1-1.7,4.4-3,7-3.8c5.2-1.6,11.2-1,15.8,2c1.6,1,3,2.3,4.5,3.5c1.5,1.2,3.1,2.3,4.9,2.9c1,0.3,2,0.5,3,0.4
						c0.9-0.1,1.8-0.4,2.6-1c0.8-0.5,1.4-1.2,1.9-2c1-1.6,1.3-3.5,1.1-5.3c-0.3-3.7-2.4-6.9-4.1-10.2c-0.6-1-1.1-2.1-1.7-3
						c-2-2.9-5.2-4.9-8.6-6c-3.4-1.1-6.9-1.5-10.5-2c-1.6-0.2-3.2-0.4-4.7-0.2c-1.8,0.2-3.5,1-5.3,1.4c-0.8,0.2-1.7,0.4-2.5,0.6
						c-0.8,0.2-1.7,0.6-2.3,1.1c-1,0.8-1.6,2-1.9,3.2c-0.3,1.2-0.2,2.5,0,3.8c0.4,2.5,1.3,4.9,1.2,7.5c-0.1,1.7-0.6,3.4-0.5,5.2
						C122.4,45.5,122.5,46.5,122.6,47L122.6,47z"/>
				</g>
				<g id="eyebrow_right" class="st50">
					
						<linearGradient id="SVGID_00000072971564364407772240000018063863759603688377_" gradientUnits="userSpaceOnUse" x1="139.7547" y1="227.0696" x2="152.0147" y2="215.4896" gradientTransform="matrix(1 0 0 -1 0 258.0001)">
						<stop  offset="0" style="stop-color:#646464;stop-opacity:0"/>
						<stop  offset="0.31" style="stop-color:#646464;stop-opacity:0.58"/>
						<stop  offset="0.47" style="stop-color:#646464"/>
						<stop  offset="0.73" style="stop-color:#646464;stop-opacity:0.26"/>
						<stop  offset="1" style="stop-color:#646464;stop-opacity:0"/>
					</linearGradient>
					<path style="fill:url(#SVGID_00000072971564364407772240000018063863759603688377_);" d="M139.9,31.2c-0.4,0.5-0.8,1.1-1.1,1.7
						c1.9,0.4,3.6,1.2,5.2,2.2c3.1,2,5.4,5,7,8.3c0.4-0.4,0.7-0.9,1-1.4c-1.6-3.4-4-6.5-7.2-8.7C143.4,32.4,141.7,31.6,139.9,31.2z"
						/>
				</g>
			</g>
		</g>
		<g id="beak">
			<g id="beak_shadow">
				<g>
					<defs>
						<path id="SVGID_00000079444492167695335250000004285692720376635035_" d="M126.9,0c-6,0-12,1.2-17.5,4.1
							c-5.8,3.1-10.5,8.1-13.4,14C93.1,24,92,30.3,91.8,37.2c-0.3,13.1,0.3,26.9,1.3,39.4c0.3,3.8,0.7,6,0.2,9.9
							c-1.6,8.3-8.9,13.9-12.8,21.2c-4.3,8-6.1,17.1-9.3,25.7c-3,7.8-7.1,15.1-9.9,22.9c-3.9,11-5.1,23-2.5,34.4
							c2,8.7,6.1,16.8,11.6,23.7c-0.8,1.4-1.6,2.9-2.4,4.3c-2.6,4.4-5.7,8.6-7.2,13.6c-0.7,2.4-1,5.1-0.5,7.6
							c0.5,2.5,1.8,4.9,3.8,6.5c1.3,1,2.9,1.7,4.5,2.1c1.6,0.4,3.3,0.5,5,0.4c6.4-0.1,12.6-2.1,18.7-3.7c3.7-1,7.3-1.8,11-2.6
							c13.1-2.7,27.8-1.6,40,0.1c4.1,0.6,8.2,1.4,12.3,2.4c6.4,1.5,12.7,3.5,19.2,3.7c1.7,0.1,3.5,0,5.1-0.4
							c1.7-0.4,3.3-1.1,4.6-2.1c2-1.6,3.3-4,3.8-6.5c0.5-2.5,0.2-5.1-0.6-7.6c-1.5-4.9-4.6-9.1-7.3-13.5c-1-1.8-2-3.5-3-5.3
							c7.9-8.9,14.3-19.1,17.9-30.4c4-12.3,4.8-25.6,3.1-38.4s-5.8-25.3-11.1-37.1c-6.7-14.8-12.4-20.1-16.5-33.1
							c-4.4-14-0.8-30.6-4.1-43.3c-1.2-4.3-3-8.5-5.4-12.2c-2.8-4.4-6.4-8.4-10.6-11.5C144.1,2.6,135.6,0,126.9,0L126.9,0z"/>
					</defs>
					<clipPath id="SVGID_00000020386931818863821740000008000210771943401625_">
						<use xlink:href="#SVGID_00000079444492167695335250000004285692720376635035_"  style="overflow:visible;"/>
					</clipPath>
					
						<g id="beak_shadow_lower" style="clip-path:url(#SVGID_00000020386931818863821740000008000210771943401625_);filter:url(#blur_beak_shadow_lower);">
						<path class="st53" d="M101.1,89.3c1.5,4.3,4.4,7.9,7.9,10.7c1.2,0.9,2.4,1.8,3.8,2.4c1.4,0.6,2.9,1,4.4,0.8
							c1.5-0.1,2.8-0.7,4.1-1.4s2.5-1.6,3.7-2.4c2.1-1.3,4.4-2.4,6.6-3.6c2.7-1.4,5.2-3.1,7.5-5.1c1-0.9,2-1.9,3.1-2.8
							c1.1-0.8,2.5-1.4,3.9-1.3c1,0.1,2,0.5,3,0.7c0.5,0.1,1,0.2,1.6,0.1c0.5-0.1,1-0.3,1.4-0.7c0.4-0.5,0.6-1.1,0.6-1.8
							c0-0.6-0.2-1.2-0.5-1.8c-0.6-1.1-1.5-2.1-1.9-3.3c-0.4-1.1-0.3-2.2-0.3-3.4c0-1.1,0-2.3-0.5-3.3c-0.4-0.8-1.1-1.4-1.8-1.8
							c-0.8-0.4-1.6-0.6-2.5-0.7c-1.7-0.2-3.4,0.2-5.2,0.3c-2.3,0.1-4.6-0.2-6.9,0c-2.8,0.2-5.6,1-8.5,1c-3.3,0-6.5-1.1-9.7-0.6
							c-1.4,0.2-2.7,0.7-4,1.2c-1.3,0.4-2.7,0.8-4.1,0.8c-1.6,0-3.1-0.6-4.7-0.7c-0.8-0.1-1.6,0-2.3,0.3c-0.7,0.3-1.4,0.8-1.8,1.5
							c-0.2,0.4-0.3,0.9-0.3,1.3c0,0.5,0,0.9,0.2,1.4c0.2,0.9,0.6,1.7,1,2.6C99.8,82.9,100.1,86.2,101.1,89.3z"/>
					</g>
				</g>
				<g>
					<defs>
						<path id="SVGID_00000126318032645423029310000000585174456730711989_" d="M126.9,0c-6,0-12,1.2-17.5,4.1
							c-5.8,3.1-10.5,8.1-13.4,14C93.1,24,92,30.3,91.8,37.2c-0.3,13.1,0.3,26.9,1.3,39.4c0.3,3.8,0.7,6,0.2,9.9
							c-1.6,8.3-8.9,13.9-12.8,21.2c-4.3,8-6.1,17.1-9.3,25.7c-3,7.8-7.1,15.1-9.9,22.9c-3.9,11-5.1,23-2.5,34.4
							c2,8.7,6.1,16.8,11.6,23.7c-0.8,1.4-1.6,2.9-2.4,4.3c-2.6,4.4-5.7,8.6-7.2,13.6c-0.7,2.4-1,5.1-0.5,7.6
							c0.5,2.5,1.8,4.9,3.8,6.5c1.3,1,2.9,1.7,4.5,2.1c1.6,0.4,3.3,0.5,5,0.4c6.4-0.1,12.6-2.1,18.7-3.7c3.7-1,7.3-1.8,11-2.6
							c13.1-2.7,27.8-1.6,40,0.1c4.1,0.6,8.2,1.4,12.3,2.4c6.4,1.5,12.7,3.5,19.2,3.7c1.7,0.1,3.5,0,5.1-0.4
							c1.7-0.4,3.3-1.1,4.6-2.1c2-1.6,3.3-4,3.8-6.5c0.5-2.5,0.2-5.1-0.6-7.6c-1.5-4.9-4.6-9.1-7.3-13.5c-1-1.8-2-3.5-3-5.3
							c7.9-8.9,14.3-19.1,17.9-30.4c4-12.3,4.8-25.6,3.1-38.4s-5.8-25.3-11.1-37.1c-6.7-14.8-12.4-20.1-16.5-33.1
							c-4.4-14-0.8-30.6-4.1-43.3c-1.2-4.3-3-8.5-5.4-12.2c-2.8-4.4-6.4-8.4-10.6-11.5C144.1,2.6,135.6,0,126.9,0L126.9,0z"/>
					</defs>
					<clipPath id="SVGID_00000056392949025214997770000009337210077492482213_">
						<use xlink:href="#SVGID_00000126318032645423029310000000585174456730711989_"  style="overflow:visible;"/>
					</clipPath>
					
						<g id="beak_shadow_upper" style="opacity:0.3;clip-path:url(#SVGID_00000056392949025214997770000009337210077492482213_);filter:url(#blur_beak_shadow_upper);enable-background:new    ;">
						<path d="M97,77.2c2.8,1.8,5.4,3.9,7.6,6.4c2,2.3,3.7,4.9,6.3,6.6c1.8,1.2,4,1.9,6.3,2.1c2.6,0.2,5.3-0.2,7.8-0.8
							c2.3-0.6,4.6-1.5,6.7-2.7c4-2.2,7.3-5.6,11.6-7c0.9-0.3,1.9-0.6,2.9-1c0.9-0.4,1.8-1,2.2-1.8c0.4-0.8,0.4-1.8,0.5-2.6
							c0.1-1,0.5-1.9,0.7-2.8c0.2-0.9,0.2-2-0.2-2.8c-0.4-0.7-1-1.3-1.8-1.7c-0.8-0.4-1.6-0.5-2.5-0.6c-1.7-0.1-3.4,0.3-5.2,0.5
							c-2.3,0.2-4.6-0.1-6.9,0c-2.9,0.1-5.7,0.7-8.5,0.8c-3.2,0.1-6.5-0.3-9.7-0.4c-1.4-0.1-2.8,0-4.2,0.2c-1.4,0.2-2.8,0.7-3.9,1.4
							c-1.1,0.7-2.1,1.6-3.1,2.4c-0.5,0.4-1.1,0.8-1.7,1.1c-0.6,0.3-1.3,0.5-2,0.5c-0.3,0-0.7,0-1.1,0c-0.6,0.1-1.1,0.4-1.5,0.8
							C97,76.1,96.9,76.7,97,77.2L97,77.2z"/>
					</g>
				</g>
			</g>
			
				<radialGradient id="beak_base_00000111884070260475599620000009760642409477029775_" cx="-374.179" cy="588.3284" r="1" gradientTransform="matrix(9.2552 -6.7243 -6.1012 -8.3976 7170.2407 2484.5869)" gradientUnits="userSpaceOnUse">
				<stop  offset="0" style="stop-color:#020204"/>
				<stop  offset="0.73" style="stop-color:#020204"/>
				<stop  offset="1" style="stop-color:#5C5C5C"/>
			</radialGradient>
			<path id="beak_base" style="fill:url(#beak_base_00000111884070260475599620000009760642409477029775_);" d="M111.7,58.5
				c1.5-1.7,2.6-3.8,4-5.6c0.7-0.9,1.6-1.7,2.6-2.3s2.2-0.9,3.3-0.8c1.3,0.1,2.5,0.7,3.4,1.6c0.9,0.9,1.6,2,2.2,3.1
				c0.5,1.1,0.9,2.3,1.7,3.2c0.8,1,1.9,1.7,3,2.5c0.5,0.4,1,0.8,1.4,1.3c0.4,0.5,0.7,1.1,0.9,1.7c0.1,0.6,0.1,1.3-0.2,1.9
				c-0.2,0.6-0.6,1.2-1.1,1.6c-0.9,0.9-2.2,1.4-3.6,1.6c-2.6,0.4-5.3-0.4-7.9-0.3c-2.7,0.1-5.3,1-8,0.9c-1.3-0.1-2.7-0.4-3.8-1.1
				c-0.6-0.4-1-0.9-1.4-1.4c-0.3-0.6-0.6-1.2-0.6-1.9c0-0.6,0.1-1.3,0.4-1.9c0.2-0.6,0.6-1.1,1-1.6
				C109.8,60.3,110.8,59.5,111.7,58.5z"/>
			<g id="mandible_lower">
				
					<radialGradient id="mandible_lower_base_00000137814563834555187790000015124321096711977150_" cx="-374.6522" cy="614.3785" r="1" gradientTransform="matrix(25.1014 -10.3461 -7.267 -17.6311 13998.7715 7026.6001)" gradientUnits="userSpaceOnUse">
					<stop  offset="0" style="stop-color:#D2940A"/>
					<stop  offset="0.75" style="stop-color:#D89C08"/>
					<stop  offset="0.87" style="stop-color:#B67E07"/>
					<stop  offset="1" style="stop-color:#946106"/>
				</radialGradient>
				
					<path id="mandible_lower_base" style="fill:url(#mandible_lower_base_00000137814563834555187790000015124321096711977150_);" d="
					M97.1,75.1c0.1,0.3,0.2,0.5,0.3,0.7c0.2,0.4,0.6,0.7,0.9,0.9c0.4,0.3,0.8,0.5,1.1,0.7c2,1.3,3.7,3,5.1,4.9
					c1.9,2.5,3.7,5.3,6.3,7.1c1.8,1.3,4,2,6.3,2.3c2.6,0.3,5.3-0.2,7.8-0.9c2.3-0.7,4.6-1.7,6.7-2.9c4-2.4,7.3-6,11.6-7.6
					c0.9-0.3,1.9-0.6,2.9-1c0.9-0.4,1.8-1.1,2.2-2c0.4-0.9,0.4-1.9,0.5-2.9c0.1-1,0.5-2,0.7-3.1c0.2-1,0.2-2.1-0.2-3.1
					c-0.4-0.8-1-1.4-1.8-1.8c-0.8-0.4-1.6-0.6-2.5-0.6c-1.7-0.1-3.4,0.4-5.2,0.5c-2.3,0.2-4.6-0.1-6.9,0c-2.9,0.1-5.7,0.7-8.5,0.9
					c-3.2,0.2-6.5-0.3-9.7-0.5c-1.4-0.1-2.8,0-4.2,0.2c-1.4,0.2-2.8,0.7-3.9,1.5c-1.1,0.8-2,1.8-3.1,2.7c-0.5,0.4-1.1,0.9-1.7,1.2
					c-0.6,0.3-1.3,0.5-2,0.5c-0.3,0-0.7-0.1-1.1,0c-0.2,0.1-0.4,0.2-0.6,0.3c-0.2,0.2-0.3,0.3-0.4,0.5
					C97.6,74.1,97.3,74.6,97.1,75.1L97.1,75.1z"/>
				<g>
					<defs>
						<path id="SVGID_00000005258858617242329700000006845198260955298948_" d="M97.1,75.1c0.1,0.3,0.2,0.5,0.3,0.7
							c0.2,0.4,0.6,0.7,0.9,0.9c0.4,0.3,0.8,0.5,1.1,0.7c2,1.3,3.7,3,5.1,4.9c1.9,2.5,3.7,5.3,6.3,7.1c1.8,1.3,4,2,6.3,2.3
							c2.6,0.3,5.3-0.2,7.8-0.9c2.3-0.7,4.6-1.7,6.7-2.9c4-2.4,7.3-6,11.6-7.6c0.9-0.3,1.9-0.6,2.9-1c0.9-0.4,1.8-1.1,2.2-2
							c0.4-0.9,0.4-1.9,0.5-2.9c0.1-1,0.5-2,0.7-3.1c0.2-1,0.2-2.1-0.2-3.1c-0.4-0.8-1-1.4-1.8-1.8c-0.8-0.4-1.6-0.6-2.5-0.6
							c-1.7-0.1-3.4,0.4-5.2,0.5c-2.3,0.2-4.6-0.1-6.9,0c-2.9,0.1-5.7,0.7-8.5,0.9c-3.2,0.2-6.5-0.3-9.7-0.5c-1.4-0.1-2.8,0-4.2,0.2
							c-1.4,0.2-2.8,0.7-3.9,1.5c-1.1,0.8-2,1.8-3.1,2.7c-0.5,0.4-1.1,0.9-1.7,1.2c-0.6,0.3-1.3,0.5-2,0.5c-0.3,0-0.7-0.1-1.1,0
							c-0.2,0.1-0.4,0.2-0.6,0.3c-0.2,0.2-0.3,0.3-0.4,0.5C97.6,74.1,97.3,74.6,97.1,75.1L97.1,75.1z"/>
					</defs>
					<clipPath id="SVGID_00000036937610151104959030000012923829753796442771_">
						<use xlink:href="#SVGID_00000005258858617242329700000006845198260955298948_"  style="overflow:visible;"/>
					</clipPath>
					
						<g id="mandible_lower_glare" style="clip-path:url(#SVGID_00000036937610151104959030000012923829753796442771_);filter:url(#blur_mandible_lower_glare);">
						<path class="st58" d="M109.9,78.6c-0.3,1.4-0.1,2.9,0.6,4.1c0.7,1.2,1.8,2.2,3.2,2.7c1.7,0.6,3.6,0.3,5.2-0.5
							c0.9-0.5,1.8-1.2,2.3-2.1c0.3-0.4,0.5-0.9,0.5-1.5c0.1-0.5,0-1.1-0.2-1.5c-0.2-0.5-0.6-1-1-1.4c-0.4-0.4-0.9-0.6-1.5-0.8
							c-1.1-0.4-2.8-0.7-3.9-0.7C113.1,76.8,110.2,77.2,109.9,78.6z"/>
					</g>
				</g>
			</g>
			<g id="mandible_upper">
				<g>
					<defs>
						<path id="SVGID_00000037656127548135885280000003985329176790434482_" d="M97.1,75.1c0.1,0.3,0.2,0.5,0.3,0.7
							c0.2,0.4,0.6,0.7,0.9,0.9c0.4,0.3,0.8,0.5,1.1,0.7c2,1.3,3.7,3,5.1,4.9c1.9,2.5,3.7,5.3,6.3,7.1c1.8,1.3,4,2,6.3,2.3
							c2.6,0.3,5.3-0.2,7.8-0.9c2.3-0.7,4.6-1.7,6.7-2.9c4-2.4,7.3-6,11.6-7.6c0.9-0.3,1.9-0.6,2.9-1c0.9-0.4,1.8-1.1,2.2-2
							c0.4-0.9,0.4-1.9,0.5-2.9c0.1-1,0.5-2,0.7-3.1c0.2-1,0.2-2.1-0.2-3.1c-0.4-0.8-1-1.4-1.8-1.8c-0.8-0.4-1.6-0.6-2.5-0.6
							c-1.7-0.1-3.4,0.4-5.2,0.5c-2.3,0.2-4.6-0.1-6.9,0c-2.9,0.1-5.7,0.7-8.5,0.9c-3.2,0.2-6.5-0.3-9.7-0.5c-1.4-0.1-2.8,0-4.2,0.2
							c-1.4,0.2-2.8,0.7-3.9,1.5c-1.1,0.8-2,1.8-3.1,2.7c-0.5,0.4-1.1,0.9-1.7,1.2c-0.6,0.3-1.3,0.5-2,0.5c-0.3,0-0.7-0.1-1.1,0
							c-0.2,0.1-0.4,0.2-0.6,0.3c-0.2,0.2-0.3,0.3-0.4,0.5C97.6,74.1,97.3,74.6,97.1,75.1L97.1,75.1z"/>
					</defs>
					<clipPath id="SVGID_00000018209188281321788550000008249799884093739454_">
						<use xlink:href="#SVGID_00000037656127548135885280000003985329176790434482_"  style="overflow:visible;"/>
					</clipPath>
					
						<g id="mandible_upper_shadow" style="clip-path:url(#SVGID_00000018209188281321788550000008249799884093739454_);filter:url(#blur_mandible_upper_shadow);">
						<path class="st60" d="M104.3,67.9c-1.2,0.7-2.3,1.4-3.4,2.2c-0.6,0.4-1.2,0.8-1.4,1.5c-0.2,0.4-0.3,0.9-0.3,1.4
							c0,0.5,0,1,0,1.5c0,0.3-0.1,0.7-0.1,1c0,0.2,0,0.3,0,0.5c0.1,0.2,0.1,0.3,0.2,0.4c0.2,0.2,0.3,0.3,0.6,0.3s0.4,0.1,0.6,0.1
							c1,0.2,1.9,0.9,2.7,1.6c0.8,0.7,1.5,1.5,2.3,2.1c2.2,1.8,5.1,2.5,7.9,2.6c2.8,0.1,5.6-0.5,8.4-1.2c2.2-0.5,4.3-1,6.4-1.8
							c3.2-1.2,6.2-3,8.7-5.2c1.2-1,2.3-2.1,3.6-2.9c1.1-0.7,2.4-1.2,3.6-1.9c0.1-0.1,0.2-0.1,0.3-0.2c0.1-0.1,0.2-0.2,0.2-0.3
							c0.1-0.2,0.1-0.4,0-0.6c-0.1-0.2-0.2-0.4-0.3-0.6c-0.2-0.2-0.3-0.3-0.5-0.5c-1.2-1.1-2.9-1.4-4.5-1.6c-1.6-0.1-3.2,0-4.8-0.3
							c-1.5-0.2-2.9-0.8-4.4-1.3c-1.5-0.5-3.1-0.9-4.6-1.1c-3.7-0.6-7.5-0.5-11.2,0.3C110.8,64.7,107.4,66,104.3,67.9L104.3,67.9z"
							/>
					</g>
				</g>
				
					<linearGradient id="mandible_upper_base_00000101067001725764165060000011578820569202195876_" gradientUnits="userSpaceOnUse" x1="98.0879" y1="189.0119" x2="146.7679" y2="189.3919" gradientTransform="matrix(1 0 0 -1 0 258.0001)">
					<stop  offset="0" style="stop-color:#AD780A"/>
					<stop  offset="0.12" style="stop-color:#D89E08"/>
					<stop  offset="0.25" style="stop-color:#EDB80B"/>
					<stop  offset="0.39" style="stop-color:#EBC80D"/>
					<stop  offset="0.53" style="stop-color:#F5D838"/>
					<stop  offset="0.77" style="stop-color:#F6D811"/>
					<stop  offset="1" style="stop-color:#F5CD31"/>
				</linearGradient>
				
					<path id="mandible_upper_base" style="fill:url(#mandible_upper_base_00000101067001725764165060000011578820569202195876_);" d="
					M103.9,64c-1.7,1.1-3.2,2.5-4.4,4c-0.7,0.9-1.4,1.9-1.7,2.9c-0.3,0.9-0.4,1.8-0.6,2.7c-0.1,0.3-0.2,0.7-0.1,1
					c0,0.2,0,0.3,0.1,0.5c0.1,0.2,0.1,0.3,0.2,0.4c0.2,0.2,0.5,0.3,0.7,0.4c0.3,0.1,0.6,0.1,0.8,0.1c1.2,0.2,2.4,0.8,3.4,1.5
					c1,0.7,2,1.6,3.1,2.2c2.3,1.5,5.2,2.2,7.9,2.3c2.8,0.1,5.6-0.3,8.3-0.9c2.2-0.4,4.3-0.9,6.4-1.8c3.2-1.2,6-3.2,8.7-5.2
					c1.2-0.9,2.5-1.9,3.6-2.9c0.4-0.4,0.7-0.7,1.1-1.1c0.4-0.3,0.8-0.6,1.3-0.8c0.8-0.2,1.6-0.2,2.4,0c0.6,0.1,1.2,0.2,1.8,0.2
					c0.3,0,0.6-0.1,0.9-0.2s0.5-0.3,0.7-0.5c0.2-0.3,0.4-0.7,0.4-1.1c0-0.4-0.1-0.8-0.3-1.1c-0.4-0.7-1.1-1.1-1.8-1.5
					c-1-0.4-2.1-0.7-3.1-0.9c-3.2-0.8-6.4-1.9-9.3-3.4c-1.5-0.7-2.9-1.5-4.4-2.3c-1.5-0.8-3-1.6-4.6-2.1c-3.6-1.1-7.6-0.7-11.2,0.5
					C110.3,58.3,106.7,60.7,103.9,64z"/>
				<g>
					<defs>
						<path id="SVGID_00000021826641115720079220000011880005848099809956_" d="M103.9,64c-1.7,1.1-3.2,2.5-4.4,4
							c-0.7,0.9-1.4,1.9-1.7,2.9c-0.3,0.9-0.4,1.8-0.6,2.7c-0.1,0.3-0.2,0.7-0.1,1c0,0.2,0,0.3,0.1,0.5c0.1,0.2,0.1,0.3,0.2,0.4
							c0.2,0.2,0.5,0.3,0.7,0.4c0.3,0.1,0.6,0.1,0.8,0.1c1.2,0.2,2.4,0.8,3.4,1.5c1,0.7,2,1.6,3.1,2.2c2.3,1.5,5.2,2.2,7.9,2.3
							c2.8,0.1,5.6-0.3,8.3-0.9c2.2-0.4,4.3-0.9,6.4-1.8c3.2-1.2,6-3.2,8.7-5.2c1.2-0.9,2.5-1.9,3.6-2.9c0.4-0.4,0.7-0.7,1.1-1.1
							c0.4-0.3,0.8-0.6,1.3-0.8c0.8-0.2,1.6-0.2,2.4,0c0.6,0.1,1.2,0.2,1.8,0.2c0.3,0,0.6-0.1,0.9-0.2s0.5-0.3,0.7-0.5
							c0.2-0.3,0.4-0.7,0.4-1.1c0-0.4-0.1-0.8-0.3-1.1c-0.4-0.7-1.1-1.1-1.8-1.5c-1-0.4-2.1-0.7-3.1-0.9c-3.2-0.8-6.4-1.9-9.3-3.4
							c-1.5-0.7-2.9-1.5-4.4-2.3c-1.5-0.8-3-1.6-4.6-2.1c-3.6-1.1-7.6-0.7-11.2,0.5C110.3,58.3,106.7,60.7,103.9,64z"/>
					</defs>
					<clipPath id="SVGID_00000094577144802728931800000012680913579789093523_">
						<use xlink:href="#SVGID_00000021826641115720079220000011880005848099809956_"  style="overflow:visible;"/>
					</clipPath>
					
						<g id="mandible_upper_glare" style="clip-path:url(#SVGID_00000094577144802728931800000012680913579789093523_);filter:url(#blur_mandible_upper_glare);">
						<path class="st63" d="M129.4,64.8c-0.2-0.2-0.5-0.4-0.8-0.5c-0.3-0.1-0.6-0.1-0.9,0c-0.6,0.1-1.2,0.4-1.7,0.8
							c-1.5,1-2.8,2.3-3.9,3.6c-1.5,1.8-2.7,3.9-3.2,6.3c-0.1,0.4-0.1,0.8-0.1,1.2c0.1,0.4,0.2,0.8,0.5,1.1c0.2,0.2,0.6,0.4,0.9,0.4
							c0.3,0.1,0.7,0,1-0.1c0.7-0.2,1.2-0.7,1.7-1.2c2.9-2.6,5.5-5.7,6.5-9.4c0.1-0.4,0.2-0.8,0.2-1.1S129.7,65.1,129.4,64.8z"/>
					</g>
				</g>
				<g id="naris_left" class="st64">
					
						<radialGradient id="SVGID_00000002385883564319901020000011371732562710083475_" cx="-77.697" cy="371.2817" r="1" gradientTransform="matrix(1.32 0 0 -1.42 214.67 587.1)" gradientUnits="userSpaceOnUse">
						<stop  offset="0" style="stop-color:#3A2903"/>
						<stop  offset="0.55" style="stop-color:#735208"/>
						<stop  offset="1" style="stop-color:#AC8C04"/>
					</radialGradient>
					<path style="fill:url(#SVGID_00000002385883564319901020000011371732562710083475_);" d="M112.7,59.1c-0.8-0.2-2,1.1-1.6,1.8
						c0.1,0.2,0.5,0.4,0.7,0.3c0.3-0.2,0.6-0.9,1-1.2C113.1,59.8,113,59.2,112.7,59.1z"/>
				</g>
				<g id="naris_right" class="st66">
					
						<radialGradient id="SVGID_00000178893168087949222830000011005240334859346583_" cx="-238.036" cy="404.5803" r="1" gradientTransform="matrix(2.78 0 0 -1.62 786.39 715.1201)" gradientUnits="userSpaceOnUse">
						<stop  offset="0" style="stop-color:#3A2903"/>
						<stop  offset="0.55" style="stop-color:#735208"/>
						<stop  offset="1" style="stop-color:#AC8C04"/>
					</radialGradient>
					<path style="fill:url(#SVGID_00000178893168087949222830000011005240334859346583_);" d="M122.6,59.4c0.2,0.6,1.2,0.5,1.8,0.8
						c0.5,0.3,0.9,0.9,1.5,0.9c0.6,0,1.4-0.2,1.5-0.8c0.1-0.7-1-1.2-1.7-1.5c-0.9-0.3-2-0.5-2.9-0.1C122.7,59,122.5,59.2,122.6,59.4
						z"/>
				</g>
			</g>
			<g>
				<defs>
					<path id="SVGID_00000071557918385154094930000004346353661610569128_" d="M97.1,75.1c0.1,0.3,0.2,0.5,0.3,0.7
						c0.2,0.4,0.6,0.7,0.9,0.9c0.4,0.3,0.8,0.5,1.1,0.7c2,1.3,3.7,3,5.1,4.9c1.9,2.5,3.7,5.3,6.3,7.1c1.8,1.3,4,2,6.3,2.3
						c2.6,0.3,5.3-0.2,7.8-0.9c2.3-0.7,4.6-1.7,6.7-2.9c4-2.4,7.3-6,11.6-7.6c0.9-0.3,1.9-0.6,2.9-1c0.9-0.4,1.8-1.1,2.2-2
						c0.4-0.9,0.4-1.9,0.5-2.9c0.1-1,0.5-2,0.7-3.1c0.2-1,0.2-2.1-0.2-3.1c-0.4-0.8-1-1.4-1.8-1.8c-0.8-0.4-1.6-0.6-2.5-0.6
						c-1.7-0.1-3.4,0.4-5.2,0.5c-2.3,0.2-4.6-0.1-6.9,0c-2.9,0.1-5.7,0.7-8.5,0.9c-3.2,0.2-6.5-0.3-9.7-0.5c-1.4-0.1-2.8,0-4.2,0.2
						c-1.4,0.2-2.8,0.7-3.9,1.5c-1.1,0.8-2,1.8-3.1,2.7c-0.5,0.4-1.1,0.9-1.7,1.2c-0.6,0.3-1.3,0.5-2,0.5c-0.3,0-0.7-0.1-1.1,0
						c-0.2,0.1-0.4,0.2-0.6,0.3c-0.2,0.2-0.3,0.3-0.4,0.5C97.6,74.1,97.3,74.6,97.1,75.1L97.1,75.1z"/>
				</defs>
				<defs>
					<path id="SVGID_00000177466047120103610060000005496895278600100744_" d="M103.9,64c-1.7,1.1-3.2,2.5-4.4,4
						c-0.7,0.9-1.4,1.9-1.7,2.9c-0.3,0.9-0.4,1.8-0.6,2.7c-0.1,0.3-0.2,0.7-0.1,1c0,0.2,0,0.3,0.1,0.5c0.1,0.2,0.1,0.3,0.2,0.4
						c0.2,0.2,0.5,0.3,0.7,0.4c0.3,0.1,0.6,0.1,0.8,0.1c1.2,0.2,2.4,0.8,3.4,1.5c1,0.7,2,1.6,3.1,2.2c2.3,1.5,5.2,2.2,7.9,2.3
						c2.8,0.1,5.6-0.3,8.3-0.9c2.2-0.4,4.3-0.9,6.4-1.8c3.2-1.2,6-3.2,8.7-5.2c1.2-0.9,2.5-1.9,3.6-2.9c0.4-0.4,0.7-0.7,1.1-1.1
						c0.4-0.3,0.8-0.6,1.3-0.8c0.8-0.2,1.6-0.2,2.4,0c0.6,0.1,1.2,0.2,1.8,0.2c0.3,0,0.6-0.1,0.9-0.2s0.5-0.3,0.7-0.5
						c0.2-0.3,0.4-0.7,0.4-1.1c0-0.4-0.1-0.8-0.3-1.1c-0.4-0.7-1.1-1.1-1.8-1.5c-1-0.4-2.1-0.7-3.1-0.9c-3.2-0.8-6.4-1.9-9.3-3.4
						c-1.5-0.7-2.9-1.5-4.4-2.3c-1.5-0.8-3-1.6-4.6-2.1c-3.6-1.1-7.6-0.7-11.2,0.5C110.3,58.3,106.7,60.7,103.9,64z"/>
				</defs>
				<clipPath id="SVGID_00000101088578467282632740000015431758338106849213_">
					<use xlink:href="#SVGID_00000071557918385154094930000004346353661610569128_"  style="overflow:visible;"/>
				</clipPath>
				
					<clipPath id="SVGID_00000150815233982347397430000018248229438473987006_" style="clip-path:url(#SVGID_00000101088578467282632740000015431758338106849213_);">
					<use xlink:href="#SVGID_00000177466047120103610060000005496895278600100744_"  style="overflow:visible;"/>
				</clipPath>
				
					<g id="beak_corner" style="clip-path:url(#SVGID_00000150815233982347397430000018248229438473987006_);filter:url(#blur_beak_corner);">
					
						<linearGradient id="SVGID_00000066484061867501503180000003853414620342105488_" gradientUnits="userSpaceOnUse" x1="146.8056" y1="190.51" x2="146.8056" y2="186.91" gradientTransform="matrix(1 0 0 -1 0 258.0001)">
						<stop  offset="0" style="stop-color:#F5CE2D"/>
						<stop  offset="1" style="stop-color:#D79B08"/>
					</linearGradient>
					<path style="fill:url(#SVGID_00000066484061867501503180000003853414620342105488_);" d="M149.3,69.2c-0.2,1.7-1.5,3-2.8,3
						c-1.4,0-2.3-1.4-2.1-3c0.2-1.7,1.4-3,2.8-3.1c0,0,0,0,0,0C148.5,66.1,149.5,67.5,149.3,69.2C149.3,69.1,149.3,69.1,149.3,69.2z
						"/>
				</g>
			</g>
		</g>
	</g>
</g>
</svg>
