<?xml version="1.0" encoding="utf-8"?>
<!-- Generator: Adobe Illustrator 27.0.0, SVG Export Plug-In . SVG Version: 6.00 Build 0)  -->
<svg version="1.2" baseProfile="tiny" id="Livello_1"
	 xmlns="http://www.w3.org/2000/svg" xmlns:xlink="http://www.w3.org/1999/xlink" x="0px" y="0px" viewBox="0 0 1024 1024"
	 overflow="visible" xml:space="preserve">
<circle display="none" fill="#F5F5F4" cx="101.8" cy="1827.5" r="128"/>
<circle display="none" fill="#222222" cx="613.8" cy="1826.7" r="128"/>
<g>
	<path fill="#222222" d="M512,1016.5c-68.1,0-134.2-13.3-196.4-39.6c-60.1-25.4-114-61.8-160.4-108.1
		c-46.3-46.3-82.7-100.3-108.1-160.4C20.8,646.2,7.5,580.1,7.5,512c0-66.4,25.8-128.8,72.8-175.7c46.9-46.9,109.3-72.8,175.7-72.8
		c66.4,0,128.8,25.8,175.7,72.8c46.9,46.9,72.8,109.3,72.8,175.7c0,145.3,118.2,263.5,263.5,263.5c101.5,0,189.8-57.7,233.8-142.1
		c-6.3,25.5-14.6,50.5-25,75c-25.4,60.1-61.8,114-108.1,160.4c-46.3,46.3-100.3,82.7-160.4,108.1
		C646.2,1003.2,580.1,1016.5,512,1016.5z"/>
	<path fill="#F5F5F4" d="M256,271c32.5,0,64.1,6.4,93.8,18.9c28.7,12.1,54.5,29.5,76.6,51.7c22.1,22.1,39.5,47.9,51.7,76.6
		c12.6,29.7,18.9,61.3,18.9,93.8c0,149.4,121.6,271,271,271c85.4,0,161.7-39.7,211.4-101.6c-2.9,8.1-6.1,16.1-9.5,24.1
		c-25,59.2-60.9,112.3-106.5,158s-98.8,81.5-158,106.5C644.2,995.9,579.1,1009,512,1009s-132.2-13.1-193.5-39.1
		c-59.2-25-112.3-60.9-158-106.5s-81.5-98.8-106.5-158C28.1,644.2,15,579.1,15,512c0-32.5,6.4-64.1,18.9-93.8
		c12.1-28.7,29.5-54.5,51.7-76.6c22.1-22.1,47.9-39.5,76.6-51.7C191.9,277.4,223.5,271,256,271 M256,256C114.6,256,0,370.6,0,512
		c0,282.8,229.2,512,512,512s512-229.2,512-512c0,141.4-114.6,256-256,256c-141.4,0-256-114.6-256-256C512,370.6,397.4,256,256,256
		L256,256z"/>
</g>
<g>
	<path fill="#F5F5F4" d="M768,760.5c-66.4,0-128.8-25.8-175.7-72.8c-46.9-46.9-72.8-109.3-72.8-175.7
		c0-145.3-118.2-263.5-263.5-263.5c-101.5,0-189.8,57.7-233.8,142.1c6.3-25.5,14.6-50.5,25-75c25.4-60.1,61.8-114,108.1-160.4
		c46.3-46.3,100.3-82.7,160.4-108.1C377.8,20.8,443.9,7.5,512,7.5s134.2,13.3,196.4,39.6c60.1,25.4,114,61.8,160.4,108.1
		c46.3,46.3,82.7,100.3,108.1,160.4c26.3,62.2,39.6,128.3,39.6,196.4c0,66.4-25.8,128.8-72.8,175.7
		C896.8,734.6,834.4,760.5,768,760.5z"/>
	<path fill="#222222" d="M512,15c67.1,0,132.2,13.1,193.5,39.1c59.2,25,112.3,60.9,158,106.5s81.5,98.8,106.5,158
		c25.9,61.3,39.1,126.3,39.1,193.5c0,32.5-6.4,64.1-18.9,93.8c-12.1,28.7-29.5,54.5-51.7,76.6c-22.1,22.1-47.9,39.5-76.6,51.7
		C832.1,746.6,800.5,753,768,753c-32.5,0-64.1-6.4-93.8-18.9c-28.7-12.1-54.5-29.5-76.6-51.7c-22.1-22.1-39.5-47.9-51.7-76.6
		C533.4,576.1,527,544.5,527,512c0-149.4-121.6-271-271-271c-85.4,0-161.7,39.7-211.4,101.6c2.9-8.1,6.1-16.1,9.5-24.1
		c25-59.2,60.9-112.3,106.5-158s98.8-81.5,158-106.5C379.8,28.1,444.9,15,512,15 M512,0C229.2,0,0,229.2,0,512
		c0-141.4,114.6-256,256-256c141.4,0,256,114.6,256,256c0,141.4,114.6,256,256,256c141.4,0,256-114.6,256-256
		C1024,229.2,794.8,0,512,0L512,0z"/>
</g>
<path fill="#F5F5F4" d="M211.8,400.4l-76.1,90.7c-10.2,12.2-10.2,29.9,0,42l129.3,154.2c11.6,13.8,32.2,15.6,46,4h0
	c13.8-11.6,15.7-32.2,4.1-46.1l-94.1-112.2c-10.2-12.1-10.2-29.9,0-42l94.2-112.3c11.6-13.8,9.8-34.5-4-46l0,0
	c-13.8-11.6-34.4-9.8-46,4.1L211.8,400.4L211.8,400.4z"/>
<path fill="#222222" d="M812.2,400.4l76.1,90.7c10.2,12.2,10.2,29.9,0,42L759.1,687.3c-11.6,13.8-32.2,15.6-46,4h0
	c-13.8-11.6-15.7-32.2-4.1-46.1l94.1-112.2c10.2-12.1,10.2-29.9,0-42l-94.2-112.3c-11.6-13.8-9.8-34.5,4-46l0,0
	c13.8-11.6,34.4-9.8,46,4.1L812.2,400.4L812.2,400.4z"/>
<g>
	<path fill="#F5F5F4" d="M534.6,617.2l-62.4,233c-7,26.2-33.9,41.7-60,34.7c-21.9-5.9-36.4-25.7-36.4-47.3c0-4.2,0.5-8.5,1.7-12.7
		l112-418c14.4,32,22.5,67.6,22.5,105.1C512,549.5,520.1,585,534.6,617.2z"/>
	<path fill="#222222" d="M646.6,199.1l-112,418C520.1,585,512,549.5,512,511.9s-8.1-73.1-22.6-105.2l62.4-232.9
		c7-26.2,33.9-41.7,60-34.7C638.1,146.1,653.6,173.1,646.6,199.1z"/>
</g>
</svg>
