<?xml version="1.0" encoding="utf-8"?>
<!-- Generator: Adobe Illustrator 27.0.0, SVG Export Plug-In . SVG Version: 6.00 Build 0)  -->
<svg version="1.2" baseProfile="tiny" xmlns="http://www.w3.org/2000/svg" xmlns:xlink="http://www.w3.org/1999/xlink" x="0px"
	 y="0px" viewBox="0 0 762 762" overflow="visible" xml:space="preserve">
<g id="Livello_1">
	<g>
		<g>
			<path fill="#232148" d="M381,756.4c-50.7,0-99.8-9.9-146.1-29.5c-44.7-18.9-84.9-46-119.3-80.5C81.1,612,54,571.8,35.1,527.1
				C15.5,480.8,5.6,431.7,5.6,381c0-102,83-184.9,184.9-184.9S375.4,279,375.4,381c0,108.1,88,196.1,196.1,196.1
				c75.6,0,141.3-43,174-105.7c-4.7,19-10.9,37.6-18.6,55.8c-18.9,44.7-46,84.9-80.5,119.3s-74.6,61.5-119.3,80.5
				C480.8,746.5,431.7,756.4,381,756.4z"/>
			<path fill="#F5F5F4" d="M190.5,201.7c47.9,0,92.9,18.7,126.8,52.5c33.9,33.9,52.5,78.9,52.5,126.8
				c0,111.2,90.5,201.7,201.7,201.7c63.5,0,120.3-29.5,157.3-75.6c-2.2,6-4.5,12-7,17.9c-18.6,44-45.3,83.6-79.3,117.6
				c-34,34-73.5,60.6-117.6,79.3c-45.6,19.3-94,29.1-144,29.1c-49.9,0-98.4-9.8-143.9-29.1c-44-18.6-83.6-45.3-117.6-79.3
				c-34-34-60.6-73.5-79.3-117.6c-19.3-45.6-29.1-94-29.1-144c0-47.9,18.7-92.9,52.5-126.8C97.6,220.3,142.6,201.7,190.5,201.7
				 M190.5,190.5C85.3,190.5,0,275.8,0,381c0,210.4,170.6,381,381,381c210.4,0,381-170.6,381-381c0,105.2-85.3,190.5-190.5,190.5
				C466.3,571.5,381,486.2,381,381C381,275.8,295.7,190.5,190.5,190.5L190.5,190.5z"/>
		</g>
		<g>
			<path fill="#F5F5F4" d="M571.5,565.9c-102,0-184.9-83-184.9-184.9c0-108.1-88-196.1-196.1-196.1c-75.6,0-141.3,43-174,105.7
				c4.7-19,10.9-37.6,18.6-55.8c18.9-44.7,46-84.9,80.5-119.3C150,81.1,190.2,54,234.9,35.1C281.1,15.5,330.3,5.6,381,5.6
				c50.7,0,99.8,9.9,146.1,29.5c44.7,18.9,84.9,46,119.3,80.5c34.5,34.5,61.5,74.6,80.5,119.3c19.6,46.3,29.5,95.4,29.5,146.1
				C756.4,483,673.4,565.9,571.5,565.9z"/>
			<path fill="#232148" d="M381,11.2c49.9,0,98.4,9.8,144,29.1c44,18.6,83.6,45.3,117.6,79.3c34,34,60.6,73.5,79.3,117.6
				c19.3,45.6,29.1,94,29.1,144c0,47.9-18.7,92.9-52.5,126.8c-33.9,33.9-78.9,52.5-126.8,52.5c-47.9,0-92.9-18.7-126.8-52.5
				c-33.9-33.9-52.5-78.9-52.5-126.8c0-111.2-90.5-201.7-201.7-201.7c-63.5,0-120.3,29.5-157.3,75.6c2.2-6,4.5-12,7-17.9
				c18.6-44,45.3-83.6,79.3-117.6c34-34,73.5-60.6,117.6-79.3C282.6,20.9,331.1,11.2,381,11.2 M381,0C170.6,0,0,170.6,0,381
				c0-105.2,85.3-190.5,190.5-190.5C295.7,190.5,381,275.8,381,381c0,105.2,85.3,190.5,190.5,190.5C676.7,571.5,762,486.2,762,381
				C762,170.6,591.4,0,381,0L381,0z"/>
		</g>
		<path fill="#232148" d="M604.4,298l56.6,67.5c7.6,9,7.6,22.2,0,31.3l-96.2,114.7c-8.6,10.3-24,11.6-34.3,3v0
			c-10.3-8.6-11.6-24-3-34.3l70-83.5c7.6-9,7.6-22.2,0-31.3l-70.1-83.6c-8.6-10.3-7.3-25.6,3-34.3l0,0c10.3-8.6,25.6-7.3,34.3,3
			L604.4,298L604.4,298z"/>
		<path fill="#F5F5F4" d="M157.6,298l-56.6,67.5c-7.6,9-7.6,22.2,0,31.3l96.2,114.7c8.6,10.3,24,11.6,34.3,3l0,0
			c10.3-8.6,11.6-24,3-34.3l-70-83.5c-7.6-9-7.6-22.2,0-31.3l70.1-83.6c8.6-10.3,7.3-25.6-3-34.3l0,0c-10.3-8.6-25.6-7.3-34.3,3
			L157.6,298L157.6,298z"/>
		<path fill="#F5F5F4" d="M397.8,459.3l-46.4,173.3c-5.2,19.5-25.2,31-44.7,25.8c-16.3-4.4-27-19.1-27-35.2c0-3.1,0.4-6.3,1.3-9.5
			l83.3-311.1C375,326.6,381,353.1,381,381C381,408.9,387,435.4,397.8,459.3z"/>
		<path fill="#232148" d="M481.1,148.2l-83.3,311.1C387,435.4,381,408.9,381,381c0-27.9-6-54.4-16.8-78.3l46.4-173.3
			c5.2-19.5,25.2-31,44.7-25.8C474.8,108.8,486.3,128.8,481.1,148.2z"/>
	</g>
</g>
<g id="Livello_2">
	<circle display="none" fill="#FF9497" cx="-207.3" cy="194" r="180.5"/>
	<path fill="#232148" d="M-882.3,666.2H-1032c-11,0-20-9-20-20v0c0-11,9-20,20-20h149.7c11,0,20,9,20,20v0
		C-862.3,657.2-871.3,666.2-882.3,666.2z"/>
	<path fill="#232148" d="M-882.3,569.7H-999c-11,0-20-9-20-20v0c0-11,9-20,20-20h116.6c11,0,20,9,20,20v0
		C-862.3,560.7-871.3,569.7-882.3,569.7z"/>
	<path fill="#232148" d="M-882.3,473.2h-76.5c-11,0-20-9-20-20v0c0-11,9-20,20-20h76.5c11,0,20,9,20,20v0
		C-862.3,464.2-871.3,473.2-882.3,473.2z"/>
	<g>
		<path fill="#232148" d="M-1000.9,470.3l-54.8,158.6h-11.5c-0.1,0-0.3,0-0.4,0c-0.2,0-0.4,0-0.6,0c-0.2,0-0.5,0-0.7,0
			c-0.4,0-0.8,0-1.2,0c-20.7-0.6-40.1-9.1-54.6-23.9c-14.5-14.9-22.5-34.5-22.5-55.3c0-21.2,8.3-41.1,23.2-56.1
			c15-15,34.9-23.2,56.1-23.2H-1000.9 M-951.4,433.2h-116.4c-32.2,0-61.3,13-82.4,34.1c-21.1,21.1-34.1,50.2-34.1,82.4
			c0,63.2,50.4,114.7,113.2,116.5c0.7,0,1.5,0,2.2,0c0.6,0,1.1,0,1.6,0h36.6c0.8,0,1.5-0.5,1.8-1.3l79.2-229.2L-951.4,433.2
			C-951.4,433.2-951.4,433.2-951.4,433.2L-951.4,433.2z"/>
		<path fill="#F5F5F4" d="M-948.7,433.2L-948.7,433.2l-80.1,231.7c-0.3,0.8-1,1.3-1.8,1.3h-36.6c-0.5,0-1.1,0-1.6,0
			c-0.5,0-1.1,0-1.6,0l80.1-231.7c0.3-0.8,1-1.3,1.8-1.3h37.8C-950.1,433.2-949.4,433.2-948.7,433.2z"/>
	</g>
	<g>
		
			<path fill="none" stroke="#232148" stroke-width="37.1762" stroke-linecap="round" stroke-linejoin="round" stroke-miterlimit="10" d="
			M-1461.3,717.7c0.3,0.8,1,1.3,1.8,1.3h36.6c0.5,0,1.1,0,1.6,0c0.7,0,1.5,0,2.2,0c62.8-1.7,113.2-53.2,113.2-116.5
			c0-32.2-13-61.3-34.1-82.4c-21.1-21.1-50.2-34.1-82.4-34.1h-116.4c0,0,0,0,0,0"/>
	</g>
	<path fill="#232148" d="M-1254.7,87l-61.9,170h-4.2c-2.3,0-4.7-0.1-6.9-0.3l0,0l0,0c-21.2-1.7-40.8-11.3-55.4-27
		c-14.6-15.7-22.6-36.3-22.6-57.7c0-22.7,8.8-44.1,24.9-60.1c16.1-16.1,37.4-24.9,60.1-24.9H-1254.7 M-1208,47h-112.8
		c-34.5,0-65.8,14-88.4,36.6c-22.6,22.6-36.6,53.9-36.6,88.4c0,65.6,50.5,119.4,114.8,124.6c3.4,0.3,6.8,0.4,10.2,0.4h32.2
		l90.8-249.6C-1201.1,47.1-1204.6,47-1208,47L-1208,47z"/>
	<path fill="#232148" d="M-1144.3,192h-116c-11,0-20-9-20-20v0c0-11,9-20,20-20h116c11,0,20,9,20,20v0
		C-1124.3,183-1133.3,192-1144.3,192z"/>
	<path fill="#232148" d="M-1144.3,87h-76c-11,0-20-9-20-20v0c0-11,9-20,20-20h76c11,0,20,9,20,20v0C-1124.3,78-1133.3,87-1144.3,87z
		"/>
	<path fill="#232148" d="M-1144.3,297h-156c-11,0-20-9-20-20v0c0-11,9-20,20-20h156c11,0,20,9,20,20v0
		C-1124.3,288-1133.3,297-1144.3,297z"/>
	<path fill="#F5F5F4" d="M-1197.3,47l-91.3,250h-32.2c-3.4,0-6.9-0.1-10.2-0.4l90.8-249.6H-1197.3z"/>
	<path fill="#232148" d="M-977,188.5l170,61.9v4.2c0,2.3-0.1,4.7-0.3,6.9l0,0l0,0c-1.7,21.2-11.3,40.8-27,55.4
		c-15.7,14.6-36.3,22.6-57.7,22.6c-22.7,0-44.1-8.8-60.1-24.9c-16.1-16.1-24.9-37.4-24.9-60.1V188.5 M-1016.6,131.5
		c-0.3,3.4-0.4,6.8-0.4,10.2v112.8c0,34.5,14,65.8,36.6,88.4c22.6,22.6,53.9,36.6,88.4,36.6c65.6,0,119.4-50.5,124.6-114.8
		c0.3-3.4,0.4-6.8,0.4-10.2v-32.2L-1016.6,131.5L-1016.6,131.5z"/>
	<path fill="#232148" d="M-872,78.1v116c0,11-9,20-20,20h0c-11,0-20-9-20-20v-116c0-11,9-20,20-20h0C-881,58.1-872,67-872,78.1z"/>
	<path fill="#232148" d="M-982,73.1v86c0,8.3-6.7,15-15,15h0c-8.3,0-15-6.7-15-15v-86c0-8.3,6.7-15,15-15h0
		C-988.7,58.1-982,64.8-982,73.1z"/>
	<path fill="#232148" d="M-772,73.1v166c0,8.3-6.7,15-15,15h0c-8.3,0-15-6.7-15-15v-166c0-8.3,6.7-15,15-15h0
		C-778.7,58.1-772,64.8-772,73.1z"/>
	<path fill="#F5F5F4" d="M-1017,131.1l250,91.3v32.2c0,3.4-0.1,6.9-0.4,10.2l-249.6-90.8V131.1z"/>
	<g>
		<path fill="#232148" d="M-1192.2,984.9c-78.2,0-141.7-63.6-141.7-141.7c0-38.5,31.3-69.8,69.8-69.8s69.8,31.3,69.8,69.8
			c0,40.8,33.2,74,74,74c28.5,0,53.3-16.2,65.6-39.8C-1069.9,939-1125.8,984.9-1192.2,984.9z"/>
		<path fill="#F5F5F4" d="M-1264.1,775.4c37.3,0,67.7,30.4,67.7,67.7c0,42,34.2,76.1,76.1,76.1c24,0,45.5-11.2,59.5-28.6
			c-6.9,19-17.9,36.5-32.7,51.2c-26.4,26.4-61.4,40.9-98.7,40.9c-37.3,0-72.4-14.5-98.7-40.9c-26.4-26.4-40.9-61.4-40.9-98.7
			C-1331.8,805.8-1301.4,775.4-1264.1,775.4 M-1264.1,771.2c-39.7,0-71.9,32.2-71.9,71.9c0,79.4,64.4,143.8,143.8,143.8
			c79.4,0,143.8-64.4,143.8-143.8c0,39.7-32.2,71.9-71.9,71.9c-39.7,0-71.9-32.2-71.9-71.9C-1192.2,803.4-1224.4,771.2-1264.1,771.2
			L-1264.1,771.2z M-1048.3,843.1C-1048.3,843.1-1048.3,843.2-1048.3,843.1C-1048.3,843.2-1048.3,843.1-1048.3,843.1L-1048.3,843.1z
			"/>
	</g>
	<g>
		<path fill="#F5F5F4" d="M-1120.2,913c-38.5,0-69.8-31.3-69.8-69.8c0-40.8-33.2-74-74-74c-28.5,0-53.3,16.2-65.6,39.8
			c15.3-61.7,71.2-107.5,137.6-107.5c78.2,0,141.7,63.6,141.7,141.7C-1050.4,881.6-1081.7,913-1120.2,913z"/>
		<path fill="#232148" d="M-1192.2,703.5c37.3,0,72.4,14.5,98.7,40.9c26.4,26.4,40.9,61.4,40.9,98.7c0,37.3-30.4,67.7-67.7,67.7
			c-37.3,0-67.7-30.4-67.7-67.7c0-42-34.2-76.1-76.1-76.1c-24,0-45.5,11.2-59.5,28.6c6.9-19,17.9-36.5,32.6-51.2
			C-1264.5,718-1229.5,703.5-1192.2,703.5 M-1192.2,699.3c-79.4,0-143.8,64.4-143.8,143.8c0-39.7,32.2-71.9,71.9-71.9
			c39.7,0,71.9,32.2,71.9,71.9c0,39.7,32.2,71.9,71.9,71.9c39.7,0,71.9-32.2,71.9-71.9C-1048.3,763.7-1112.7,699.3-1192.2,699.3
			L-1192.2,699.3z"/>
	</g>
	<path fill="#232148" d="M-1107.8,811.8l21.4,25.5c2.9,3.4,2.9,8.4,0,11.8l-36.3,43.3c-3.3,3.9-9,4.4-12.9,1.1h0
		c-3.9-3.3-4.4-9.1-1.1-12.9l26.4-31.5c2.9-3.4,2.9-8.4,0-11.8l-26.5-31.6c-3.3-3.9-2.8-9.7,1.1-12.9l0,0c3.9-3.3,9.7-2.7,12.9,1.1
		L-1107.8,811.8L-1107.8,811.8z"/>
	<path fill="#F5F5F4" d="M-1276.5,811.8l-21.4,25.5c-2.9,3.4-2.9,8.4,0,11.8l36.3,43.3c3.3,3.9,9,4.4,12.9,1.1l0,0
		c3.9-3.3,4.4-9.1,1.1-12.9l-26.4-31.5c-2.9-3.4-2.9-8.4,0-11.8l26.5-31.6c3.3-3.9,2.8-9.7-1.1-12.9l0,0c-3.9-3.3-9.7-2.7-12.9,1.1
		L-1276.5,811.8L-1276.5,811.8z"/>
	<path fill="#F5F5F4" d="M-1185.8,872.7l-17.5,65.4c-2,7.3-9.5,11.7-16.9,9.7c-6.2-1.6-10.2-7.2-10.2-13.3c0-1.2,0.2-2.4,0.5-3.6
		l31.5-117.4c4.1,9,6.3,19,6.3,29.6C-1192.2,853.7-1189.9,863.7-1185.8,872.7z"/>
	<path fill="#232148" d="M-1154.4,755.3l-31.5,117.4c-4.1-9-6.3-19-6.3-29.6c0-10.5-2.3-20.5-6.3-29.6l17.5-65.4
		c2-7.3,9.5-11.7,16.9-9.7S-1152.4,747.9-1154.4,755.3z"/>
</g>
</svg>
