<?xml version="1.0" encoding="UTF-8"?><svg id="Livello_5" xmlns="http://www.w3.org/2000/svg" xmlns:xlink="http://www.w3.org/1999/xlink" viewBox="0 0 2283 2283"><defs><filter id="drop-shadow-2" filterUnits="userSpaceOnUse"><feOffset dx="0" dy="9.01"/><feGaussianBlur result="blur" stdDeviation="27.04"/><feFlood flood-color="#000" flood-opacity=".35"/><feComposite in2="blur" operator="in"/><feComposite in="SourceGraphic"/></filter><filter id="drop-shadow-3" filterUnits="userSpaceOnUse"><feOffset dx="0" dy="9.01"/><feGaussianBlur result="blur-2" stdDeviation="27.04"/><feFlood flood-color="#000" flood-opacity=".35"/><feComposite in2="blur-2" operator="in"/><feComposite in="SourceGraphic"/></filter><filter id="drop-shadow-4" filterUnits="userSpaceOnUse"><feOffset dx="0" dy="9.01"/><feGaussianBlur result="blur-3" stdDeviation="27.04"/><feFlood flood-color="#000" flood-opacity=".35"/><feComposite in2="blur-3" operator="in"/><feComposite in="SourceGraphic"/></filter><filter id="drop-shadow-5" filterUnits="userSpaceOnUse"><feOffset dx="0" dy="9.01"/><feGaussianBlur result="blur-4" stdDeviation="27.04"/><feFlood flood-color="#000" flood-opacity=".35"/><feComposite in2="blur-4" operator="in"/><feComposite in="SourceGraphic"/></filter></defs><path d="M1968.05,1660.98c-.07,.18-.13,.34-.2,.52-5.01,13.25-10.33,26.43-15.95,39.48-.72,1.68-1.46,3.33-2.18,4.99-1.53,3.52-3.1,7.03-4.69,10.53-75.26,165.99-177.05,290.69-323.95,366.94-1.05,.56-2.07,1.08-3.12,1.62-14.73,7.54-29.89,14.58-45.53,21.14-2.15,.92-4.29,1.8-6.45,2.69-65.71,26.8-139.6,45.07-223,54.29-72.14,7.99-135.22-48.58-135.22-121.17V227.19c0-73.55,72.66-128.1,141.72-102.84,253.2,92.62,456.62,322.74,575.62,614.17,6.06,14.82,11.9,29.78,17.49,44.85,53.39,143.4,78.31,257.39,85.52,446.67,3.99,104.67-1.34,275.84-60.05,430.94Z" fill="#232148" filter="url(#drop-shadow-2)" stroke="#f5f5f4" stroke-miterlimit="10" stroke-width="36.05"/><path d="M1949.58,783.37l-65.34,152.05c-20.51,56.49-59.84,104.57-111.65,136.42l-188.34,115.87v-46.17l161.42-93.38c40.74-27.33,73.29-59.09,92.87-101.49l93.22-208.17c6.17,14.82,12.13,29.78,17.83,44.85Z" fill="#f5f5f4"/><path d="M1973.58,1660.98c-.07,.18-.13,.34-.2,.52-5.08,13.25-10.48,26.43-16.18,39.48l-111.84-91.41c-43.5-33.51-66.05-51.28-128.29-83.64-18.72-9.75-38.33-17.79-58.53-24.08l-74.28-23.13v-49.82l102.71,36.03c72.83,31.82,113.06,49.84,198.46,117.48l88.16,78.58Z" fill="#f5f5f4"/><path d="M1621.08,2088.49c-1.05,.58-2.07,1.12-3.12,1.68-14.73,7.79-29.89,15.07-45.53,21.85l-31.13-163.36c-5.71-26.85-11.12-58.52-36.43-101.35l-82.16-132.29h55.2l54.08,78.24c28.18,43.78,46.87,91.29,57.68,139.72l31.42,155.5Z" fill="#f5f5f4"/><path d="M1400.38,825.02s67.88-132.54,74.21-146.78c35.56-80.06,29.08-173.02-15.46-249.76l-13.34-22.98c-4.84-8.34-8.14-15.86-6.38-22.58,1.08-4.13,4.19-7.49,8.12-9.47h0c6.76-3.4,15.15-2.29,20.43,2.98,3.76,3.76,15.91,23.07,25.18,42.35l15.11,31.88c26.14,55.15,31.27,116.39,22.36,176.23-4.04,27.11-31.28,82.49-31.28,82.49l-58.75,115.65h-40.2Z" fill="#f5f5f4"/><path d="M322.54,1661.66c.07,.18,.13,.34,.2,.52,5.01,13.25,10.33,26.43,15.95,39.48,.72,1.68,1.46,3.33,2.18,4.99,1.53,3.52,3.1,7.03,4.69,10.53,75.26,165.99,177.05,290.69,323.95,366.94,1.05,.56,2.07,1.08,3.12,1.62,14.73,7.54,29.89,14.58,45.53,21.14,2.15,.92,4.29,1.8,6.45,2.69,65.71,26.8,139.6,45.07,223,54.29,72.14,7.99,135.22-48.58,135.22-121.17V227.87c0-73.55-72.66-128.1-141.72-102.84-253.2,92.62-456.62,322.74-575.62,614.17-6.06,14.82-11.9,29.78-17.49,44.85-53.39,143.4-78.31,257.39-85.52,446.67-3.99,104.67,1.34,275.84,60.05,430.94Z" fill="#232148" filter="url(#drop-shadow-3)" stroke="#f5f5f4" stroke-miterlimit="10" stroke-width="36.05"/><path d="M341.01,784.05l65.34,152.05c20.51,56.49,59.84,104.57,111.65,136.42l188.34,115.87v-46.17l-161.42-93.38c-40.74-27.33-73.29-59.09-92.87-101.49l-93.22-208.17c-6.17,14.82-12.13,29.78-17.83,44.85Z" fill="#f5f5f4"/><path d="M317.01,1661.66c.07,.18,.13,.34,.2,.52,5.08,13.25,10.48,26.43,16.18,39.48l111.84-91.41c43.5-33.51,66.05-51.28,128.29-83.64,18.72-9.75,38.33-17.79,58.53-24.08l74.28-23.13v-49.82l-102.71,36.03c-72.83,31.82-113.06,49.84-198.46,117.48l-88.16,78.58Z" fill="#f5f5f4"/><path d="M669.51,2089.17c1.05,.58,2.07,1.12,3.12,1.68,14.73,7.79,29.89,15.07,45.53,21.85l31.13-163.36c5.71-26.85,11.12-58.52,36.43-101.35l82.16-132.29h-55.2l-54.08,78.24c-28.18,43.78-46.87,91.29-57.68,139.72l-31.42,155.5Z" fill="#f5f5f4"/><path d="M890.2,825.7s-67.88-132.54-74.21-146.78c-35.56-80.06-29.08-173.02,15.46-249.76l13.34-22.98c4.84-8.34,8.14-15.86,6.38-22.58-1.08-4.13-4.19-7.49-8.12-9.47h0c-6.76-3.4-15.15-2.29-20.43,2.98-3.76,3.76-15.91,23.07-25.18,42.35l-15.11,31.88c-26.14,55.15-31.27,116.39-22.36,176.23,4.04,27.11,31.28,82.49,31.28,82.49l58.75,115.65h40.2Z" fill="#f5f5f4"/><g><rect x="690.76" y="819.77" width="901.31" height="901.31" rx="83.15" ry="83.15" fill="#f5f5f4" filter="url(#drop-shadow-4)"/><g filter="url(#drop-shadow-5)"><path d="M841.97,1206.44c10.69,0,19.74,.99,27.13,2.98,7.39,1.98,13.37,5.35,17.94,10.09,4.57,4.75,7.87,11.27,9.91,19.56,2.04,8.29,3.06,18.75,3.06,31.37s-1.02,23.07-3.06,31.37c-2.05,8.29-5.35,14.81-9.91,19.56-4.57,4.75-10.54,8.11-17.94,10.09-7.39,1.98-16.43,2.98-27.13,2.98s-19.83-.18-28.48-.54c-8.65-.36-16.89-.78-24.7-1.26l15.86-27.76c4.21,.48,9.52,.81,15.95,.99,6.43,.18,13.55,.27,21.36,.27,4.44,0,7.87-.96,10.28-2.88,2.4-1.92,4.08-5.47,5.05-10.64,.96-5.16,1.44-12.56,1.44-22.17s-.48-17-1.44-22.17c-.96-5.17-2.64-8.71-5.05-10.64-2.41-1.92-5.83-2.88-10.28-2.88h-19.38c-5.59,0-11.03-.06-16.31-.18l-17.49-26.32c7.93-.48,16.13-.9,24.61-1.26,8.47-.36,17.99-.54,28.57-.54Zm-14.06,1.8v124.38h-39.12v-124.38h39.12Z" fill="#232148"/><path d="M959.68,1207.52c7.21,0,14.63,.03,22.26,.09,7.63,.06,15.11,.24,22.44,.54,7.33,.3,14,.87,20.01,1.71l-1.8,27.58h-45.61c-2.28,0-4.09,.6-5.41,1.8-1.32,1.2-1.98,2.77-1.98,4.69v53c0,1.92,.66,3.49,1.98,4.69,1.32,1.2,3.12,1.8,5.41,1.8h45.61l1.8,27.58c-6.01,.72-12.68,1.26-20.01,1.62-7.33,.36-14.81,.57-22.44,.63-7.63,.06-15.05,.09-22.26,.09-8.53,0-15.53-2.61-21-7.84-5.47-5.23-8.2-12.05-8.2-20.46v-69.22c0-8.41,2.73-15.23,8.2-20.46,5.47-5.23,12.47-7.84,21-7.84Zm-25.96,48.49h82.38v25.96h-82.38v-25.96Z" fill="#232148"/><path d="M1166.8,1208.24l-30.28,113.93c-.72,3.13-2.28,5.65-4.69,7.57-2.4,1.92-5.29,2.88-8.65,2.88h-34.25c-3.37,0-6.25-.96-8.65-2.88-2.4-1.92-3.97-4.44-4.69-7.57l-30.29-113.93h40.2l16.04,80.94c.48,2.28,.9,4.66,1.26,7.12,.36,2.46,.72,4.84,1.08,7.12h4.33c.24-2.28,.57-4.66,.99-7.12,.42-2.46,.87-4.84,1.35-7.12l16.04-80.94h40.2Z" fill="#232148"/><path d="M1328.13,1208.24c8.77,0,13.34,4.51,13.7,13.52l4.33,110.86h-35.15l-3.78-95.18h-2.7l-12.26,63.45c-1.2,7.93-6.13,11.9-14.78,11.9h-20.19c-8.53,0-13.52-3.97-14.96-11.9l-12.44-63.45h-2.7l-3.06,95.18h-35.15l4.33-110.86c.36-9.01,4.93-13.52,13.7-13.52h33.71c8.41,0,13.34,4.03,14.78,12.08l9.01,49.39c.48,3.01,.87,6.07,1.17,9.19,.3,3.13,.57,6.25,.81,9.37h1.62c.36-3.12,.69-6.25,.99-9.37,.3-3.12,.69-6.19,1.17-9.19l8.47-49.39c1.44-8.05,6.43-12.08,14.96-12.08h34.43Z" fill="#232148"/><path d="M1448.91,1208.24c3.12,0,5.89,.9,8.29,2.7,2.4,1.8,4.03,4.27,4.87,7.39l32.27,114.29h-39.84l-18.75-80.94c-.48-2.28-.9-4.65-1.26-7.12-.36-2.46-.66-4.84-.9-7.12h-4.87c-.24,2.28-.54,4.66-.9,7.12-.36,2.46-.78,4.84-1.26,7.12l-18.75,80.94h-39.84l32.27-114.29c.84-3.12,2.46-5.59,4.87-7.39,2.4-1.8,5.16-2.7,8.29-2.7h35.51Zm15.32,70.12v27.4h-66.16v-27.4h66.16Z" fill="#232148"/></g></g></svg>