<?xml version="1.0" encoding="utf-8"?>
<!-- Generator: Adobe Illustrator 27.0.0, SVG Export Plug-In . SVG Version: 6.00 Build 0)  -->
<svg version="1.1" id="Livello_1" xmlns="http://www.w3.org/2000/svg" xmlns:xlink="http://www.w3.org/1999/xlink" x="0px" y="0px"
	 viewBox="0 0 700 700" style="enable-background:new 0 0 700 700;" xml:space="preserve">
<style type="text/css">
	.st0{fill:#ED6C47;}
	.st1{fill:#FF8F6B;}
	.st2{fill:#D35230;}
	.st3{opacity:0.1;enable-background:new    ;}
	.st4{opacity:0.2;enable-background:new    ;}
	.st5{fill:url(#SVGID_1_);}
	.st6{fill:#FFFFFF;}
</style>
<g>
	<path class="st0" d="M423.2,382.5L374.4,25h-3.6C193.3,25.3,49.5,168.9,48.8,346.4v3.6L423.2,382.5z"/>
	<path class="st1" d="M378.1,25h-3.6v325l162.8,65L700,350v-3.6C699.4,168.9,555.5,25.3,378.1,25z"/>
	<path class="st2" d="M700,350v3.6C699.3,531,555.5,674.7,378,675h-7.2c-177.5-0.4-321.3-144-322-321.4V350H700z"/>
	<path class="st3" d="M390.7,184.7v346.8c-0.1,12.1-7.4,22.9-18.6,27.5c-3.6,1.5-7.4,2.3-11.3,2.3H125.7c-4.6-5.2-8.9-10.7-13-16.2
		c-41.5-55.2-63.9-122.4-63.8-191.4v-7.2c-0.1-62.3,18.2-123.2,52.4-175.2c3.6-5.5,7.3-11.1,11.4-16.2h248.3
		C377.3,155.1,390.6,168.3,390.7,184.7z"/>
	<path class="st4" d="M374.4,201v346.8c0,3.8-0.8,7.7-2.3,11.2c-4.6,11.1-15.4,18.4-27.5,18.5H140.5c-5.1-5.2-10.1-10.6-14.8-16.2
		c-4.6-5.2-8.9-10.7-13-16.2c-41.5-55.2-63.9-122.4-63.8-191.4v-7.1c-0.1-62.3,18.2-123.2,52.4-175.2h243.4
		C361,171.4,374.3,184.6,374.4,201z"/>
	<path class="st4" d="M374.4,201v314.3c-0.1,16.4-13.4,29.6-29.8,29.7h-232c-41.5-55.2-63.9-122.4-63.8-191.4v-7.1
		c-0.1-62.3,18.2-123.2,52.4-175.2h243.4C361,171.4,374.3,184.6,374.4,201z"/>
	<path class="st4" d="M358.1,201v314.3c-0.1,16.4-13.4,29.6-29.8,29.7H112.7c-41.5-55.2-63.9-122.4-63.8-191.4v-7.1
		c-0.1-62.3,18.2-123.2,52.4-175.2h227.1C344.7,171.4,358,184.6,358.1,201z"/>
	
		<linearGradient id="SVGID_1_" gradientUnits="userSpaceOnUse" x1="-152.0663" y1="2606.6462" x2="-142.7282" y2="2590.4739" gradientTransform="matrix(25 0 0 -25 3864 65314)">
		<stop  offset="0" style="stop-color:#CA4C28"/>
		<stop  offset="0.5" style="stop-color:#C5401E"/>
		<stop  offset="1" style="stop-color:#B62F14"/>
	</linearGradient>
	<path class="st5" d="M29.9,171.3h298.4c16.5,0,29.8,13.3,29.9,29.8V499c0,16.5-13.4,29.8-29.9,29.8H29.9C13.4,528.8,0,515.5,0,499
		c0,0,0,0,0,0V201C0,184.6,13.4,171.2,29.9,171.3C29.8,171.2,29.8,171.2,29.9,171.3z"/>
	<path class="st6" d="M182.3,250.7c19.4-1.3,38.7,4.3,54.3,15.9c13,11.6,20,28.6,18.9,46c0.2,12.1-3,24.1-9.3,34.4
		c-6.4,10.2-15.6,18.3-26.5,23.4c-12.5,5.8-26.1,8.6-39.8,8.4h-37.8v70h-38.6v-198H182.3z M142.1,348.5h33.3
		c10.6,0.8,21-2.4,29.4-8.8c7-6.6,10.6-16,10-25.6c0-21.8-12.7-32.7-38.1-32.8h-34.6V348.5z"/>
</g>
</svg>
