<?xml version="1.0" encoding="utf-8"?>
<!-- Generator: Adobe Illustrator 27.0.0, SVG Export Plug-In . SVG Version: 6.00 Build 0)  -->
<svg version="1.1" id="Livello_1" xmlns="http://www.w3.org/2000/svg" xmlns:xlink="http://www.w3.org/1999/xlink" x="0px" y="0px"
	 viewBox="0 0 240 240" style="enable-background:new 0 0 240 240;" xml:space="preserve">
<style type="text/css">
	.st0{fill:#00005B;}
	.st1{fill:#9999FF;}
</style>
<g id="vlpa">
	<g id="vlpb">
		<g id="vlpc">
			<g id="vlpd">
				<path class="st0" d="M42.5,3h155C221,3,240,22,240,45.5v149c0,23.5-19,42.5-42.5,42.5h-155C19,237,0,218,0,194.5v-149
					C0,22,19,3,42.5,3z"/>
			</g>
		</g>
	</g>
	<g id="vlpe">
		<g id="vlpf">
			<path class="st1" d="M57,167V64c0-0.7,0.3-1.1,1-1.1c1.7,0,3.3,0,5.6-0.1c2.4-0.1,4.9-0.1,7.6-0.2s5.6-0.1,8.7-0.2
				s6.1-0.1,9.1-0.1c8.2,0,15,1,20.6,3.1c5,1.7,9.6,4.5,13.4,8.2c3.2,3.2,5.7,7.1,7.3,11.4c1.5,4.2,2.3,8.5,2.3,13
				c0,8.6-2,15.7-6,21.3s-9.6,9.8-16.1,12.2c-6.8,2.5-14.3,3.4-22.5,3.4c-2.4,0-4,0-5-0.1s-2.4-0.1-4.3-0.1v32.1
				c0.1,0.7-0.4,1.3-1.1,1.4h-0.4h-19c-0.8,0-1.2-0.4-1.2-1.3L57,167z M78.8,82.3v33.6c1.4,0.1,2.7,0.2,3.9,0.2H88
				c3.9,0,7.8-0.6,11.5-1.8c3.2-0.9,6-2.8,8.2-5.3c2.1-2.5,3.1-5.9,3.1-10.3c0.1-3.1-0.7-6.2-2.3-8.9c-1.7-2.6-4.1-4.6-7-5.7
				c-3.7-1.5-7.7-2.1-11.8-2c-2.6,0-4.9,0-6.8,0.1C80.9,82.1,79.5,82.2,78.8,82.3L78.8,82.3z"/>
			<path class="st1" d="M147,88.2h17.5c1,0,1.8,0.7,2.1,1.6c0.3,0.8,0.5,1.6,0.6,2.5c0.2,1,0.4,2.1,0.5,3.1c0.1,1.1,0.2,2.3,0.2,3.6
				c3-3.5,6.6-6.4,10.7-8.6c4.6-2.6,9.9-3.9,15.2-3.9c0.7-0.1,1.3,0.4,1.4,1.1V88v19.5c0,0.8-0.5,1.1-1.6,1.1
				c-3.6-0.1-7.3,0.2-10.8,1c-2.9,0.6-5.7,1.5-8.4,2.7c-1.9,0.9-3.7,2.1-5.1,3.7v51c0,1-0.4,1.4-1.3,1.4h-19.7
				c-0.8,0.1-1.5-0.4-1.6-1.2v-0.4v-55.4c0-2.4,0-4.9-0.1-7.5s-0.1-5.2-0.2-7.8c0-2.3-0.2-4.5-0.4-6.8c-0.1-0.5,0.2-1,0.7-1.1
				C146.7,88.1,146.9,88.1,147,88.2L147,88.2z"/>
		</g>
	</g>
</g>
</svg>
