<?xml version="1.0" encoding="utf-8"?>
<!-- Generator: Adobe Illustrator 27.0.0, SVG Export Plug-In . SVG Version: 6.00 Build 0)  -->
<svg version="1.2" baseProfile="tiny" id="Livello_1"
	 xmlns="http://www.w3.org/2000/svg" xmlns:xlink="http://www.w3.org/1999/xlink" x="0px" y="0px" viewBox="0 0 800 800"
	 overflow="visible" xml:space="preserve">
<g id="Icons">
	<circle fill-rule="evenodd" fill="#F5F5F4" cx="400" cy="400" r="359.5"/>
	<g id="Color-" transform="translate(-200.000000, -460.000000)">
		<path id="Spotify" fill-rule="evenodd" fill="#00DA5A" d="M600,460c-220,0-400,180-400,400s180,400,400,400s400-180,400-400
			S822,460,600,460z M784,1038c-8,12-22,16-34,8c-94-58-212-70-352-38c-14,4-26-6-30-18c-4-14,6-26,18-30c152-34,284-20,388,44
			C788,1010,790,1026,784,1038z M832,928c-10,14-28,20-42,10c-108-66-272-86-398-46c-16,4-34-4-38-20s4-34,20-38
			c146-44,326-22,450,54C836,894,842,914,832,928z M836,816c-128-76-342-84-464-46c-20,6-40-6-46-24c-6-20,6-40,24-46
			c142-42,376-34,524,54c18,10,24,34,14,52C878,820,854,826,836,816z"/>
	</g>
</g>
</svg>
