<?xml version="1.0" encoding="utf-8"?>
<!-- Generator: Adobe Illustrator 27.0.0, SVG Export Plug-In . SVG Version: 6.00 Build 0)  -->
<svg version="1.1" id="Livello_1" xmlns="http://www.w3.org/2000/svg" xmlns:xlink="http://www.w3.org/1999/xlink" x="0px" y="0px"
	 viewBox="0 0 200 200" style="enable-background:new 0 0 200 200;" xml:space="preserve">
<style type="text/css">
	.st0{fill-rule:evenodd;clip-rule:evenodd;fill:#F5F5F4;}
</style>
<path id="Vector" class="st0" d="M159.2,89.2C127.1,70,73.8,68.3,43.3,77.5c-5,1.7-10-1.7-11.7-5.8c-1.7-5,1.2-10,5.8-11.7
	c35.4-10.4,94.2-8.3,130.8,13.3c4.6,2.5,5.8,8.3,3.3,12.9C169.6,90,163.3,91.7,159.2,89.2z M157.9,117.1c-2.5,3.3-7.1,5-10.4,2.5
	c-27.1-16.7-67.9-21.7-99.6-11.7c-4.2,0.8-8.3-0.8-9.6-5c-0.8-4.2,0.8-8.3,5-9.6C80,82.5,125,87.9,155.8,106.7
	C159.2,108.3,160.4,113.3,157.9,117.1z M145.8,144.6c-2.1,2.9-5.4,4.2-8.3,2.1c-23.3-14.6-52.9-17.5-87.9-9.6
	c-3.3,0.8-6.7-1.7-7.5-4.6c-0.8-3.3,1.7-6.7,4.6-7.5c37.9-8.3,70.8-5,97.1,10.8C147.1,137.5,147.5,141.7,145.8,144.6z M100,0
	C45,0,0,45,0,100s45,100,100,100s100-45,100-100S155.4,0,100,0z"/>
</svg>
