<?xml version="1.0" encoding="utf-8"?>
<!-- Generator: Adobe Illustrator 27.0.0, SVG Export Plug-In . SVG Version: 6.00 Build 0)  -->
<svg version="1.1" id="Livello_1" xmlns="http://www.w3.org/2000/svg" xmlns:xlink="http://www.w3.org/1999/xlink" x="0px" y="0px"
	 viewBox="0 0 201 201" style="enable-background:new 0 0 201 201;" xml:space="preserve">
<style type="text/css">
	.st0{fill:#F5F5F4;}
</style>
<path id="Vector" class="st0" d="M201,39.2c-8,3-15,5-24,6c9-5,15-13,18-23c-8,5-17,8-26,10c-15-17-41-18-58-2c-11,10-16,25-12,40
	c-33-2-63-18-84-43c-4,6-6,13-6,20c0,14,7,26,18,34c-6,0-12-1-18-5v1c0,19,14,36,33,40c-4,1-7,2-11,2c-3,0-5,0-8-1c5,17,21,28,38,28
	c-14,11-32,18-51,18c-3,0-7,0-10-1c19,12,41,19,63,19c64,1,116-51,117-115c0-1,0-1,0-2c0-2,0-4,0-5C189,54.2,196,47.2,201,39.2z"/>
</svg>
