<?xml version="1.0" encoding="utf-8"?>
<!-- Generator: Adobe Illustrator 27.0.0, SVG Export Plug-In . SVG Version: 6.00 Build 0)  -->
<svg version="1.1" id="Livello_1" xmlns="http://www.w3.org/2000/svg" xmlns:xlink="http://www.w3.org/1999/xlink" x="0px" y="0px"
	 viewBox="0 0 700.1 696" style="enable-background:new 0 0 700.1 696;" xml:space="preserve">
<style type="text/css">
	.st0{fill:#0065A9;}
	.st1{fill:#007ACC;}
	.st2{fill:#1F9CF0;}
</style>
<g>
	<path class="st0" d="M675.3,73.7L531.2,4.3c-16.7-8-36.6-4.7-49.7,8.5L9.6,443c-11.9,10.8-12.8,29.3-2,41.2
		c0.6,0.7,1.2,1.3,1.9,1.9l38.5,35c10.4,9.5,26,10.1,37.2,1.7l568.4-431c12.7-9.7,30.9-7.2,40.6,5.6c3.8,5,5.9,11.2,5.9,17.5v-1.7
		C700.1,96.3,690.4,81,675.3,73.7z"/>
	<path class="st1" d="M675.3,622.2l-144.2,69.4c-16.7,8-36.6,4.6-49.7-8.4L9.6,253c-11.9-10.8-12.8-29.3-2-41.2
		c0.6-0.7,1.2-1.3,1.9-1.9l38.5-35c10.4-9.5,26.1-10.2,37.3-1.7l568.3,431c12.7,9.7,30.9,7.2,40.6-5.6c3.8-5,5.9-11.2,5.9-17.5v1.8
		C700,599.7,690.4,615,675.3,622.2z"/>
	<path class="st2" d="M531.2,691.7c-16.7,8-36.6,4.6-49.7-8.4c10.1,9.9,26.3,9.8,36.2-0.2c4.7-4.8,7.4-11.2,7.4-17.9V30.9
		c0-14.1-11.4-25.6-25.6-25.6c-6.8,0-13.3,2.7-18.1,7.5c13.1-13.1,33-16.5,49.7-8.5l144.1,69.3c15.2,7.2,24.9,22.6,24.9,39.4v470
		c0,16.8-9.6,32.1-24.8,39.4L531.2,691.7z"/>
</g>
</svg>
