<?xml version="1.0" encoding="utf-8"?>
<!-- Generator: Adobe Illustrator 27.0.0, SVG Export Plug-In . SVG Version: 6.00 Build 0)  -->
<svg version="1.1" id="Livello_1" xmlns="http://www.w3.org/2000/svg" xmlns:xlink="http://www.w3.org/1999/xlink" x="0px" y="0px"
	 viewBox="0 0 700 700" style="enable-background:new 0 0 700 700;" xml:space="preserve">
<style type="text/css">
	.st0{fill:#41A5EE;}
	.st1{fill:#2B7CD3;}
	.st2{fill:#185ABD;}
	.st3{fill:#103F91;}
	.st4{opacity:0.1;enable-background:new    ;}
	.st5{opacity:0.2;enable-background:new    ;}
	.st6{fill:url(#SVGID_1_);}
	.st7{fill:#FFFFFF;}
</style>
<g>
	<path class="st0" d="M670.2,25H192.6c-16.5,0-29.8,13.3-29.8,29.8v0l0,0v132.7l276.7,81.2L700,187.5V54.8
		C700,38.3,686.6,25,670.2,25C670.2,25,670.2,25,670.2,25z"/>
	<path class="st1" d="M700,187.5H162.8V350l276.7,48.8L700,350V187.5z"/>
	<path class="st2" d="M162.8,350v162.5L423.2,545L700,512.5V350H162.8z"/>
	<path class="st3" d="M192.6,675h477.5c16.5,0,29.8-13.3,29.9-29.7c0,0,0,0,0-0.1l0,0V512.5H162.8v132.7
		C162.8,661.7,176.2,675,192.6,675C192.6,675,192.6,675,192.6,675z"/>
	<path class="st4" d="M360.9,155H162.8v406.3h198.1c16.4-0.1,29.7-13.4,29.9-29.8V184.8C390.6,168.4,377.3,155.1,360.9,155z"/>
	<path class="st5" d="M344.6,171.2H162.8v406.2h181.8c16.4-0.1,29.7-13.4,29.8-29.8V201C374.3,184.6,361,171.3,344.6,171.2z"/>
	<path class="st5" d="M344.6,171.2H162.8V545h181.8c16.4-0.1,29.7-13.4,29.8-29.8V201C374.3,184.6,361,171.3,344.6,171.2z"/>
	<path class="st5" d="M328.3,171.2H162.8V545h165.5c16.4-0.1,29.7-13.4,29.9-29.8V201C358,184.6,344.7,171.3,328.3,171.2z"/>
	
		<linearGradient id="SVGID_1_" gradientUnits="userSpaceOnUse" x1="-152.0663" y1="2570.6462" x2="-142.7282" y2="2554.4739" gradientTransform="matrix(25 0 0 -25 3864 64414)">
		<stop  offset="0" style="stop-color:#2368C4"/>
		<stop  offset="0.5" style="stop-color:#1A5DBE"/>
		<stop  offset="1" style="stop-color:#1146AC"/>
	</linearGradient>
	<path class="st6" d="M29.9,171.2h298.4c16.5,0,29.8,13.3,29.9,29.8v298c0,16.5-13.4,29.8-29.9,29.8H29.9C13.4,528.8,0,515.5,0,499
		c0,0,0,0,0,0V201C0,184.6,13.4,171.2,29.9,171.2C29.8,171.2,29.8,171.2,29.9,171.2z"/>
	<path class="st7" d="M122.5,399.7c0.6,4.6,1,8.6,1.2,12h0.7c0.3-3.2,0.8-7.2,1.6-11.7c0.8-4.6,1.5-8.4,2.2-11.6l31.4-135.2h40.6
		l32.5,133.2c1.9,8.2,3.2,16.6,4,25h0.6c0.6-8.2,1.7-16.3,3.4-24.4l26-133.9h36.9L258,446.7h-43.2l-30.9-128.2
		c-0.9-3.7-1.9-8.5-3.1-14.4c-1.1-5.9-1.8-10.3-2.1-13h-0.5c-0.4,3.2-1.1,7.8-2.1,14c-1.1,6.2-1.9,10.8-2.5,13.8l-29.1,127.9h-43.9
		L54.8,253.2h37.5l28.3,135.4C121.4,392.3,122,396,122.5,399.7z"/>
</g>
</svg>
