<?xml version="1.0" encoding="utf-8"?>
<!-- Generator: Adobe Illustrator 27.0.0, SVG Export Plug-In . SVG Version: 6.00 Build 0)  -->
<svg version="1.2" baseProfile="tiny" id="Livello_1"
	 xmlns="http://www.w3.org/2000/svg" xmlns:xlink="http://www.w3.org/1999/xlink" x="0px" y="0px" viewBox="0 0 800 800"
	 overflow="visible" xml:space="preserve">
<g id="Icons">
	<g id="Color-" transform="translate(-200.000000, -368.000000)">
		<path id="Youtube" fill-rule="evenodd" fill="#CE1312" d="M992,606.9c0,0-7.8-55.5-31.8-80c-30.4-32.1-64.5-32.2-80.2-34.1
			c-112-8.2-279.9-8.2-279.9-8.2h-0.3c0,0-167.9,0-279.9,8.2c-15.7,1.9-49.7,2-80.2,34.1c-24,24.5-31.8,80-31.8,80s-8,65.2-8,130.4
			v61.1c0,65.2,8,130.4,8,130.4s7.8,55.5,31.8,80c30.4,32.1,70.4,31.1,88.2,34.4c64,6.2,272,8.1,272,8.1s168.1-0.2,280-8.4
			c15.6-1.9,49.7-2,80.2-34.1c24-24.4,31.8-80,31.8-80s8-65.2,8-130.4v-61.1C1000,672.1,992,606.9,992,606.9z M517.4,872.5l0-226.4
			l216.2,113.6L517.4,872.5z"/>
		<polygon fill-rule="evenodd" fill="#F5F5F4" points="733.5,759.7 517.4,872.5 517.4,646.1 		"/>
	</g>
</g>
</svg>
