<?xml version="1.0" encoding="utf-8"?>
<!-- Generator: Adobe Illustrator 27.0.0, SVG Export Plug-In . SVG Version: 6.00 Build 0)  -->
<svg version="1.1" id="youtube" xmlns="http://www.w3.org/2000/svg" xmlns:xlink="http://www.w3.org/1999/xlink" x="0px" y="0px"
	 viewBox="0 0 22 22" style="enable-background:new 0 0 22 22;" xml:space="preserve">
<style type="text/css">
	.st0{fill:#F5F5F4;}
</style>
<path class="st0" d="M22,8.7c0-1.4-0.3-2.9-0.9-4.1c-0.4-0.5-1-0.9-1.7-1c-2.8-0.3-5.6-0.4-8.4-0.3c-2.8,0-5.6,0.1-8.3,0.3
	C2.1,3.7,1.6,3.9,1.2,4.3c-0.9,0.8-1,2.2-1.1,3.4C0,9.9,0,12.1,0.1,14.3c0,0.7,0.1,1.3,0.3,2c0.1,0.5,0.4,1,0.7,1.4
	C1.5,18,2,18.3,2.6,18.4c2.2,0.3,4.3,0.4,6.5,0.3c3.5,0,6.6,0,10.2-0.3c0.6-0.1,1.1-0.4,1.5-0.8c0.3-0.3,0.5-0.6,0.6-1
	c0.4-1.1,0.5-2.2,0.5-3.4C22,12.7,22,9.3,22,8.7z M8.7,13.9V7.7l5.9,3.1C13,11.7,10.8,12.7,8.7,13.9z"/>
</svg>
